<?xml version="1.0" encoding="UTF-8"?>
<svg id="Calque_1" data-name="Calque 1" xmlns="http://www.w3.org/2000/svg" viewBox="0 0 31.88 32">
  <defs>
    <style>
      .cls-1 {
        font-family: Comfortaa-Bold, Comfortaa;
        font-size: .85px;
        font-variation-settings: 'wght' 700;
        font-weight: 700;
      }

      .cls-1, .cls-2 {
        fill: #ffd5fb;
      }

      .cls-2, .cls-3 {
        stroke-width: 0px;
      }

      .cls-3 {
        fill: #031e39;
      }
    </style>
  </defs>
  <rect class="cls-3" width="31.88" height="32"/>
  <g>
    <ellipse class="cls-2" cx="15.94" cy="15.93" rx="9.02" ry="10.54"/>
    <text class="cls-1" transform="translate(8.1 9.34) rotate(-56.4)"><tspan x="0" y="0">C</tspan></text>
    <text class="cls-1" transform="translate(8.53 8.69) rotate(-52.62)"><tspan x="0" y="0">o</tspan></text>
    <text class="cls-1" transform="translate(8.99 8.1) rotate(-48.09)"><tspan x="0" y="0">m</tspan></text>
    <text class="cls-1" transform="translate(9.64 7.39) rotate(-42.73)"><tspan x="0" y="0">m</tspan></text>
    <text class="cls-1" transform="translate(10.34 6.75) rotate(-37.92)"><tspan x="0" y="0">u</tspan></text>
    <text class="cls-1" transform="translate(10.93 6.3) rotate(-33.53)"><tspan x="0" y="0">n</tspan></text>
    <text class="cls-1" transform="translate(11.57 5.89) rotate(-29.76)"><tspan x="0" y="0">i</tspan></text>
    <text class="cls-1" transform="translate(11.94 5.68) rotate(-26.3)"><tspan x="0" y="0">c</tspan></text>
    <text class="cls-1" transform="translate(12.54 5.39) rotate(-21.77)"><tspan x="0" y="0">a</tspan></text>
    <text class="cls-1" transform="translate(13.21 5.13) rotate(-17.75)"><tspan x="0" y="0">t</tspan></text>
    <text class="cls-1" transform="translate(13.71 4.98) rotate(-14.48)"><tspan x="0" y="0">i</tspan></text>
    <text class="cls-1" transform="translate(14.12 4.87) rotate(-10.54)"><tspan x="0" y="0">o</tspan></text>
    <text class="cls-1" transform="translate(14.84 4.74) rotate(-5.5)"><tspan x="0" y="0">n</tspan></text>
    <text class="cls-1" transform="translate(15.56 4.69) rotate(-1.69)"><tspan x="0" y="0"> </tspan></text>
    <text class="cls-1" transform="translate(15.97 4.68) rotate(1.09)"><tspan x="0" y="0"> </tspan></text>
    <text class="cls-1" transform="translate(16.4 4.69) rotate(4.24)"><tspan x="0" y="0">-</tspan></text>
    <text class="cls-1" transform="translate(16.9 4.73) rotate(7.4)"><tspan x="0" y="0"> </tspan></text>
    <text class="cls-1" transform="translate(17.32 4.79) rotate(10.33)"><tspan x="0" y="0"> </tspan></text>
    <text class="cls-1" transform="translate(17.72 4.86) rotate(14.27)"><tspan x="0" y="0">S</tspan></text>
    <text class="cls-1" transform="translate(18.43 5.05) rotate(18.36)"><tspan x="0" y="0">t</tspan></text>
    <text class="cls-1" transform="translate(18.91 5.22) rotate(21.97)"><tspan x="0" y="0">r</tspan></text>
    <text class="cls-1" transform="translate(19.43 5.43) rotate(26.1)"><tspan x="0" y="0">a</tspan></text>
    <text class="cls-1" transform="translate(20.07 5.75) rotate(29.95)"><tspan x="0" y="0">t</tspan></text>
    <text class="cls-1" transform="translate(20.52 6.01) rotate(33.71)"><tspan x="0" y="0">é</tspan></text>
    <text class="cls-1" transform="translate(21.08 6.4) rotate(37.92)"><tspan x="0" y="0">g</tspan></text>
    <text class="cls-1" transform="translate(21.64 6.84) rotate(41.15)"><tspan x="0" y="0">i</tspan></text>
    <text class="cls-1" transform="translate(21.96 7.12) rotate(44.3)"><tspan x="0" y="0">e</tspan></text>
    <text class="cls-1" transform="translate(22.46 7.62) rotate(47.41)"><tspan x="0" y="0"> </tspan></text>
    <text class="cls-1" transform="translate(22.74 7.93) rotate(50.61)"><tspan x="0" y="0">d</tspan></text>
    <text class="cls-1" transform="translate(23.21 8.51) rotate(53.62)"><tspan x="0" y="0">i</tspan></text>
    <text class="cls-1" transform="translate(23.46 8.85) rotate(56.57)"><tspan x="0" y="0">g</tspan></text>
    <text class="cls-1" transform="translate(23.86 9.47) rotate(59.47)"><tspan x="0" y="0">i</tspan></text>
    <text class="cls-1" transform="translate(24.08 9.86) rotate(61.88)"><tspan x="0" y="0">t</tspan></text>
    <text class="cls-1" transform="translate(24.32 10.3) rotate(64.83)"><tspan x="0" y="0">a</tspan></text>
    <text class="cls-1" transform="translate(24.62 10.97) rotate(67.59)"><tspan x="0" y="0">l</tspan></text>
    <text class="cls-1" transform="translate(24.78 11.34) rotate(70.09)"><tspan x="0" y="0">e</tspan></text>
    <text class="cls-1" transform="translate(25 11.99) rotate(72.6)"><tspan x="0" y="0"> </tspan></text>
    <text class="cls-1" transform="translate(25.12 12.38) rotate(74.47)"><tspan x="0" y="0"> </tspan></text>
    <text class="cls-1" transform="translate(25.24 12.8) rotate(76.64)"><tspan x="0" y="0">-</tspan></text>
    <text class="cls-1" transform="translate(25.35 13.29) rotate(78.66)"><tspan x="0" y="0"> </tspan></text>
    <text class="cls-1" transform="translate(25.43 13.7) rotate(80.53)"><tspan x="0" y="0"> </tspan></text>
    <text class="cls-1" transform="translate(25.5 14.11) rotate(83.17)"><tspan x="0" y="0">B</tspan></text>
    <text class="cls-1" transform="translate(25.58 14.88) rotate(86.13)"><tspan x="0" y="0">r</tspan></text>
    <text class="cls-1" transform="translate(25.62 15.42) rotate(88.76)"><tspan x="0" y="0">a</tspan></text>
    <text class="cls-1" transform="translate(25.63 16.18) rotate(92.01)"><tspan x="0" y="0">n</tspan></text>
    <text class="cls-1" transform="translate(25.6 16.93) rotate(95.28)"><tspan x="0" y="0">d</tspan></text>
    <text class="cls-1" transform="translate(25.53 17.67) rotate(97.77)"><tspan x="0" y="0">i</tspan></text>
    <text class="cls-1" transform="translate(25.47 18.1) rotate(100.4)"><tspan x="0" y="0">n</tspan></text>
    <text class="cls-1" transform="translate(25.33 18.82) rotate(103.67)"><tspan x="0" y="0">g</tspan></text>
    <text class="cls-1" transform="translate(25.15 19.54) rotate(106.31)"><tspan x="0" y="0"> </tspan></text>
    <text class="cls-1" transform="translate(25.03 19.94) rotate(108.17)"><tspan x="0" y="0"> </tspan></text>
    <text class="cls-1" transform="translate(24.89 20.35) rotate(110.38)"><tspan x="0" y="0">-</tspan></text>
    <text class="cls-1" transform="translate(24.71 20.82) rotate(112.57)"><tspan x="0" y="0"> </tspan></text>
    <text class="cls-1" transform="translate(24.55 21.19) rotate(114.46)"><tspan x="0" y="0"> </tspan></text>
    <text class="cls-1" transform="translate(24.37 21.58) rotate(116.52)"><tspan x="0" y="0">I</tspan></text>
    <text class="cls-1" transform="translate(24.19 21.95) rotate(119.39)"><tspan x="0" y="0">d</tspan></text>
    <text class="cls-1" transform="translate(23.81 22.61) rotate(122.95)"><tspan x="0" y="0">e</tspan></text>
    <text class="cls-1" transform="translate(23.42 23.2) rotate(126.72)"><tspan x="0" y="0">n</tspan></text>
    <text class="cls-1" transform="translate(22.97 23.79) rotate(129.96)"><tspan x="0" y="0">t</tspan></text>
    <text class="cls-1" transform="translate(22.65 24.17) rotate(132.43)"><tspan x="0" y="0">i</tspan></text>
    <text class="cls-1" transform="translate(22.36 24.48) rotate(135)"><tspan x="0" y="0">t</tspan></text>
    <text class="cls-1" transform="translate(22 24.83) rotate(138.32)"><tspan x="0" y="0">é</tspan></text>
    <text class="cls-1" transform="translate(21.48 25.29) rotate(141.53)"><tspan x="0" y="0"> </tspan></text>
    <text class="cls-1" transform="translate(21.15 25.55) rotate(144.63)"><tspan x="0" y="0">v</tspan></text>
    <text class="cls-1" transform="translate(20.62 25.92) rotate(147.97)"><tspan x="0" y="0">i</tspan></text>
    <text class="cls-1" transform="translate(20.26 26.14) rotate(151.19)"><tspan x="0" y="0">s</tspan></text>
    <text class="cls-1" transform="translate(19.73 26.43) rotate(155.46)"><tspan x="0" y="0">u</tspan></text>
    <text class="cls-1" transform="translate(19.04 26.73) rotate(160.23)"><tspan x="0" y="0">e</tspan></text>
    <text class="cls-1" transform="translate(18.4 26.96) rotate(163.87)"><tspan x="0" y="0">l</tspan></text>
    <text class="cls-1" transform="translate(17.99 27.07) rotate(166.76)"><tspan x="0" y="0">l</tspan></text>
    <text class="cls-1" transform="translate(17.59 27.16) rotate(170.5)"><tspan x="0" y="0">e</tspan></text>
    <text class="cls-1" transform="translate(16.9 27.27) rotate(174.28)"><tspan x="0" y="0"> </tspan></text>
    <text class="cls-1" transform="translate(16.5 27.3) rotate(177.03)"><tspan x="0" y="0"> </tspan></text>
    <text class="cls-1" transform="translate(16.09 27.32) rotate(-178.92)"><tspan x="0" y="0">-</tspan></text>
    <text class="cls-1" transform="translate(15.6 27.32) rotate(-176.82)"><tspan x="0" y="0"> </tspan></text>
    <text class="cls-1" transform="translate(15.17 27.29) rotate(-173.87)"><tspan x="0" y="0"> </tspan></text>
    <text class="cls-1" transform="translate(14.76 27.25) rotate(-169.67)"><tspan x="0" y="0">D</tspan></text>
    <text class="cls-1" transform="translate(13.95 27.09) rotate(-164.49)"><tspan x="0" y="0">e</tspan></text>
    <text class="cls-1" transform="translate(13.31 26.9) rotate(-160.23)"><tspan x="0" y="0">s</tspan></text>
    <text class="cls-1" transform="translate(12.7 26.67) rotate(-156.64)"><tspan x="0" y="0">i</tspan></text>
    <text class="cls-1" transform="translate(12.32 26.51) rotate(-152.92)"><tspan x="0" y="0">g</tspan></text>
    <text class="cls-1" transform="translate(11.67 26.17) rotate(-148.35)"><tspan x="0" y="0">n</tspan></text>
    <text class="cls-1" transform="translate(11.04 25.77) rotate(-144.81)"><tspan x="0" y="0"> </tspan></text>
    <text class="cls-1" transform="translate(10.7 25.53) rotate(-141.35)"><tspan x="0" y="0">g</tspan></text>
    <text class="cls-1" transform="translate(10.13 25.07) rotate(-137.61)"><tspan x="0" y="0">r</tspan></text>
    <text class="cls-1" transform="translate(9.73 24.7) rotate(-134.13)"><tspan x="0" y="0">a</tspan></text>
    <text class="cls-1" transform="translate(9.22 24.16) rotate(-130.05)"><tspan x="0" y="0">p</tspan></text>
    <text class="cls-1" transform="translate(8.73 23.57) rotate(-126.06)"><tspan x="0" y="0">h</tspan></text>
    <text class="cls-1" transform="translate(8.3 22.96) rotate(-123.11)"><tspan x="0" y="0">i</tspan></text>
    <text class="cls-1" transform="translate(8.07 22.62) rotate(-120.2)"><tspan x="0" y="0">q</tspan></text>
    <text class="cls-1" transform="translate(7.69 21.96) rotate(-116.53)"><tspan x="0" y="0">u</tspan></text>
    <text class="cls-1" transform="translate(7.36 21.28) rotate(-113.04)"><tspan x="0" y="0">e</tspan></text>
    <text class="cls-1" transform="translate(7.1 20.65) rotate(-110.52)"><tspan x="0" y="0"> </tspan></text>
    <text class="cls-1" transform="translate(6.95 20.24) rotate(-108.49)"><tspan x="0" y="0"> </tspan></text>
    <text class="cls-1" transform="translate(6.83 19.86) rotate(-106.46)"><tspan x="0" y="0">-</tspan></text>
    <text class="cls-1" transform="translate(6.69 19.39) rotate(-104.44)"><tspan x="0" y="0"> </tspan></text>
    <text class="cls-1" transform="translate(6.59 18.97) rotate(-102.49)"><tspan x="0" y="0"> </tspan></text>
    <text class="cls-1" transform="translate(6.5 18.57) rotate(-99.93)"><tspan x="0" y="0">S</tspan></text>
    <text class="cls-1" transform="translate(6.37 17.82) rotate(-97.14)"><tspan x="0" y="0">t</tspan></text>
    <text class="cls-1" transform="translate(6.31 17.3) rotate(-94.34)"><tspan x="0" y="0">o</tspan></text>
    <text class="cls-1" transform="translate(6.26 16.57) rotate(-91.56)"><tspan x="0" y="0">r</tspan></text>
    <text class="cls-1" transform="translate(6.25 16.01) rotate(-89.07)"><tspan x="0" y="0">y</tspan></text>
    <text class="cls-1" transform="translate(6.26 15.37) rotate(-86.58)"><tspan x="0" y="0">t</tspan></text>
    <text class="cls-1" transform="translate(6.3 14.86) rotate(-83.95)"><tspan x="0" y="0">e</tspan></text>
    <text class="cls-1" transform="translate(6.38 14.16) rotate(-81.46)"><tspan x="0" y="0">l</tspan></text>
    <text class="cls-1" transform="translate(6.44 13.74) rotate(-79.6)"><tspan x="0" y="0">l</tspan></text>
    <text class="cls-1" transform="translate(6.52 13.33) rotate(-77.74)"><tspan x="0" y="0">i</tspan></text>
    <text class="cls-1" transform="translate(6.61 12.91) rotate(-75.09)"><tspan x="0" y="0">n</tspan></text>
    <text class="cls-1" transform="translate(6.81 12.19) rotate(-71.66)"><tspan x="0" y="0">g</tspan></text>
    <text class="cls-1" transform="translate(7.05 11.49) rotate(-69)"><tspan x="0" y="0"> </tspan></text>
    <text class="cls-1" transform="translate(7.2 11.11) rotate(-67.11)"><tspan x="0" y="0"> </tspan></text>
    <text class="cls-1" transform="translate(7.36 10.72) rotate(-64.91)"><tspan x="0" y="0">-</tspan></text>
    <text class="cls-1" transform="translate(7.58 10.27) rotate(-62.68)"><tspan x="0" y="0"> </tspan></text>
    <text class="cls-1" transform="translate(7.78 9.89) rotate(-60.61)"><tspan x="0" y="0"> </tspan></text>
    <g>
      <path class="cls-3" d="m17.23,21.73c-.17-.26-.23-.6-.18-.91.22-1.53,2.01-2.35,3.4-2.03.41.09.82.29,1.06.64.32.48.23,1.15-.1,1.62s-.85.77-1.39.96c-.56.2-1.16.32-1.74.25-.35-.04-.72-.15-.95-.42-.03-.04-.06-.07-.09-.11Z"/>
      <g>
        <path class="cls-3" d="m19.3,13.21c-.15.1-.3.18-.47.25-.34.16-.82.34-1.54.47-.15.03-.32.06-.5.08-.09.01-.18.03-.28.04-.15.02-.3.03-.47.04-.11,0-.21.01-.32.02,0,0-.02,0-.03,0-.46.02-.97.01-1.53-.04-.35-.03-.71-.08-1.1-.14.11.38.25,1.14.35,1.52h.1c.06,0,.14,0,.21.01.09,0,.18,0,.29,0,.06,0,.13,0,.2,0,.07,0,.15,0,.23-.01.13,0,.21-.02.28-.02.25-.02.48-.04.69-.06.1,0,.19-.01.28-.01.09,0,.18,0,.26,0,.09,0,.18.01.26.02.12.02.22.05.31.1.09.05.16.11.22.19.07.1.17.29.16.48,0,.12-.04.3-.28.49-.3.24-.68.3-1.43.32-.42.01-.95.01-1.57-.01.07.26.35,1.18.44,1.81.09.59.18,1.22.13,1.81-.07.82-.47,1.44-1.29,1.62-.16.04-.33.06-.5.06-.06,0-.11,0-.17,0-.52-.02-1.03-.21-1.42-.57-.05-.05-.11-.11-.16-.16-.11-.13-.21-.27-.3-.43-.41-.79-.41-1.68-.49-2.49-.09-.92-.18-1.85-.26-2.78-.08-.97-.14-1.94-.06-2.89.05-.61.17-1.32.57-2.12.68-1.36,1.81-2.02,2.42-2.36,1.34-.76,2.58-.87,2.9-.89.2-.01.42-.02.67-.01.13,0,.26.01.41.03.08,0,.16.02.25.03.15.02.31.05.48.09.54.12,1.52.41,2.28,1.34.18.21.67.84.78,1.73v.03c.2.98-.17,1.9-1.01,2.44Z"/>
        <path class="cls-3" d="m16.54,15.47c-.09-.05-.19-.08-.31-.1.12.02.22.05.31.1Zm-3.61,6.7c-.16.04-.33.06-.5.06.17,0,.33-.02.5-.06Z"/>
      </g>
    </g>
  </g>
</svg>