<?xml version="1.0" encoding="UTF-8"?>
<svg id="Calque_1" data-name="Calque 1" xmlns="http://www.w3.org/2000/svg" xmlns:xlink="http://www.w3.org/1999/xlink" viewBox="0 0 347.04 287.76">
  <defs>
    <style>
      .cls-1 {
        fill: #ffd5fb;
        filter: url(#drop-shadow-1);
      }

      .cls-1, .cls-2 {
        stroke-width: 0px;
      }

      .cls-2 {
        fill: #152137;
      }
    </style>
    <filter id="drop-shadow-1" filterUnits="userSpaceOnUse">
      <feOffset dx="7" dy="7"/>
      <feGaussianBlur result="blur" stdDeviation="5"/>
      <feFlood flood-color="#000" flood-opacity=".18"/>
      <feComposite in2="blur" operator="in"/>
      <feComposite in="SourceGraphic"/>
    </filter>
  </defs>
  <path class="cls-1" d="m21.46,225.86c-11.78-18.8-15.28-43.15-12.22-65.76C24.17,49.54,145.12-9.75,239.83,12.94c27.92,6.69,55.77,20.9,71.66,46.32,21.57,34.53,15.49,82.96-6.84,116.95-22.32,33.98-57.89,55.5-94.38,69.8-37.7,14.78-78.25,23.07-118.16,18.29-23.89-2.86-48.47-11.17-64.62-30.19-2.21-2.61-4.22-5.37-6.04-8.26Z"/>
  <g>
    <path class="cls-2" d="m96.47,127.62c.88-2.08,2.58-3.07,4.64-3.83,42.29-15.56,84.57-31.16,126.85-46.75.64-.24,1.29-.46,1.92-.7,1.98-.76,3.79-.47,5.29,1.04,1.55,1.56,1.79,3.39.96,5.42-2.63,6.4-5.24,12.81-7.86,19.21-12.44,30.37-24.89,60.75-37.33,91.12-.14.34-.26.68-.4,1.02-1.48,3.42-4.94,4.3-7.83,1.92-4.19-3.45-8.33-6.96-12.48-10.44-5.17-4.33-10.34-8.67-15.52-13-.28-.23-.57-.44-.91-.7-4.23,3.8-8.44,7.57-12.64,11.35-1.8,1.61-3.6,3.23-5.39,4.84-1.17,1.05-2.44,1.77-4.09,1.15-1.64-.61-2.11-1.96-2.36-3.53-2.01-12.23-4.06-24.44-6.07-36.67-.17-1.06-.61-1.74-1.58-2.32-7.13-4.23-14.21-8.55-21.34-12.79-1.64-.97-3.07-2.07-3.84-3.86v-2.46Zm89.46,65.05c14.67-35.71,29.28-71.25,43.89-106.8-.08-.05-.16-.11-.25-.16-27.84,24.49-55.68,48.97-83.58,73.51,13.34,11.17,26.57,22.26,39.94,33.45Zm31.15-106.17c-.04-.08-.07-.16-.11-.24-38.57,14.16-77.15,28.33-115.98,42.59.66.41,1.07.68,1.49.93,7.06,4.25,14.14,8.48,21.17,12.78,1.03.63,1.74.65,2.79,0,27.42-16.99,54.86-33.93,82.29-50.88,2.78-1.72,5.56-3.45,8.34-5.18Zm-7.31,10.39c-.04-.06-.09-.13-.13-.19-.34.18-.69.34-1.02.54-26.67,16.48-53.33,32.96-80.01,49.42-.72.44-.97.83-.82,1.73,1.56,9.12,3.05,18.24,4.57,27.36.21,1.25.46,2.5.69,3.75,1.87-6.01,3.4-12.01,5.07-17.96.33-1.16.98-2.43,1.87-3.21,20.47-18.09,40.99-36.11,61.5-54.15,2.76-2.43,5.51-4.86,8.27-7.29Zm-59.57,71.95c-2.54-2.12-4.98-4.16-7.55-6.31-1.51,5.75-2.95,11.2-4.38,16.64.1.04.2.09.3.13,3.85-3.46,7.71-6.92,11.64-10.46Z"/>
    <path class="cls-2" d="m146.56,196.27c-.51-.76-.66-1.74-.53-2.66.64-4.47,5.86-6.86,9.95-5.95,1.2.27,2.41.84,3.09,1.87.93,1.4.67,3.35-.3,4.73s-2.5,2.24-4.07,2.82c-1.63.6-3.38.93-5.1.74-1.03-.12-2.09-.45-2.79-1.22-.1-.11-.18-.22-.26-.33Z"/>
  </g>
</svg>