<?xml version="1.0" encoding="UTF-8"?>
<svg id="Calque_1" data-name="Calque 1" xmlns="http://www.w3.org/2000/svg" xmlns:xlink="http://www.w3.org/1999/xlink" viewBox="0 0 384.72 318.72">
  <defs>
    <style>
      .cls-1 {
        fill: #ffd5fb;
        filter: url(#drop-shadow-1);
      }

      .cls-1, .cls-2 {
        stroke-width: 0px;
      }

      .cls-2 {
        fill: #152137;
      }
    </style>
    <filter id="drop-shadow-1" filterUnits="userSpaceOnUse">
      <feOffset dx="7" dy="7"/>
      <feGaussianBlur result="blur" stdDeviation="5"/>
      <feFlood flood-color="#000" flood-opacity=".18"/>
      <feComposite in2="blur" operator="in"/>
      <feComposite in="SourceGraphic"/>
    </filter>
  </defs>
  <path class="cls-1" d="m22.88,251.96c-13.19-21.05-17.1-48.31-13.68-73.62C25.92,54.57,161.33-11.81,267.35,13.6c31.26,7.49,62.44,23.4,80.22,51.86,24.15,38.66,17.34,92.88-7.66,130.92-24.99,38.05-64.81,62.13-105.65,78.14-42.2,16.55-87.6,25.82-132.28,20.48-26.74-3.2-54.26-12.51-72.34-33.79-2.48-2.92-4.73-6.01-6.76-9.25Z"/>
  <g>
    <path class="cls-2" d="m115.23,143.09c.88-2.08,2.58-3.07,4.64-3.83,42.29-15.56,84.57-31.16,126.85-46.75.64-.24,1.29-.46,1.92-.7,1.98-.76,3.79-.47,5.29,1.04,1.55,1.56,1.79,3.39.96,5.42-2.63,6.4-5.24,12.81-7.86,19.21-12.44,30.37-24.89,60.75-37.33,91.12-.14.34-.26.68-.4,1.02-1.48,3.42-4.94,4.3-7.83,1.92-4.19-3.45-8.33-6.96-12.48-10.44-5.17-4.33-10.34-8.67-15.52-13-.28-.23-.57-.44-.91-.7-4.23,3.8-8.44,7.57-12.64,11.35-1.8,1.61-3.6,3.23-5.39,4.84-1.17,1.05-2.44,1.77-4.09,1.15-1.64-.61-2.11-1.96-2.36-3.53-2.01-12.23-4.06-24.44-6.07-36.67-.17-1.06-.61-1.74-1.58-2.32-7.13-4.23-14.21-8.55-21.34-12.79-1.64-.97-3.07-2.07-3.84-3.86v-2.46Zm89.46,65.05c14.67-35.71,29.28-71.25,43.89-106.8-.08-.05-.16-.11-.25-.16-27.84,24.49-55.68,48.97-83.58,73.51,13.34,11.17,26.57,22.26,39.94,33.45Zm31.15-106.17c-.04-.08-.07-.16-.11-.24-38.57,14.16-77.15,28.33-115.98,42.59.66.41,1.07.68,1.49.93,7.06,4.25,14.14,8.48,21.17,12.78,1.03.63,1.74.65,2.79,0,27.42-16.99,54.86-33.93,82.29-50.88,2.78-1.72,5.56-3.45,8.34-5.18Zm-7.31,10.39c-.04-.06-.09-.13-.13-.19-.34.18-.69.34-1.02.54-26.67,16.48-53.33,32.96-80.01,49.42-.72.44-.97.83-.82,1.73,1.56,9.12,3.05,18.24,4.57,27.36.21,1.25.46,2.5.69,3.75,1.87-6.01,3.4-12.01,5.07-17.96.33-1.16.98-2.43,1.87-3.21,20.47-18.09,40.99-36.11,61.5-54.15,2.76-2.43,5.51-4.86,8.27-7.29Zm-59.57,71.95c-2.54-2.12-4.98-4.16-7.55-6.31-1.51,5.75-2.95,11.2-4.38,16.64.1.04.2.09.3.13,3.85-3.46,7.71-6.92,11.64-10.46Z"/>
    <path class="cls-2" d="m165.32,211.74c-.51-.76-.66-1.74-.53-2.66.64-4.47,5.86-6.86,9.95-5.95,1.2.27,2.41.84,3.09,1.87.93,1.4.67,3.35-.3,4.73s-2.5,2.24-4.07,2.82c-1.63.6-3.38.93-5.1.74-1.03-.12-2.09-.45-2.79-1.22-.1-.11-.18-.22-.26-.33Z"/>
  </g>
  <g>
    <g>
      <path class="cls-2" d="m64.8,112.92c-.84,1.15-1.79,2.02-2.86,2.59-1.07.57-2.18.83-3.31.78-1.14-.05-2.2-.44-3.19-1.15l-9.32-6.75c-.18-.13-.27-.28-.29-.47-.02-.18.03-.36.16-.53.13-.18.29-.29.46-.32.18-.03.35.01.53.14l9.32,6.75c.78.56,1.61.86,2.49.89.89.03,1.75-.19,2.61-.66.86-.47,1.62-1.16,2.28-2.08.67-.93,1.1-1.87,1.27-2.83.17-.95.11-1.85-.19-2.69-.3-.84-.84-1.54-1.62-2.1l-9.32-6.75c-.18-.13-.27-.28-.29-.47-.02-.18.03-.36.16-.53.13-.18.29-.29.46-.32s.35.01.53.14l9.32,6.75c.99.72,1.69,1.61,2.09,2.67.4,1.06.5,2.2.29,3.4-.21,1.21-.74,2.38-1.57,3.54Z"/>
      <path class="cls-2" d="m72.74,102.16c-.14.15-.31.24-.5.25-.19.01-.36-.05-.51-.19l-8.3-7.66c-.16-.15-.24-.31-.23-.5,0-.19.07-.35.22-.51.15-.17.32-.25.5-.27.18-.01.35.06.51.2l8.3,7.66c.15.14.23.3.23.48,0,.18-.06.36-.22.53Zm7.3-7.9c-.14.15-.31.24-.5.25s-.36-.05-.51-.19l-4.58-4.23c-.75-.69-1.51-1.11-2.28-1.26-.77-.15-1.51-.08-2.24.22-.72.29-1.39.77-1.99,1.42-.59.64-1.01,1.33-1.25,2.05-.24.73-.29,1.43-.16,2.1.13.68.46,1.25.97,1.72l-.82.89c-.66-.7-1.09-1.5-1.29-2.41-.2-.91-.17-1.83.09-2.76s.74-1.77,1.44-2.54c.79-.86,1.67-1.47,2.64-1.85.97-.37,1.95-.46,2.96-.26s1.98.74,2.92,1.61l4.58,4.23c.15.14.22.3.23.49,0,.19-.07.36-.21.52Z"/>
      <path class="cls-2" d="m95.48,80.7c-.99.79-2.05,1.29-3.2,1.49-1.14.2-2.25.12-3.31-.26-1.06-.38-1.98-1.03-2.76-1.95l-7-8.75c-.14-.17-.19-.34-.16-.53.03-.18.13-.34.29-.47.18-.14.35-.2.53-.19s.34.11.47.28l4.52,5.65c-.1-.95.07-1.91.49-2.86.43-.96,1.1-1.8,2.01-2.53,1.01-.81,2.09-1.32,3.25-1.52,1.16-.2,2.27-.11,3.34.28,1.07.39,1.99,1.07,2.77,2.04.77.97,1.24,2.02,1.39,3.15.15,1.14,0,2.25-.45,3.33s-1.18,2.03-2.19,2.84Zm-.81-1.01c.8-.64,1.36-1.38,1.7-2.24.34-.86.45-1.74.33-2.64-.12-.9-.49-1.74-1.11-2.51-.62-.77-1.35-1.31-2.2-1.62-.85-.31-1.73-.39-2.64-.25s-1.76.54-2.56,1.17c-.78.63-1.35,1.37-1.7,2.23-.35.86-.46,1.74-.34,2.63.12.89.49,1.72,1.11,2.5.62.77,1.35,1.32,2.2,1.64.85.32,1.73.41,2.65.26.92-.15,1.77-.54,2.55-1.17Z"/>
      <path class="cls-2" d="m109.33,70.64c-1.07.71-2.17,1.1-3.3,1.2-1.13.09-2.21-.11-3.22-.61-1.01-.5-1.86-1.27-2.55-2.32-.7-1.06-1.09-2.14-1.18-3.24-.09-1.1.11-2.14.58-3.13.48-.98,1.22-1.81,2.23-2.48,1-.66,2.03-1.02,3.1-1.09,1.06-.06,2.07.15,3.02.64.95.49,1.76,1.25,2.43,2.27.11.17.14.34.1.5-.04.17-.15.31-.33.43l-8.91,5.9-.67-1.01,9.23-6.11-.47,1.23c-.53-.86-1.17-1.5-1.92-1.93-.75-.43-1.55-.63-2.39-.6s-1.67.31-2.48.85c-.77.51-1.33,1.15-1.69,1.91s-.49,1.58-.41,2.46c.08.87.4,1.73.97,2.59.56.84,1.23,1.46,2.02,1.86s1.63.57,2.52.51c.89-.06,1.76-.37,2.59-.92.53-.35,1-.79,1.42-1.31.42-.53.69-1.04.81-1.52.04-.17.13-.32.29-.43.15-.11.31-.15.48-.14.23.02.39.1.49.23.1.14.12.31.06.51-.18.66-.54,1.34-1.08,2.05-.53.71-1.12,1.27-1.75,1.69Z"/>
      <path class="cls-2" d="m121.59,63.25c-.73.41-1.58.71-2.53.9-.95.19-1.86.14-2.74-.17-.19-.07-.32-.19-.38-.36-.07-.17-.05-.35.05-.54.09-.17.22-.29.4-.36.18-.06.35-.06.52,0,.67.23,1.34.27,2.03.13.69-.15,1.38-.41,2.07-.8,1.19-.66,1.92-1.33,2.18-2.02.27-.68.25-1.29-.05-1.83-.29-.53-.8-.81-1.52-.86-.72-.05-1.68.16-2.86.63-1.52.6-2.77.82-3.75.66-.98-.16-1.67-.6-2.07-1.32-.38-.68-.52-1.34-.42-2.01.09-.66.38-1.28.86-1.86s1.12-1.09,1.91-1.53c.96-.54,1.87-.82,2.72-.86.85-.04,1.63.1,2.35.43.19.07.31.2.36.37.05.18.01.36-.12.56-.1.15-.24.25-.41.31s-.35.05-.54-.02c-.59-.23-1.21-.32-1.83-.27-.63.06-1.27.27-1.94.64-.89.5-1.48,1.07-1.77,1.71-.29.64-.29,1.22,0,1.73.2.35.47.6.82.75.35.15.81.18,1.38.11.57-.08,1.27-.28,2.11-.61,1.14-.46,2.1-.69,2.9-.71.8-.02,1.44.11,1.94.39.5.28.88.66,1.16,1.15.35.63.45,1.31.29,2.02-.16.71-.52,1.38-1.07,2.02-.55.64-1.23,1.18-2.04,1.63Z"/>
      <path class="cls-2" d="m135.37,56.26c-1.18.54-2.35.77-3.52.69s-2.23-.45-3.18-1.09c-.95-.64-1.68-1.52-2.19-2.63-.52-1.12-.71-2.25-.59-3.39.13-1.14.54-2.18,1.24-3.12.7-.94,1.63-1.69,2.81-2.23,1.18-.54,2.35-.77,3.51-.68,1.16.09,2.22.45,3.17,1.1s1.68,1.53,2.2,2.65c.51,1.11.7,2.23.58,3.37-.13,1.14-.53,2.18-1.22,3.12s-1.62,1.68-2.8,2.22Zm-.54-1.18c.93-.43,1.66-1.01,2.2-1.76.54-.75.85-1.58.94-2.48.09-.9-.07-1.8-.48-2.7-.41-.88-.98-1.58-1.73-2.1-.75-.52-1.58-.81-2.5-.89s-1.84.09-2.77.52c-.91.42-1.64,1.01-2.18,1.76-.54.75-.87,1.58-.97,2.49-.1.91.06,1.81.47,2.71.41.88.99,1.58,1.74,2.1.75.51,1.59.81,2.52.88.93.08,1.84-.1,2.76-.52Z"/>
      <path class="cls-2" d="m141.32,36.91c-.29.11-.57.11-.85,0-.28-.12-.47-.32-.59-.61-.13-.33-.12-.62.04-.87.15-.25.37-.43.64-.53.26-.1.53-.11.81-.03.28.08.49.29.62.62.11.29.1.57-.02.84s-.34.47-.64.59Zm5.59,14.3c-.2.08-.38.08-.56,0-.18-.07-.3-.2-.37-.39l-4.09-10.53c-.08-.2-.08-.39,0-.55.08-.16.22-.29.42-.36.21-.08.4-.09.57-.02.17.07.29.2.37.41l4.09,10.53c.07.19.07.37,0,.54s-.22.3-.43.38Z"/>
      <path class="cls-2" d="m153.72,48.63c-.2.06-.39.06-.56-.03-.17-.08-.29-.22-.35-.41l-3.45-10.76c-.07-.21-.05-.39.04-.55.09-.16.24-.27.44-.34.22-.07.4-.06.57.01.16.08.27.22.34.43l3.46,10.76c.06.19.05.37-.03.53-.08.16-.23.28-.45.35Zm10.24-3.29c-.2.06-.39.06-.56-.03-.17-.08-.29-.22-.35-.41l-1.91-5.94c-.31-.97-.77-1.71-1.36-2.22-.6-.51-1.28-.81-2.05-.91-.77-.1-1.58-.02-2.43.26-.83.27-1.53.66-2.1,1.17s-.96,1.1-1.17,1.75c-.22.65-.22,1.31,0,1.97l-1.16.37c-.23-.93-.21-1.85.06-2.74.27-.89.75-1.68,1.43-2.36s1.52-1.18,2.5-1.5c1.11-.36,2.18-.46,3.2-.31,1.03.15,1.93.56,2.7,1.23.78.67,1.36,1.61,1.75,2.84l1.91,5.94c.06.19.05.37-.04.54-.09.17-.24.28-.44.35Z"/>
      <path class="cls-2" d="m181,37.13c-.21.04-.39,0-.55-.1-.16-.11-.26-.26-.3-.46-.12-.62-.1-1.31.06-2.07.16-.76.44-1.42.82-1.98.42-.6.84-1.17,1.25-1.7.41-.53.71-1.1.93-1.7.21-.6.24-1.3.08-2.11-.14-.68-.43-1.25-.89-1.72-.45-.46-1.02-.79-1.7-.97-.68-.19-1.43-.2-2.24-.04-.79.16-1.47.47-2.02.92-.55.46-.95,1.01-1.18,1.67-.23.65-.27,1.37-.12,2.14.04.2,0,.37-.1.52-.1.15-.26.24-.49.29-.21.04-.39.02-.56-.08-.17-.09-.27-.24-.31-.43-.21-1.03-.15-1.99.17-2.88.32-.89.85-1.64,1.59-2.26.74-.61,1.66-1.03,2.74-1.24,1.08-.21,2.08-.18,3,.09.92.27,1.7.75,2.33,1.42s1.04,1.48,1.23,2.44c.17.85.15,1.59-.06,2.24-.21.64-.54,1.26-.98,1.85-.44.59-.92,1.25-1.42,1.96-.42.6-.67,1.2-.72,1.78-.06.58-.04,1.11.06,1.6.04.2,0,.38-.1.54-.11.16-.27.27-.5.31Zm.78,3.91c-.35.07-.66.01-.93-.17-.27-.18-.43-.43-.5-.75-.06-.32,0-.61.17-.87.18-.26.44-.43.79-.5.33-.07.64-.02.92.15.28.17.45.41.52.75.07.33,0,.63-.19.9-.19.27-.46.43-.79.5Z"/>
      <path class="cls-2" d="m208.18,37.79c-1.31.09-2.55-.05-3.72-.44-1.17-.39-2.21-.97-3.12-1.75-.91-.78-1.64-1.72-2.2-2.81-.56-1.09-.88-2.29-.98-3.61-.09-1.3.06-2.52.46-3.67s.99-2.18,1.78-3.08c.79-.9,1.73-1.63,2.83-2.19s2.31-.89,3.63-.98c1.24-.09,2.32-.01,3.24.23.92.24,1.86.69,2.81,1.33.14.08.24.17.32.27.08.1.13.19.17.29.03.1.05.22.06.36.02.29-.07.54-.28.75-.2.21-.46.34-.76.38-.31.04-.61-.03-.92-.22-.63-.45-1.28-.78-1.93-1-.66-.22-1.51-.29-2.56-.21-.95.07-1.84.32-2.65.75-.81.43-1.52.99-2.11,1.69-.59.69-1.03,1.48-1.33,2.36-.29.88-.41,1.81-.34,2.78.07.99.32,1.9.73,2.73.42.83.97,1.55,1.65,2.15.68.6,1.46,1.05,2.33,1.36.87.3,1.77.42,2.73.35.82-.06,1.59-.25,2.31-.57s1.4-.75,2.04-1.27c.28-.22.56-.33.84-.33.28,0,.53.09.74.27.21.18.32.44.35.78.01.15-.01.31-.06.46-.05.15-.14.29-.26.43-.82.73-1.72,1.29-2.69,1.7-.97.41-2,.65-3.1.73Z"/>
      <path class="cls-2" d="m224.15,37.31c-1.31-.03-2.46-.33-3.45-.9-.99-.57-1.77-1.34-2.32-2.32-.56-.98-.82-2.09-.79-3.35.03-1.27.34-2.38.93-3.33.59-.95,1.4-1.7,2.41-2.22,1.01-.53,2.18-.78,3.49-.75,1.29.03,2.44.33,3.43.9.99.57,1.77,1.34,2.32,2.32.55.98.82,2.1.79,3.37-.03,1.25-.33,2.36-.92,3.31-.59.96-1.39,1.7-2.4,2.22-1.02.53-2.18.78-3.49.75Zm.04-2.09c.84.02,1.59-.15,2.25-.51.65-.36,1.17-.86,1.55-1.5.38-.64.57-1.39.59-2.24.02-.85-.15-1.61-.5-2.27-.35-.67-.85-1.19-1.48-1.57-.64-.38-1.38-.59-2.22-.6s-1.59.15-2.25.51c-.65.36-1.18.86-1.56,1.51-.39.65-.59,1.4-.61,2.25-.02.85.15,1.6.51,2.26s.86,1.18,1.5,1.56c.64.38,1.38.59,2.22.6Z"/>
      <path class="cls-2" d="m236.55,37.85c-.35-.04-.63-.19-.84-.44-.21-.25-.29-.54-.25-.88l1.22-10.27c.04-.35.19-.62.45-.81.26-.19.57-.26.92-.22.37.04.65.19.85.43.2.24.28.54.24.89l-1.22,10.27c-.04.34-.19.6-.44.8-.25.2-.56.27-.93.23Zm9.91,1.18c-.35-.04-.63-.19-.84-.44-.21-.25-.29-.54-.25-.88l.67-5.67c.1-.88.02-1.61-.25-2.2s-.68-1.06-1.22-1.39c-.54-.34-1.18-.55-1.92-.64-.68-.08-1.3-.02-1.88.17-.58.2-1.05.49-1.43.89-.37.4-.59.88-.66,1.45l-1.52-.18c.12-.97.46-1.8,1.04-2.5.58-.7,1.32-1.22,2.23-1.57.91-.34,1.89-.45,2.95-.33,1.11.13,2.08.48,2.9,1.03.82.56,1.44,1.3,1.84,2.24.4.94.53,2.04.38,3.32l-.67,5.67c-.04.34-.19.6-.45.8-.26.2-.57.27-.92.23Z"/>
      <path class="cls-2" d="m254.09,29.96c-.33-.07-.58-.21-.75-.44-.17-.22-.23-.47-.17-.74.06-.3.21-.52.46-.66s.53-.17.86-.11l5.5,1.13c.33.07.58.21.75.44.17.22.22.49.16.79-.06.27-.21.48-.45.62s-.53.18-.86.11l-5.5-1.13Zm3.22,11.11c-.79-.16-1.47-.5-2.02-1.02-.55-.52-.95-1.15-1.17-1.89-.23-.74-.26-1.53-.09-2.36l2.22-10.84c.07-.33.24-.58.5-.75.27-.17.57-.21.92-.14.35.07.61.24.79.49.18.26.23.55.16.89l-2.22,10.84c-.12.61-.05,1.15.21,1.63.26.48.65.77,1.16.88l.81.17c.29.06.51.21.66.47.15.25.2.55.13.88s-.26.58-.56.74c-.31.16-.66.2-1.08.11l-.43-.09Z"/>
      <path class="cls-2" d="m268.18,43.99c-1.13-.34-2.06-.92-2.8-1.74-.73-.81-1.22-1.76-1.45-2.84-.24-1.08-.18-2.21.18-3.38.36-1.17.96-2.13,1.81-2.89s1.84-1.26,2.97-1.51c1.13-.24,2.3-.18,3.51.19,1.21.37,2.21.97,3.01,1.8.8.83,1.33,1.8,1.61,2.91.28,1.1.24,2.24-.11,3.41l-.9-.28c-.36,1.17-.94,2.14-1.74,2.9-.8.77-1.73,1.28-2.8,1.55-1.06.27-2.16.23-3.29-.12Zm1.07-1.85c.79.24,1.55.27,2.28.1.73-.17,1.37-.52,1.92-1.04.55-.52.94-1.17,1.18-1.96.24-.8.28-1.57.12-2.3-.16-.74-.5-1.38-1.01-1.93-.51-.55-1.16-.95-1.95-1.19-.78-.24-1.53-.27-2.27-.1-.74.17-1.38.52-1.94,1.03-.56.52-.96,1.18-1.2,1.97-.24.78-.27,1.55-.1,2.29.17.74.52,1.39,1.03,1.94.52.55,1.16.95,1.94,1.18Zm4.61,3.52c-.34-.1-.59-.3-.75-.58-.16-.28-.19-.59-.09-.91l1.04-3.39,1.16-2.22,1.68,1.39-1.51,4.95c-.1.33-.29.56-.58.71-.29.15-.61.17-.95.06Z"/>
      <path class="cls-2" d="m284.59,50.17c-1.18-.53-2.11-1.27-2.8-2.2s-1.1-1.96-1.22-3.07c-.13-1.12.06-2.23.57-3.35.52-1.14,1.23-2.04,2.15-2.69.92-.65,1.94-1.03,3.07-1.12,1.13-.09,2.27.12,3.44.65.87.39,1.6.91,2.17,1.56.58.64,1.01,1.41,1.3,2.31.1.32.07.58-.09.8-.17.21-.43.35-.77.41-.27.05-.52-.01-.75-.17-.23-.16-.4-.39-.52-.68-.39-1.06-1.13-1.83-2.2-2.32-.75-.34-1.49-.48-2.22-.4-.73.07-1.38.33-1.98.77s-1.07,1.07-1.43,1.87c-.34.76-.49,1.51-.42,2.25.06.74.31,1.42.75,2.03.43.61,1.04,1.09,1.82,1.45.52.23,1,.38,1.44.44.44.06.89.03,1.33-.07.32-.08.61-.07.87.02.26.09.45.26.57.5.16.31.2.6.12.86-.08.26-.27.44-.57.55-1.49.46-3.03.33-4.62-.39Z"/>
      <path class="cls-2" d="m296.99,56.82c-.69-.42-1.21-.97-1.56-1.64-.35-.67-.5-1.4-.46-2.17.04-.77.28-1.53.72-2.25l5.77-9.44c.18-.29.42-.47.72-.54.31-.07.61,0,.92.18.3.19.5.43.58.73.08.3.03.6-.15.89l-5.77,9.44c-.32.53-.44,1.06-.35,1.6.09.54.35.95.79,1.22l.7.43c.25.15.4.37.46.66.06.29,0,.58-.18.87-.18.29-.44.46-.78.5-.34.05-.69-.04-1.05-.26l-.37-.23Zm.73-11.54c-.29-.18-.48-.4-.56-.67-.08-.27-.05-.52.09-.76.16-.26.38-.42.66-.47s.56.02.85.19l4.79,2.92c.29.18.48.4.56.67.08.27.04.53-.12.8-.14.24-.36.38-.63.43-.28.05-.56-.02-.85-.19l-4.79-2.92Z"/>
      <path class="cls-2" d="m306.37,63.89c-1.03-.86-1.78-1.83-2.23-2.92-.45-1.09-.59-2.2-.43-3.32.16-1.12.65-2.16,1.45-3.13.81-.97,1.74-1.65,2.79-2.04,1.05-.39,2.13-.47,3.24-.26,1.11.21,2.16.72,3.14,1.54.97.81,1.63,1.71,1.99,2.7.36.99.42,2,.18,3.02-.23,1.03-.74,2.01-1.52,2.95-.19.23-.43.35-.71.36-.29.01-.55-.08-.8-.29l-7.52-6.26,1.19-1.43,7.46,6.22-1.18-.14c.48-.6.8-1.24.96-1.91.15-.67.13-1.32-.08-1.95-.21-.64-.62-1.21-1.24-1.73-.71-.59-1.44-.95-2.19-1.07-.75-.12-1.47-.03-2.16.26-.69.3-1.31.78-1.86,1.43-.54.65-.87,1.37-.99,2.14-.11.77-.02,1.53.28,2.28.3.75.8,1.43,1.51,2.02.39.32.84.58,1.36.78.52.2.97.31,1.37.34.3.02.56.13.78.3.22.18.36.4.41.66.06.35.01.64-.15.87-.17.22-.42.33-.76.3-.69-.03-1.43-.21-2.23-.53-.8-.32-1.48-.72-2.05-1.2Z"/>
      <path class="cls-2" d="m313.55,70.56c-.48-.59-.45-1.11.12-1.57.56-.46,1.08-.4,1.57.19l5.27,6.39c.48.59.45,1.11-.11,1.57-.56.46-1.09.4-1.57-.19l-5.27-6.39Zm.8.28l.02-2.16,13.29-.25-.04,2.14-13.27.27Zm7.15-7.15c-.48-.59-.45-1.11.12-1.57.56-.46,1.08-.4,1.57.19l5.27,6.39c.48.59.45,1.11-.12,1.57s-1.08.4-1.57-.19l-5.27-6.39Z"/>
      <path class="cls-2" d="m325.89,78.35c-.18-.31-.23-.62-.16-.93.07-.31.25-.55.55-.72.31-.18.62-.22.92-.12.31.1.55.3.72.61l2.71,4.69c.18.31.23.62.16.92-.07.3-.27.55-.57.72-.29.17-.59.21-.89.12-.3-.09-.54-.29-.72-.59l-2.71-4.69Z"/>
      <path class="cls-2" d="m326.7,90.88c-.12-.34-.11-.65.02-.95.13-.3.36-.5.68-.62l9.75-3.47c.33-.12.64-.1.93.04s.48.39.6.73c.12.35.12.67,0,.96-.13.29-.36.49-.69.61l-9.75,3.47c-.32.11-.62.1-.91-.04-.29-.14-.49-.38-.62-.73Zm3.35,9.4c-.12-.34-.11-.65.02-.95.13-.3.36-.5.68-.62l5.38-1.91c.83-.3,1.45-.7,1.86-1.2.41-.51.65-1.08.71-1.71.06-.63-.03-1.3-.28-2-.23-.64-.56-1.18-.99-1.61-.43-.43-.91-.72-1.43-.88-.52-.16-1.06-.14-1.59.05l-.51-1.44c.92-.33,1.82-.39,2.71-.18.89.21,1.68.64,2.39,1.3.71.66,1.24,1.49,1.6,2.5.37,1.05.49,2.07.36,3.06-.13.98-.53,1.86-1.19,2.64-.66.78-1.59,1.38-2.8,1.81l-5.38,1.91c-.32.11-.63.1-.92-.05-.29-.15-.5-.39-.61-.72Z"/>
      <path class="cls-2" d="m332.21,111.81c-.18-1.3-.06-2.48.34-3.55.41-1.07,1.05-1.96,1.93-2.66.88-.7,1.94-1.14,3.18-1.31,1.26-.17,2.4-.04,3.44.4,1.04.44,1.89,1.12,2.57,2.04s1.11,2.03,1.29,3.33c.18,1.28.06,2.46-.35,3.53-.41,1.07-1.05,1.95-1.93,2.66s-1.95,1.14-3.2,1.31c-1.24.17-2.38.04-3.41-.39-1.03-.43-1.89-1.1-2.57-2.02-.68-.92-1.11-2.03-1.29-3.33Zm2.07-.28c.11.83.4,1.55.86,2.14.46.59,1.03,1.02,1.72,1.3.69.27,1.46.35,2.3.24.84-.12,1.56-.4,2.17-.85.6-.45,1.04-1.02,1.32-1.71.28-.69.36-1.46.25-2.29s-.4-1.55-.86-2.14-1.03-1.03-1.74-1.31c-.7-.28-1.47-.36-2.32-.25-.84.12-1.56.4-2.15.86-.59.46-1.03,1.03-1.31,1.72-.28.69-.36,1.46-.25,2.29Z"/>
      <path class="cls-2" d="m332.82,133.52c.02-.36.14-.65.38-.87s.52-.33.86-.31l10.33.48c.35.02.64.15.84.39.21.24.3.54.28.9-.02.37-.14.67-.37.88s-.52.32-.87.3l-10.34-.48c-.34-.02-.62-.14-.83-.38s-.31-.54-.29-.91Zm.13-5.37c.05-1.12.33-2.11.82-2.97.5-.86,1.2-1.52,2.1-1.99.9-.47,2-.67,3.28-.62l5.7.26c.34.02.62.15.83.39.21.24.31.54.3.9-.02.35-.14.64-.38.87-.23.22-.52.33-.86.31l-5.7-.26c-.87-.04-1.59.1-2.17.41-.58.31-1.02.76-1.31,1.33-.3.57-.46,1.22-.5,1.95-.03.7.07,1.32.31,1.87.24.55.57,1,1.01,1.35.43.34.93.53,1.48.55l-.07,1.53c-.96-.04-1.81-.33-2.56-.86s-1.33-1.23-1.74-2.1c-.41-.87-.59-1.85-.54-2.93Z"/>
      <path class="cls-2" d="m330.97,144.39c.22-1.11.59-2.11,1.11-2.99.52-.88,1.08-1.53,1.68-1.95.29-.19.59-.23.89-.13.3.1.52.31.67.62.18.37.22.7.12,1-.1.3-.29.54-.56.72-.34.21-.7.59-1.07,1.14-.37.54-.63,1.18-.77,1.91-.18.92-.18,1.65,0,2.19.19.54.51.87.96.97.45.11.89-.04,1.32-.44.43-.4.87-1.2,1.33-2.4.63-1.54,1.31-2.61,2.06-3.21.75-.6,1.57-.81,2.45-.64.77.16,1.37.52,1.78,1.1.41.58.67,1.26.77,2.06s.07,1.6-.09,2.41c-.21,1.05-.56,1.94-1.04,2.69-.48.75-1.05,1.3-1.71,1.66-.29.17-.56.23-.82.16s-.46-.25-.59-.54c-.12-.29-.11-.6.02-.94.13-.34.33-.6.59-.8.44-.32.78-.7,1.01-1.14s.4-.95.53-1.55c.14-.7.14-1.31.01-1.84s-.42-.84-.85-.93c-.27-.05-.53-.03-.78.08-.25.11-.51.36-.77.77-.26.41-.56,1.03-.9,1.85-.47,1.14-.94,2.03-1.43,2.65s-.99,1.03-1.52,1.24c-.52.21-1.09.25-1.7.13-.7-.14-1.29-.46-1.77-.96-.48-.5-.82-1.16-1-1.98-.18-.82-.16-1.79.07-2.92Z"/>
      <path class="cls-2" d="m326.18,161.12c.13-.33.34-.57.64-.7.29-.14.6-.14.92-.02.32.12.53.34.65.64.11.3.11.62-.01.93-.12.32-.33.54-.63.68-.29.14-.59.15-.9.03s-.52-.33-.65-.63-.14-.61-.01-.93Zm3.72,1.45c.07-.18.19-.32.37-.41.18-.1.36-.11.55-.03l11.87,4.63c.2.08.34.21.41.39.07.18.07.37-.01.57s-.2.33-.37.41c-.17.08-.36.08-.56,0l-11.87-4.62c-.19-.07-.31-.21-.38-.4-.07-.19-.07-.37,0-.54Z"/>
    </g>
    <g>
      <path class="cls-2" d="m305.88,193.98c.92-1.09,1.94-1.87,3.05-2.36,1.12-.49,2.24-.66,3.36-.52,1.13.14,2.16.61,3.09,1.4l8.77,7.45c.16.14.25.3.26.49s-.06.36-.2.52c-.15.17-.31.27-.49.29-.18.02-.35-.04-.51-.18l-8.77-7.45c-.73-.62-1.54-.98-2.42-1.08-.88-.1-1.76.05-2.65.46-.89.4-1.7,1.03-2.43,1.9-.74.88-1.24,1.78-1.49,2.72-.25.94-.25,1.83-.02,2.69.23.86.72,1.6,1.45,2.22l8.77,7.45c.17.14.25.3.26.49,0,.18-.06.36-.2.52-.15.17-.31.27-.49.29-.18.02-.35-.04-.52-.18l-8.77-7.45c-.93-.79-1.56-1.73-1.88-2.82-.32-1.09-.33-2.23-.02-3.41.31-1.19.92-2.32,1.84-3.41Z"/>
      <path class="cls-2" d="m289.19,211.26c.16-.14.33-.21.52-.21.19,0,.35.08.49.23l4.21,4.61c.69.75,1.41,1.24,2.16,1.45.75.21,1.5.2,2.25-.03s1.45-.64,2.1-1.24c.65-.59,1.12-1.24,1.42-1.94.3-.7.41-1.4.34-2.08-.08-.68-.35-1.28-.82-1.8l.9-.82c.6.75.96,1.59,1.08,2.52.12.93.01,1.84-.32,2.74-.34.9-.89,1.7-1.65,2.4-.86.79-1.79,1.32-2.78,1.61-.99.29-1.99.29-2.97,0s-1.91-.9-2.77-1.85l-4.21-4.61c-.13-.15-.2-.32-.18-.51.01-.19.1-.36.25-.5Zm7.95-7.25c.16-.14.33-.21.52-.21s.35.08.49.23l7.62,8.35c.15.16.21.33.19.52-.02.18-.1.35-.26.49-.17.15-.34.23-.52.22-.18,0-.34-.09-.49-.25l-7.62-8.34c-.14-.15-.2-.32-.19-.5,0-.19.09-.35.26-.51Z"/>
      <path class="cls-2" d="m272.65,223.5c1.04-.71,2.15-1.12,3.3-1.23,1.16-.11,2.25.06,3.28.53,1.03.46,1.89,1.18,2.6,2.16l6.29,9.27c.12.18.16.36.12.54-.04.18-.15.33-.33.45-.19.13-.37.18-.55.15-.18-.03-.33-.13-.45-.31l-4.06-5.99c.02.96-.22,1.89-.72,2.81-.5.92-1.23,1.71-2.2,2.36-1.07.73-2.19,1.14-3.36,1.25-1.17.11-2.27-.07-3.31-.55-1.04-.47-1.9-1.22-2.6-2.25-.69-1.02-1.07-2.11-1.13-3.25-.06-1.14.17-2.24.71-3.28.53-1.04,1.34-1.93,2.41-2.66Zm.73,1.08c-.84.57-1.47,1.27-1.88,2.1-.41.83-.59,1.7-.54,2.61.05.91.35,1.77.91,2.59.55.82,1.24,1.42,2.07,1.79.82.38,1.69.53,2.61.46s1.8-.39,2.65-.97c.83-.56,1.45-1.26,1.87-2.09.41-.83.6-1.7.54-2.6-.05-.9-.36-1.76-.91-2.58-.56-.82-1.24-1.42-2.06-1.81-.82-.39-1.69-.54-2.62-.47-.93.08-1.8.4-2.64.96Z"/>
      <path class="cls-2" d="m258.02,232.58c1.11-.63,2.24-.96,3.37-.98s2.19.26,3.17.82c.98.56,1.77,1.39,2.4,2.48.63,1.1.95,2.2.97,3.31.02,1.1-.25,2.13-.78,3.08-.54.95-1.33,1.73-2.39,2.33-1.04.59-2.09.89-3.16.88-1.07,0-2.06-.29-2.97-.84-.91-.56-1.67-1.36-2.28-2.42-.1-.17-.12-.34-.07-.51.06-.16.17-.3.36-.4l9.28-5.3.6,1.05-9.61,5.5.55-1.19c.47.89,1.07,1.57,1.79,2.05.72.48,1.5.73,2.35.76.84.02,1.69-.2,2.53-.69.8-.46,1.41-1.06,1.81-1.8.41-.74.6-1.55.57-2.42-.03-.88-.29-1.76-.8-2.64-.5-.87-1.13-1.54-1.89-1.99s-1.59-.68-2.49-.68-1.77.25-2.65.75c-.55.31-1.05.72-1.5,1.22-.45.5-.76.99-.91,1.47-.05.17-.16.31-.31.41-.16.1-.32.13-.49.1-.22-.03-.38-.12-.47-.26-.09-.14-.1-.32-.03-.52.23-.65.63-1.3,1.21-1.97.58-.67,1.2-1.19,1.86-1.57Z"/>
      <path class="cls-2" d="m245.32,239.3c.75-.37,1.61-.64,2.57-.79.96-.15,1.87-.05,2.73.3.18.08.31.21.36.38.06.17.03.35-.07.54-.1.17-.24.28-.42.34s-.35.05-.51-.03c-.65-.26-1.33-.34-2.02-.22-.69.11-1.4.35-2.11.7-1.22.61-1.98,1.24-2.28,1.91-.3.67-.31,1.28-.04,1.83.27.54.76.85,1.48.93.72.08,1.68-.08,2.89-.49,1.55-.53,2.8-.69,3.78-.48.97.21,1.64.68,2,1.41.35.69.46,1.37.33,2.03-.12.66-.44,1.27-.95,1.82-.51.55-1.17,1.04-1.98,1.44-.99.49-1.9.74-2.75.74-.85,0-1.63-.18-2.33-.54-.18-.08-.3-.21-.34-.39-.04-.18,0-.36.15-.55.11-.14.25-.24.43-.29.17-.05.35-.04.54.04.58.26,1.19.38,1.82.35.63-.03,1.28-.21,1.96-.55.91-.46,1.53-1,1.85-1.62.32-.63.35-1.2.09-1.73-.18-.36-.44-.62-.78-.79-.35-.16-.8-.22-1.37-.17-.57.05-1.28.22-2.14.51-1.16.4-2.13.59-2.93.58-.8-.02-1.44-.18-1.92-.48-.49-.3-.85-.7-1.1-1.2-.32-.65-.39-1.33-.2-2.03.19-.7.58-1.36,1.16-1.97.58-.61,1.29-1.12,2.11-1.53Z"/>
      <path class="cls-2" d="m231.2,245.87c1.19-.52,2.37-.72,3.53-.61s2.22.49,3.15,1.16c.93.66,1.64,1.56,2.13,2.68.49,1.13.67,2.27.52,3.41-.15,1.14-.58,2.17-1.3,3.1-.72.93-1.67,1.65-2.86,2.17-1.19.52-2.36.72-3.52.61-1.16-.11-2.21-.5-3.14-1.16-.93-.66-1.65-1.56-2.14-2.7-.49-1.12-.66-2.25-.51-3.38.15-1.14.58-2.17,1.29-3.09.71-.92,1.66-1.65,2.85-2.16Zm.52,1.19c-.93.41-1.68.98-2.23,1.72-.55.74-.89,1.56-1,2.46-.11.9.03,1.8.43,2.71.39.89.95,1.61,1.68,2.14.73.53,1.56.85,2.48.95s1.84-.06,2.78-.46c.92-.4,1.66-.97,2.22-1.71.56-.74.9-1.56,1.02-2.47.12-.9-.02-1.81-.41-2.72-.39-.89-.95-1.61-1.7-2.13-.74-.53-1.58-.84-2.5-.94s-1.85.06-2.77.46Z"/>
      <path class="cls-2" d="m219.54,250.83c.2-.08.38-.08.56,0s.3.2.37.39l4.11,10.52c.08.2.08.38,0,.55-.08.16-.22.29-.42.36-.21.08-.4.09-.57.02-.16-.07-.29-.2-.37-.41l-4.11-10.52c-.07-.19-.07-.37,0-.54.07-.17.22-.3.43-.38Zm5.6,14.3c.29-.11.57-.11.85,0,.28.12.48.32.59.61.13.33.12.62-.04.87-.15.25-.37.43-.64.54-.26.1-.53.11-.81.03-.28-.08-.49-.29-.62-.62-.11-.29-.11-.57.02-.84.13-.27.34-.47.64-.59Z"/>
      <path class="cls-2" d="m202.5,256.96c.2-.07.39-.06.56.02.17.08.29.21.36.4l2.03,5.9c.33.97.8,1.7,1.41,2.19s1.3.79,2.07.87,1.58-.02,2.43-.31c.83-.28,1.52-.69,2.07-1.21.56-.53.93-1.12,1.14-1.78.2-.66.19-1.32-.04-1.97l1.15-.39c.25.93.25,1.84,0,2.74-.26.9-.72,1.69-1.39,2.39-.67.69-1.49,1.21-2.47,1.55-1.1.38-2.17.5-3.2.37-1.03-.13-1.94-.52-2.73-1.17-.79-.65-1.39-1.59-1.81-2.8l-2.03-5.9c-.07-.19-.05-.37.03-.54.09-.17.23-.29.43-.36Zm10.18-3.49c.2-.07.38-.06.56.02.17.08.29.21.36.4l3.67,10.69c.07.2.06.39-.03.55s-.23.28-.43.35c-.21.07-.4.07-.57,0-.16-.07-.28-.22-.35-.42l-3.67-10.68c-.07-.19-.06-.37.02-.54.08-.17.23-.29.44-.36Z"/>
      <path class="cls-2" d="m185.71,265.86c.2-.05.39-.03.56.08.17.1.27.25.32.45.15.61.17,1.3.04,2.07-.13.76-.37,1.44-.72,2.02-.39.62-.78,1.21-1.16,1.76-.38.55-.66,1.13-.84,1.74-.18.61-.17,1.31.03,2.11.17.68.49,1.23.97,1.67.48.44,1.06.74,1.75.89.69.16,1.43.13,2.24-.07.79-.2,1.44-.53,1.97-1.02.53-.48.9-1.06,1.1-1.72.2-.66.21-1.38.02-2.15-.05-.19-.02-.37.07-.52.1-.15.25-.25.47-.31.2-.05.39-.03.56.05.17.08.28.22.33.42.25,1.02.24,1.98-.03,2.89-.28.91-.77,1.68-1.49,2.33-.71.65-1.61,1.11-2.67,1.37-1.07.27-2.07.28-3,.05-.93-.23-1.73-.66-2.39-1.31-.66-.64-1.11-1.43-1.34-2.38-.21-.84-.22-1.59-.04-2.24.18-.65.48-1.28.89-1.9.42-.61.86-1.29,1.32-2.03.39-.62.61-1.23.64-1.81.03-.58-.01-1.11-.13-1.59-.05-.2-.02-.38.08-.55.1-.17.26-.28.48-.33Zm-.96-3.87c.35-.08.66-.04.93.13.28.17.45.41.53.73.08.31.03.61-.13.88s-.42.45-.77.54c-.33.08-.64.05-.93-.1-.29-.15-.47-.39-.56-.72-.08-.33-.03-.63.15-.91.18-.28.44-.46.77-.54Z"/>
      <path class="cls-2" d="m158.47,266.8c1.3-.18,2.55-.12,3.74.19,1.2.31,2.27.82,3.23,1.54s1.75,1.6,2.38,2.65c.63,1.05,1.04,2.23,1.22,3.53.18,1.29.11,2.52-.21,3.69-.32,1.18-.84,2.24-1.56,3.19-.73.95-1.62,1.75-2.67,2.38-1.06.63-2.24,1.04-3.56,1.22-1.23.17-2.32.17-3.25-.01-.93-.18-1.9-.56-2.89-1.14-.14-.07-.25-.16-.34-.25-.09-.09-.15-.18-.19-.28s-.07-.21-.09-.35c-.04-.29.03-.55.22-.77.19-.22.44-.37.74-.43.3-.07.61-.01.93.16.66.41,1.33.7,2,.87.67.17,1.53.18,2.57.04.95-.13,1.81-.44,2.59-.93.78-.48,1.45-1.09,1.99-1.82.54-.73.93-1.55,1.17-2.45.23-.9.28-1.83.15-2.8-.14-.98-.44-1.87-.91-2.67-.47-.8-1.07-1.48-1.79-2.03-.72-.55-1.53-.95-2.41-1.2-.88-.24-1.8-.3-2.75-.16-.82.11-1.57.35-2.26.73-.69.37-1.34.84-1.95,1.41-.26.24-.53.37-.82.38-.28.02-.54-.06-.75-.22-.22-.16-.35-.42-.4-.75-.02-.15,0-.31.03-.46.04-.15.12-.3.23-.44.77-.78,1.63-1.41,2.57-1.88.94-.48,1.95-.79,3.04-.94Z"/>
      <path class="cls-2" d="m142.53,268.46c1.31-.08,2.48.13,3.51.62,1.03.49,1.87,1.2,2.49,2.13.63.93.98,2.02,1.05,3.27.07,1.27-.15,2.4-.67,3.4-.52,1-1.26,1.8-2.23,2.41-.97.61-2.11.95-3.42,1.02-1.29.07-2.46-.13-3.49-.62-1.03-.49-1.86-1.2-2.49-2.13-.63-.93-.98-2.03-1.05-3.3-.07-1.25.15-2.37.66-3.37.51-1,1.25-1.8,2.22-2.4.97-.61,2.11-.95,3.42-1.02Zm.12,2.08c-.84.05-1.57.28-2.2.68-.63.41-1.1.95-1.43,1.62-.33.67-.47,1.43-.42,2.28.05.85.27,1.59.67,2.23.4.63.94,1.12,1.6,1.45.67.33,1.42.48,2.26.43.84-.05,1.57-.28,2.2-.68.63-.41,1.11-.95,1.44-1.63.33-.68.48-1.44.43-2.29s-.28-1.59-.69-2.21c-.41-.63-.95-1.11-1.62-1.44-.67-.33-1.42-.48-2.26-.43Z"/>
      <path class="cls-2" d="m120.11,268.61c.36.01.65.13.88.36.23.23.34.52.33.86l-.17,5.7c-.03.88.12,1.61.44,2.17s.77.99,1.33,1.28c.57.29,1.22.44,1.97.47.68.02,1.3-.09,1.86-.34.56-.25,1.01-.58,1.34-1.02.34-.43.51-.93.53-1.5l1.53.05c-.03.97-.3,1.84-.82,2.59-.52.75-1.21,1.34-2.08,1.76-.87.42-1.84.62-2.91.58-1.12-.03-2.11-.29-2.98-.78-.87-.48-1.54-1.17-2.03-2.07s-.7-1.99-.66-3.27l.17-5.7c.01-.34.14-.62.38-.84.24-.22.54-.32.9-.31Zm9.98.3c.36.01.65.13.88.36.23.23.34.52.33.86l-.32,10.34c-.01.36-.14.64-.38.85-.24.21-.54.31-.9.3-.37-.01-.67-.13-.89-.35-.22-.22-.32-.51-.31-.87l.32-10.34c.01-.34.13-.62.37-.84s.54-.32.91-.31Z"/>
      <path class="cls-2" d="m113.3,278.32c.34.04.6.16.79.37.19.21.26.45.23.73-.04.31-.17.54-.4.7-.23.16-.52.22-.85.18l-5.57-.67c-.34-.04-.6-.17-.79-.37-.19-.21-.26-.47-.23-.78.03-.28.17-.49.4-.65.23-.16.52-.22.85-.18l5.57.67Zm-4.14-10.8c.8.1,1.5.38,2.1.85.6.47,1.04,1.06,1.33,1.78.29.72.38,1.5.28,2.35l-1.31,10.99c-.04.34-.19.6-.44.79-.25.19-.55.26-.91.22-.35-.04-.63-.18-.83-.43-.2-.24-.28-.53-.24-.87l1.31-10.99c.07-.61-.04-1.15-.35-1.61-.3-.46-.71-.71-1.23-.78l-.82-.1c-.29-.04-.52-.17-.7-.41-.17-.24-.24-.53-.2-.87.04-.34.21-.6.5-.78.29-.18.65-.25,1.06-.2l.43.05Z"/>
      <path class="cls-2" d="m98.15,265.43c1.15.27,2.12.78,2.91,1.55.79.76,1.33,1.68,1.64,2.74.31,1.06.32,2.19.05,3.38-.28,1.19-.81,2.19-1.61,3.01-.8.82-1.75,1.38-2.86,1.7s-2.29.34-3.52.05c-1.23-.29-2.27-.82-3.12-1.6-.85-.78-1.45-1.71-1.81-2.79-.35-1.08-.39-2.22-.12-3.41l.92.21c.28-1.19.79-2.19,1.54-3.01.75-.82,1.64-1.4,2.68-1.73,1.04-.34,2.14-.37,3.29-.1Zm-5.79-1.28c.35.08.61.26.79.53.18.27.23.57.15.9l-.8,3.46-1.01,2.29-1.77-1.27,1.17-5.04c.08-.33.26-.58.53-.75.28-.17.59-.21.94-.13Zm4.84,3.2c-.8-.19-1.56-.17-2.28.05-.72.22-1.33.61-1.84,1.17-.51.56-.86,1.23-1.05,2.03-.19.81-.18,1.58.04,2.31.21.72.59,1.34,1.14,1.86.55.52,1.22.87,2.02,1.05.79.18,1.55.16,2.27-.06.73-.22,1.35-.61,1.87-1.16.52-.55.87-1.24,1.06-2.05.19-.8.17-1.56-.05-2.29-.22-.73-.61-1.35-1.16-1.87-.55-.52-1.22-.87-2.01-1.05Z"/>
      <path class="cls-2" d="m81.61,260.16c1.2.49,2.16,1.19,2.88,2.1.72.91,1.16,1.92,1.33,3.03.16,1.11.01,2.23-.45,3.36-.48,1.16-1.16,2.08-2.06,2.76-.9.69-1.9,1.09-3.03,1.23-1.12.13-2.27-.05-3.46-.53-.88-.36-1.63-.86-2.23-1.48-.6-.62-1.06-1.38-1.38-2.26-.11-.32-.09-.58.07-.8.16-.22.41-.36.76-.44.27-.06.52,0,.75.15.23.15.42.38.54.66.43,1.04,1.19,1.79,2.28,2.24.76.31,1.51.42,2.23.33s1.37-.38,1.95-.84c.58-.47,1.03-1.11,1.37-1.92.32-.77.43-1.53.34-2.27-.09-.74-.36-1.41-.82-2-.45-.6-1.08-1.06-1.87-1.39-.52-.22-1.01-.34-1.46-.39-.45-.04-.89,0-1.32.12-.32.09-.61.09-.87,0-.26-.08-.46-.24-.59-.48-.17-.31-.22-.59-.15-.85.07-.26.26-.45.55-.57,1.47-.51,3.02-.44,4.63.23Z"/>
      <path class="cls-2" d="m68.48,265.26c.29.18.47.4.56.67.08.27.05.52-.1.76-.16.26-.38.42-.66.47-.28.05-.56-.02-.85-.2l-4.77-2.95c-.29-.18-.47-.4-.56-.67-.08-.27-.04-.53.12-.8.15-.24.36-.38.63-.43.28-.05.56.02.85.2l4.77,2.95Zm.78-11.54c.69.43,1.21.97,1.55,1.65.34.68.5,1.4.46,2.18-.04.77-.28,1.52-.73,2.25l-5.81,9.42c-.18.29-.42.47-.73.53-.31.06-.61,0-.91-.18-.3-.19-.49-.43-.57-.74-.08-.3-.03-.6.15-.89l5.81-9.42c.32-.53.45-1.06.36-1.6-.08-.54-.35-.95-.79-1.22l-.7-.43c-.25-.15-.4-.37-.46-.66-.06-.29,0-.58.18-.87.18-.29.44-.46.78-.5.34-.04.69.04,1.05.27l.37.23Z"/>
      <path class="cls-2" d="m60.3,246.49c.99.91,1.68,1.92,2.07,3.03.4,1.11.48,2.22.26,3.34-.22,1.11-.76,2.13-1.61,3.05-.86.93-1.82,1.56-2.89,1.9s-2.15.36-3.25.1c-1.1-.27-2.12-.83-3.06-1.7-.93-.86-1.54-1.79-1.85-2.8-.3-1.01-.32-2.02-.03-3.03.28-1.01.84-1.97,1.67-2.86.2-.22.44-.32.73-.32s.55.11.79.33l7.19,6.64-1.26,1.36-7.14-6.59,1.17.2c-.51.58-.86,1.2-1.05,1.85-.19.66-.19,1.31-.02,1.95.18.65.56,1.24,1.16,1.79.68.63,1.39,1.02,2.13,1.18.74.16,1.47.11,2.18-.15.71-.26,1.35-.71,1.92-1.33.58-.63.94-1.32,1.1-2.08.15-.76.1-1.53-.16-2.3-.26-.77-.73-1.46-1.41-2.09-.37-.34-.81-.62-1.31-.85-.51-.23-.96-.36-1.35-.41-.29-.04-.55-.15-.76-.34-.21-.19-.34-.41-.38-.68-.05-.36.02-.64.2-.86.18-.22.43-.3.77-.26.69.07,1.42.28,2.2.64.78.36,1.44.79,1.99,1.3Z"/>
      <path class="cls-2" d="m45.14,245.6c.43.63.34,1.15-.26,1.56-.6.41-1.11.3-1.54-.33l-4.68-6.83c-.43-.63-.34-1.15.25-1.56.6-.41,1.11-.3,1.54.33l4.68,6.83Zm7.76-6.49l-.22,2.15-13.26-.93.23-2.13,13.25.91Zm.78.35c.43.63.34,1.15-.25,1.56-.6.41-1.11.3-1.54-.33l-4.68-6.83c-.43-.63-.34-1.15.25-1.56.6-.41,1.11-.3,1.54.33l4.68,6.83Z"/>
      <path class="cls-2" d="m42.11,230.6c.15.32.17.64.08.94-.1.3-.3.53-.61.67-.32.15-.63.16-.93.04-.29-.12-.52-.35-.67-.67l-2.27-4.92c-.15-.32-.17-.63-.07-.93.1-.3.31-.52.64-.67.31-.14.61-.16.9-.04.29.11.51.34.66.66l2.27,4.92Z"/>
      <path class="cls-2" d="m39.84,208.36c.09.34.06.66-.1.94-.16.28-.4.47-.73.56l-5.51,1.47c-.85.23-1.5.58-1.95,1.05-.45.47-.73,1.02-.84,1.65-.11.62-.07,1.3.12,2.02.18.66.46,1.22.86,1.68.4.46.85.8,1.36.99.51.2,1.04.23,1.59.08l.39,1.48c-.94.25-1.85.24-2.71-.04-.87-.28-1.63-.78-2.28-1.49-.65-.71-1.12-1.59-1.4-2.62-.29-1.08-.33-2.1-.11-3.07.21-.97.68-1.81,1.4-2.54.72-.72,1.7-1.25,2.94-1.58l5.51-1.47c.33-.09.63-.05.91.12.28.17.46.42.55.77Zm2.57,9.64c.09.34.06.66-.1.94-.16.29-.4.47-.73.56l-10,2.67c-.34.09-.65.05-.92-.12-.27-.17-.45-.43-.54-.77-.1-.36-.07-.68.08-.95.15-.27.4-.46.74-.55l10-2.67c.33-.09.63-.05.91.11.28.16.46.42.56.78Z"/>
      <path class="cls-2" d="m38.47,196.66c.09,1.31-.1,2.48-.57,3.52-.48,1.04-1.18,1.88-2.1,2.52-.92.64-2.01,1.01-3.26,1.1-1.26.09-2.4-.12-3.4-.62-1.01-.5-1.82-1.24-2.44-2.2-.62-.96-.97-2.1-1.07-3.41-.09-1.29.1-2.46.58-3.5.48-1.04,1.18-1.88,2.1-2.52.92-.64,2.02-1.01,3.28-1.1,1.25-.09,2.38.12,3.38.61,1,.5,1.82,1.23,2.43,2.19s.97,2.1,1.07,3.41Zm-2.08.15c-.06-.84-.3-1.57-.71-2.19-.42-.62-.96-1.09-1.63-1.4-.67-.32-1.43-.45-2.28-.39-.85.06-1.59.3-2.22.71-.63.41-1.11.95-1.43,1.62-.32.67-.46,1.43-.4,2.27.06.84.3,1.57.71,2.19.42.62.97,1.09,1.65,1.42.68.32,1.45.46,2.3.4.85-.06,1.58-.3,2.2-.72.62-.42,1.09-.96,1.42-1.64s.46-1.43.4-2.27Z"/>
      <path class="cls-2" d="m38.75,180.25c-.11,1.11-.44,2.08-.98,2.92-.54.83-1.28,1.46-2.2,1.88s-2.03.57-3.31.44l-5.68-.57c-.34-.03-.61-.18-.81-.43-.2-.26-.28-.56-.25-.92.04-.35.18-.64.42-.85.25-.21.54-.3.88-.27l5.68.57c.86.09,1.59-.01,2.19-.29.6-.28,1.06-.7,1.38-1.25.33-.55.53-1.19.6-1.92.07-.69,0-1.32-.21-1.89-.21-.57-.52-1.03-.93-1.4-.41-.37-.9-.58-1.45-.63l.15-1.52c.95.1,1.79.43,2.51,1s1.26,1.3,1.62,2.19c.36.89.49,1.87.38,2.96Zm.42-5.35c-.04.35-.18.64-.42.85-.25.21-.54.3-.88.27l-10.3-1.03c-.35-.04-.63-.18-.82-.44-.19-.25-.27-.56-.23-.91.04-.37.17-.66.41-.86.24-.2.53-.29.89-.25l10.29,1.03c.34.03.61.17.81.42.2.25.28.56.25.93Z"/>
      <path class="cls-2" d="m41.3,163.93c-.24,1.11-.63,2.1-1.16,2.97-.53.87-1.1,1.51-1.71,1.92-.29.19-.59.22-.89.12-.3-.11-.52-.32-.66-.63-.17-.37-.21-.7-.1-1,.11-.3.29-.54.57-.71.35-.21.71-.58,1.09-1.12.38-.54.65-1.17.81-1.9.2-.92.21-1.65.03-2.19-.18-.55-.5-.87-.95-.99-.45-.11-.89.03-1.33.42-.43.39-.89,1.18-1.37,2.37-.65,1.53-1.36,2.59-2.12,3.18-.76.59-1.58.79-2.46.6-.77-.17-1.36-.55-1.76-1.13-.4-.58-.65-1.28-.73-2.07-.09-.8-.04-1.6.13-2.41.23-1.04.59-1.93,1.08-2.67s1.07-1.28,1.73-1.63c.29-.17.57-.22.83-.14.26.07.45.26.58.55.11.29.1.6-.04.94-.14.33-.34.6-.6.79-.45.32-.79.69-1.03,1.12-.24.43-.42.94-.55,1.55-.15.7-.17,1.31-.05,1.84.12.53.4.85.84.94.27.06.53.04.79-.06.25-.1.51-.36.78-.76.27-.4.58-1.02.94-1.83.49-1.14.98-2.01,1.48-2.62.5-.61,1.01-1.02,1.54-1.22.53-.2,1.09-.23,1.7-.1.69.15,1.28.48,1.75.99.47.51.8,1.18.96,2,.17.82.13,1.8-.12,2.92Z"/>
      <path class="cls-2" d="m42.27,145.14c-.12.33-.34.57-.65.7-.31.14-.6.15-.89.04l-10.71-4c-.32-.12-.55-.33-.68-.63s-.14-.62-.02-.95c.12-.33.34-.57.64-.71.3-.14.61-.15.93-.03l10.71,4c.3.11.52.33.65.65.13.32.14.63.02.93Zm4.02,1.5c-.16.42-.44.74-.85.94-.41.2-.82.23-1.24.07-.42-.16-.72-.45-.9-.87-.18-.42-.19-.85-.03-1.27.16-.44.45-.76.86-.95.41-.19.83-.21,1.25-.05.42.16.72.45.89.86.17.42.18.84.02,1.27Z"/>
    </g>
  </g>
</svg>