<?xml version="1.0" encoding="UTF-8"?><svg id="Calque_1" xmlns="http://www.w3.org/2000/svg" viewBox="0 0 283.81 146.04"><defs><style>.cls-1{fill:#520e1f;stroke-width:0px;}</style></defs><path class="cls-1" d="m0,141.14c6.63-10.27,13.37-20.5,19.92-30.8,2.88-4.36,5.66-11.68,7.82-16.51,4.99-11.18,10.58-22.07,16.11-32.99l4.1-8.2c1.87-3.62,6.29-12.84,11.45-10.75,3.05,1.12,5.53,3.68,6.71,6.67.48,1.04,1.64,2.96,2.88,2.13.02,0-.07,0-.18.24-.09.26,0,.41-.02.38-.87-2.39-3.6-7.62-1.1-9.63,2.04-1.16,4.43.2,5.88,1.64,0,0-.05-.03-.17-.02-.12,0-.24.11-.24.12.8-1.77,1.73-2.86,3.83-1.79,6.9,3.6,12.82,8.54,18.53,13.78,1.11,1.09,2.17,2.25,3.1,3.52,1.76,2.68,3,4.95,5.98,6.4,1.15.65,2.83,1.63,3.97,2.25,2.73,1.61,5.54,2.04,8.54,3.1,1.51.59,2.71,1.81,3.8,2.92,1.09,1.07,2.2,2.19,3.14,3.45.99,1.17,1.47,2.85,2.12,4.17.41,1.02,1.35,1.39,2.29,1.83,4.59,1.72,9.87.92,14.6,2.57,1.48.48,2.57,1.69,4,2.24,1.33.56,2.82.61,4.34.65,1.48.14,3.09-.15,4.69.49,2.77,1.5,5.04,3.72,6.97,6.19,1.88,2.56,2.56,5.65,4.17,8.19,2.41,3.89,6.43,6.45,10.39,8.61,3.95,2.34,7.8,4.83,11.96,6.79-4.19-1.87-8.1-4.3-12.09-6.55-4.06-2.12-8.15-4.6-10.72-8.55-1.71-2.62-2.46-5.68-4.29-8.05-.9-1.2-1.96-2.27-3.1-3.25-1.11-.91-2.29-2.02-3.6-2.59-1.29-.52-2.84-.27-4.38-.38-1.52-.03-3.16-.05-4.68-.67-1.46-.51-2.53-1.7-4-2.18-5.05-1.71-10.86-.45-15.79-2.95-2.33-1.02-2.32-4.08-3.88-5.79-1.83-2.1-3.95-4.74-6.45-5.94-1.31-.55-2.82-.79-4.34-1.28-2.25-.71-4.33-1.8-6.34-2.98-2.01-1.16-4.22-2.2-5.8-4.05-1.87-2.6-3.22-5.04-5.57-7.16-4.44-4.04-9.17-8.03-14.28-11.22-1.51-.83-3.12-2.02-4.73-2.49-.17,0-.21,0-.38.2-.3.43-.47.95-.86,1.5-.12.16-.42.37-.73.39-.59.07-1.06-.38-1.31-.65-.8-.81-1.91-1.4-3.05-1.41-.62.02-.84.16-.99.68-.14.53-.07,1.26.06,1.95.34,1.75,1.11,3.58,1.8,5.29.06.22.21.33.07.8-.22.42-.31.38-.54.53-3.2,1.62-4.61-2.73-5.8-4.79-1.39-2.09-4.19-4.55-6.73-4.17-1.14.32-2.25,1.52-3.22,2.58-1.94,2.23-3.38,4.91-4.73,7.62l-4.13,8.2c-4.8,9.6-12.08,23.1-16.4,32.79-2.2,4.81-5.1,12.14-8.06,16.51C13.76,120.93,6.85,130.99,0,141.14h0Z"/><path class="cls-1" d="m86.66,48.39c6.78-2.64,12.75-7.92,15.54-14.69,1.45-3.41,1.73-7.41,3.56-10.72,1.81-3.41,4.38-6.24,5.36-9.66.22-2.46.7-7.48,2.27-9.81,1.13-1.99,3.47-4.78,6-2.87l.81.47,6.45,3.75c4.34,2.59,10.68,6.24,9.47,12.3-.11.55-.29,1.55-.15,1.92-.02-.02-.14-.02-.13-.02,0,0-.03,0,0,0,.05,0,.18-.05.3-.1.76-.36,1.69-.82,2.53-1.13,1.12-.46,2.49-1.02,3.97-.8,1.4.21,2.59.83,3.68,1.4,2.19,1.13,4.44,2.25,6.53,3.7,2.14,1.33,3.51,3.76,5.11,5.56,1.6,1.76,3.55,3.2,5.69,4.2.86.4,2.03.91,2.57,1.89.37.65.41,1.34.57,1.97,1.68,4.35,6.54,5.9,9.97,8.62,1.57,1.17,3.2,2.88,3.31,4.92.12.94.49,1.32,1.15,1.91,5.91,5.58,12.03,11.9,18.18,17.18,2.74,2.34,5.54,4.82,9.18,5.36,1.17.18,2.38.2,3.62.22,5.14-.17,10.14,2.71,13.04,6.87,2.94,4.03,4.54,8.78,8,12.41,3.38,3.49,6.7,7.32,10.31,10.57,1.86,1.56,4.05,2.67,6.29,3.69,2.22,1.05,4.58,1.95,6.6,3.51,4,3.1,6.25,7.73,8.97,11.85,5.43,8.26,11.25,16.3,18.4,23.18-3.58-3.41-6.95-7.05-10.05-10.91-3.11-3.85-5.92-7.94-8.75-12-4.79-7.31-6.83-11.77-15.47-14.96-4.7-1.78-8.54-5.27-11.8-8.99-3.45-3.51-7.25-6.99-9.51-11.46-3.38-6.64-7.84-12.83-16.04-12.6-2.51.02-5.2-.16-7.49-1.37-2.29-1.18-4.25-2.79-6.13-4.41-6.21-5.24-12.39-11.51-18.35-17.06-.81-.6-1.56-1.77-1.62-2.74-.1-.62-.2-1.14-.42-1.56-3.4-4.96-11.85-6.11-13.02-12.8-.12-.57-.26-.82-.65-1.13-2.7-1.43-5.61-2.95-7.64-5.36-1.74-1.96-2.86-4.11-4.85-5.34-1.97-1.37-4.17-2.46-6.37-3.61-1.09-.57-2.14-1.1-3.21-1.25-1.25-.23-2.78.55-4.08,1.05-.77.31-1.57.91-2.48.99-.86.07-1.47-1.04-1.43-1.63-.1-.98.31-2.02.31-2.86.21-4.95-5.18-7.57-8.89-9.93l-6.37-3.71-.8-.46-.4-.23c-1.52-.94-2.88,1.44-3.65,2.59-1.54,2.74-1.73,6.25-2.07,9.35-1.13,3.89-3.81,6.81-5.53,10.01-1.77,3.1-2.04,6.99-3.58,10.55-1.49,3.57-3.85,6.71-6.67,9.29-2.83,2.58-6.13,4.63-9.71,5.98l-.42-1.1h0Z"/></svg>