<?xml version="1.0" encoding="UTF-8"?>
<svg id="Calque_1" data-name="Calque 1" xmlns="http://www.w3.org/2000/svg" viewBox="0 0 848.27 372.32">
  <defs>
    <style>
      .cls-1 {
        fill: #54001a;
        stroke-width: 0px;
      }
    </style>
  </defs>
  <path class="cls-1" d="m470.47,23.87c4.63,3.12,8.06,7.37,11.19,11.89,1.24,1.79,2.46,3.58,4.04,5.11.94.91,1.92,1.74,3.19,2.12,2.52.76,4.04,2.49,5.03,4.85.88,2.09,1.54,4.24,2.2,6.39.4,1.31.74,2.64,1.14,3.95.53,1.77,1.54,3.23,3.19,4.08,4.14,2.12,6.12,5.75,7.32,10.01,1.82,6.43,3.4,12.93,5.97,19.12,1.86,4.46,3.73,8.91,5.67,13.34,2.78,6.34,5.64,12.65,8.13,19.12,1.22,3.16,2.27,6.37,3.13,9.64.78,2.96,1.54,5.92,2.82,8.72,1.08,2.37,2.42,4.54,4.34,6.33,1.89,1.76,3.5,3.78,5,5.88,1.28,1.79,2.18,3.75,2.68,5.9.5,2.2.96,4.41,1.51,6.59.34,1.32.79,2.62,1.24,3.91.76,2.15,1.93,4.04,3.6,5.65,2.73,2.64,4.98,5.7,7.18,8.78,1.89,2.64,3.13,5.62,4.35,8.6,1.25,3.06,2.43,6.14,3.91,9.1,1.15,2.28,1.48,3.33,5.33,3,1.36-.12,2.69-.47,4.03-.75,1.26-.27,2.51-.58,3.76-.88,1.03-.24,2.07-.28,3.12-.2,1.95.15,3.56.96,4.76,2.51.25.32.52.63.71.98,1.78,3.28,4.22,6.08,6.51,8.99,3.73,4.75,7.61,9.39,12,13.55,5.41,5.12,11.32,9.53,18.02,12.87,5.71,2.84,11.07,6.26,16.27,9.95,7.3,5.17,14.21,10.85,21.04,16.61,5.35,4.52,10.66,9.09,15.99,13.64,3.63,3.1,7.63,5.66,11.79,7.97,8.66,4.8,17.87,8.14,27.54,10.2,2.05.44,4.11.8,6.22.84,1.85.03,3.68.47,5.54.32,2.09-.17,4.18-.26,6.26-.51,6.53-.81,12.3,1.01,17.32,5.14,5.63,4.64,11.75,8.45,18.41,11.44,3.67,1.65,7.28,3.43,11.05,4.88,3.31,1.28,6.7,2.29,10.12,3.25,10.62,2.98,21.25,5.95,31.87,8.93,3.88,1.09,7.74,2.22,11.61,3.33.46.13.95.18,1.33.57-.29.47-.69.19-1,.1-4.75-1.25-9.5-2.5-14.24-3.78-10.03-2.69-20.06-5.42-30.1-8.07-6.17-1.62-12.15-3.77-17.94-6.43-2.49-1.14-4.98-2.28-7.45-3.47-4.52-2.18-8.71-4.88-12.68-7.93-.7-.54-1.41-1.07-2.1-1.63-4.94-3.96-10.56-5.26-16.78-4.47-6.28.79-12.53.61-18.74-.71-10.73-2.27-20.84-6.12-30.27-11.75-4.72-2.82-9.09-6.1-13.18-9.77-5.04-4.52-10.31-8.76-15.53-13.06-5.84-4.81-11.81-9.48-18.03-13.81-4.43-3.09-8.99-5.96-13.81-8.42-6.12-3.12-11.96-6.68-17.17-11.18-3.54-3.05-6.91-6.29-9.93-9.87-2.85-3.39-5.66-6.81-8.46-10.24-1.27-1.56-2.47-3.18-3.46-4.94-.28-.49-.59-.96-.91-1.43-.64-.92-1.55-1.43-2.64-1.5-.8-.05-1.61,0-2.4.12-1.19.2-2.37.47-3.54.77-2.27.59-4.53,1.13-6.9,1.07-.13,0-.27.14-.42.22-.19.7.28,1.22.55,1.78,2.48,5.02,5.63,9.56,9.51,13.6,5.19,5.42,9.98,11.16,14,17.53.34.54.68,1.1.99,1.66.07.13.07.31.1.47-.39.36-.57-.03-.74-.25-2.02-2.61-3.99-5.26-6.04-7.85-2.16-2.71-4.59-5.18-7.09-7.58-5.19-4.99-9.92-10.35-13.3-16.78-.04-.07-.08-.14-.12-.21-1.99-4.49-4.5-8.73-6.28-13.32-.52-1.35-1.13-2.67-1.65-4.02-1.82-4.82-4.7-8.97-8.05-12.82-1.05-1.22-2.1-2.45-3.22-3.6-1.67-1.7-2.82-3.7-3.67-5.9-1.25-3.24-2.04-6.62-2.7-10.02-.51-2.6-1.6-4.86-3.25-6.91-1.17-1.44-2.37-2.84-3.7-4.14-2.39-2.34-4.24-5.03-5.4-8.2-.97-2.65-1.97-5.28-2.65-8.02-1.55-6.28-4.05-12.22-6.59-18.14-2.82-6.59-5.78-13.12-8.63-19.69-2.21-5.1-4.16-10.3-5.59-15.69-.81-3.03-1.81-6.02-2.63-9.05-.8-2.94-2.32-5.3-5.06-6.75-2.82-1.5-4.41-3.93-5.32-6.88-.55-1.77-1.06-3.55-1.55-5.33-.43-1.56-1.04-3.04-1.72-4.51-.54-1.16-1.35-1.99-2.58-2.39-2.63-.85-4.63-2.57-6.27-4.72-1.51-1.98-3-3.99-4.42-6.04-1.7-2.47-3.7-4.67-5.92-6.67-2.19-1.98-3.36-2.04-5.8-.42-1.43.95-2.55,2.21-3.6,3.54-4.41,5.57-9.21,10.78-14.44,15.58-1.96,1.8-3.97,3.54-6.21,4.98-1.57,1.01-3.19,1.92-4.99,2.39-2.9.75-4.99,2.57-6.62,4.95-1.92,2.78-3.77,5.62-5.36,8.61-2.87,5.41-5.31,11.02-7.74,16.64-1.95,4.51-3.9,9.02-5.96,13.48-2.13,4.61-4.64,9.03-7.36,13.31-2.43,3.81-4.53,7.79-6.75,11.72-1.94,3.44-3.89,6.86-5.86,10.28-.52.9-1.05,1.84-1.74,2.61-1.16,1.29-1.85,2.8-2.47,4.38-2.52,6.44-6.23,12.17-10.62,17.47-3.55,4.28-7.38,8.31-11.33,12.22-2.36,2.34-4.55,4.8-6.09,7.76-1,1.93-1.86,3.93-2.75,5.91-1.31,2.94-2.58,5.9-3.89,8.84-.29.65-.52,1.35-1.07,1.87-.51-.13-.29-.49-.2-.72,2.4-5.72,4.24-11.65,7.04-17.21,1.2-2.39,2.73-4.54,4.51-6.53,4.03-4.5,8.14-8.92,11.86-13.69,4.05-5.19,7.24-10.84,9.46-17.03.08-.23.14-.46.23-.69.62-1.54.44-2.95-.51-4.34-1.83-2.67-3.17-5.61-4.31-8.63-1.06-2.78-1.98-5.62-3.01-8.42-1.03-2.8-2.09-5.58-3.16-8.36-.38-.98-.86-1.91-1.57-2.7-.68-.77-1.5-1.17-2.54-1.16-.98,0-1.93.17-2.83.53-1.87.74-3.74,1.5-5.59,2.29-2.74,1.16-5.47,2.36-8.21,3.54-2.3.99-4.46,2.25-6.53,3.65-2.31,1.56-4.15,3.63-5.55,5.98-4.24,7.13-9.09,13.88-13.09,21.16-1.24,2.27-2.32,4.6-3.16,7.04-.85,2.44-1.77,4.84-2.83,7.19-.49,1.1-1,2.21-1.37,3.35-.77,2.39-1.91,4.59-3.22,6.73-4.58,7.51-8.45,15.38-11.72,23.55-.42,1.04-.92,2.04-1.39,3.06-.01.03-.14.01-.24.02-.23-.67.15-1.24.33-1.83,2.14-7.02,4.81-13.84,8.02-20.45.32-.65.62-1.31.92-1.97.1-.23.16-.53-.09-.64-.18-.08-.48,0-.66.1-3.11,1.77-5.83,4.02-8.13,6.77-3.72,4.46-7.1,9.16-10.1,14.14-2.13,3.53-3.63,7.37-5.38,11.08-1.28,2.7-2.66,5.33-4.29,7.83-.57.88-1.04,1.79-1.33,2.82-2.19,7.64-6.15,14.32-11.15,20.42-5.24,6.39-11.4,11.81-17.99,16.75-5.55,4.16-10.85,8.6-15.99,13.26-2.69,2.43-5.29,4.95-7.92,7.45-.31.3-.53.83-1.13.68-.06-.58.41-.84.72-1.16,5.78-6.07,11.87-11.82,18.32-17.18,3.59-2.99,7.26-5.88,10.8-8.93,6.45-5.55,12.11-11.79,16.51-19.12,1.37-2.28,2.59-4.64,3.52-7.14.11-.29.27-.66-.08-.87-.16-.09-.48-.02-.67.08-5.28,2.77-10.44,5.74-15.04,9.59-.43.36-.89.69-1.36,1-4.96,3.33-8.88,7.66-12.15,12.62-.38.57-.62,1.27-1.6,1.74.86-2.74,2.33-4.83,3.82-6.88,1.5-2.06,3.15-4.02,4.84-6.15-1.54-.73-3.03-.97-4.53-1.11-.9-.08-1.72.34-2.5.78-2.41,1.35-4.52,3.07-6.37,5.13-2.54,2.83-4.61,6-6.59,9.23-2.1,3.44-4.24,6.84-6.5,10.17-3.75,5.52-8.32,10.24-13.46,14.44-5.12,4.18-10.46,8.07-15.87,11.86-5.57,3.9-11.53,7.06-18.08,9.03-2.31.7-4.59,1.5-6.89,2.24-4,1.28-7.82,2.99-11.46,5.09-5.24,3.01-10.59,5.81-16.01,8.48-6.22,3.07-12.66,5.56-19.26,7.73-13.04,4.28-26.38,7.31-39.83,9.88-13,2.49-25.72,5.97-38.23,10.26-2.67.91-5.3,1.91-7.95,2.88-.98.36-1.94.8-3.01.84l-.06-.08c.54-.52,1.23-.75,1.9-1.02,12.5-5.03,25.28-9.17,38.39-12.25,6.5-1.52,13.07-2.8,19.59-4.24,10.23-2.26,20.32-5.01,30.24-8.39,7.96-2.71,15.56-6.17,22.93-10.18,4.38-2.39,8.7-4.89,13.06-7.32,2.75-1.53,5.7-2.62,8.67-3.66,2.36-.82,4.72-1.63,7.1-2.36,5.59-1.71,10.71-4.39,15.6-7.56,4.8-3.12,9.32-6.61,13.81-10.15,1.14-.9,2.23-1.85,3.4-2.71,4.86-3.57,8.73-8.08,12.26-12.91,3.48-4.75,6.45-9.82,9.51-14.84,2.71-4.45,6.07-8.31,10.45-11.22.54-.36,1.09-.7,1.66-.99,1.78-.92,3.67-1.18,5.63-.76.79.17,1.56.39,2.34.59,1.33.33,2.56.1,3.69-.66.27-.18.55-.35.78-.56,4.22-3.8,9.13-6.58,14.04-9.35,2.16-1.22,3.94-2.8,5.38-4.76,1.23-1.69,2.38-3.45,3.41-5.27.98-1.75,1.86-3.58,2.6-5.44,2.5-6.24,5.77-12.04,9.7-17.48,1.32-1.83,2.61-3.68,3.99-5.46,2.57-3.34,5.55-6.26,9.1-8.57,1.82-1.18,3.54-2.52,5.55-3.41.85-.38,1.41-1.05,1.69-1.95,1.32-4.24,3.43-8.16,4.82-12.37,1.27-3.83,3.1-7.44,5.19-10.89,3.76-6.19,7.62-12.33,11.49-18.45.9-1.42,1.98-2.74,3.06-4.03,2.55-3.03,5.97-4.88,9.46-6.55,3.7-1.77,7.49-3.35,11.26-4.99,1.84-.8,3.71-1.57,5.69-1.97,4.18-.85,6.84.42,8.7,4.21,1.49,3.04,2.69,6.2,3.79,9.4,1.2,3.5,2.33,7.03,3.82,10.43.68,1.55,1.43,3.06,2.19,4.57.29.57.65,1.11,1.02,1.64.43.6.96.64,1.38.07.48-.65.91-1.33,1.33-2.01,2.52-4.03,4.65-8.28,6.92-12.46,1.5-2.76,3.07-5.48,4.77-8.12,1.62-2.51,3.09-5.09,4.46-7.74,3.59-6.94,6.71-14.1,9.75-21.29,2.26-5.34,4.57-10.65,7.45-15.7,1.76-3.08,3.73-6.02,5.8-8.89,1.67-2.3,3.84-3.98,6.54-4.73,3.78-1.05,6.7-3.34,9.6-5.83,5.59-4.8,10.45-10.26,15.06-15.96,2.05-2.53,4.44-4.65,7.32-6.18h4.35Z"/>
  <path class="cls-1" d="m38.83,334.65c-.69.64-1.52.92-2.44.93h0c.65-.66,1.47-.94,2.38-1,0,0,.06.07.06.07Z"/>
  <path class="cls-1" d="m36.39,335.58c-.39.41-.84.72-1.43.77-.06,0-.15-.06-.17-.12-.02-.05,0-.16.04-.2.45-.4,1.01-.42,1.57-.45,0,0,0,0,0,0Z"/>
</svg>