<?xml version="1.0" encoding="UTF-8"?>
<svg id="Calque_1" data-name="Calque 1" xmlns="http://www.w3.org/2000/svg" viewBox="0 0 340.01 96.03">
  <defs>
    <style>
      .cls-1 {
        stroke: #152138;
        stroke-miterlimit: 10;
        stroke-width: .1px;
      }

      .cls-1, .cls-2 {
        fill: #152138;
      }

      .cls-2 {
        stroke-width: 0px;
      }
    </style>
  </defs>
  <g>
    <path class="cls-2" d="m317.69,47.02c-.87-1.3-1.12-2.97-.9-4.53,1.1-7.62,10-11.7,16.97-10.14,2.05.46,4.1,1.44,5.27,3.19,1.59,2.38,1.14,5.72-.5,8.06-1.64,2.34-4.26,3.82-6.94,4.81-2.77,1.02-5.76,1.59-8.69,1.26-1.76-.2-3.57-.77-4.75-2.08-.16-.18-.31-.37-.44-.57Z"/>
    <g>
      <path class="cls-2" d="m159.32,12.64c-1.65,2.34-4.27,3.82-6.95,4.81-2.24.82-4.62,1.35-7,1.35-.56,0-1.13-.03-1.69-.1-1.77-.19-3.57-.77-4.76-2.07-.17-.18-.32-.37-.45-.57-.87-1.29-1.13-2.97-.9-4.53.09-.62.22-1.2.41-1.77.12-.38.27-.74.43-1.1.4-.89.93-1.71,1.54-2.46.24-.3.5-.59.78-.86.28-.28.56-.54.86-.79.3-.26.61-.49.94-.71,2.57-1.81,5.81-2.79,8.96-2.79.51,0,1.03.03,1.54.09.51.05,1.01.13,1.51.24,2.05.47,4.11,1.45,5.28,3.19,1.59,2.38,1.14,5.72-.5,8.06Z"/>
      <path class="cls-2" d="m304.57,51.47c-.07-.46-.15-.91-.25-1.36-.22-1.01-.51-1.98-.88-2.88-.4-.98-.89-1.87-1.46-2.65-1.3-1.75-2.87-3.18-4.57-4.36-1.02-.7-2.09-1.31-3.19-1.84-.42-.21-.85-.4-1.28-.58-.43-.18-.86-.36-1.3-.52-.87-.33-1.75-.62-2.64-.88-.44-.13-.89-.25-1.34-.37-.89-.23-1.79-.44-2.7-.64-.45-.1-.9-.19-1.36-.28-.91-.18-1.82-.36-2.73-.53-2.73-.52-5.46-1.03-8.14-1.78-.08-.02-.15-.06-.21-.11-.18-.14-.26-.38-.25-.61,0-.08.02-.15.04-.23.07-.22.24-.39.48-.42,5.29-.67,10.56-1.9,14.71-6.15,2.37-2.42,4.02-5.75,4.22-9.45.03-.51.03-1,0-1.48-.07-1.43-.35-2.74-.8-3.93-.15-.4-.32-.78-.51-1.15-.38-.74-.82-1.43-1.32-2.06-.5-.63-1.06-1.22-1.66-1.75s-1.24-1.01-1.91-1.44c-1.68-1.08-3.54-1.85-5.38-2.32-1.13-.29-1.96-.46-2.91-.57-.12-.01-.28-.03-.45-.05-.02,0-.04,0-.06,0-.18-.02-.39-.04-.62-.06-.03,0-.06,0-.1,0-.23-.02-.49-.04-.76-.05-.05,0-.09,0-.14,0-.28-.01-.58-.02-.9-.03-.05,0-.11,0-.16,0-.3,0-.62,0-.95,0-.06,0-.12,0-.18,0-.37.01-.76.03-1.16.06-.11,0-.23.02-.34.03-.31.03-.64.06-.97.1-.13.01-.26.03-.39.05-.44.06-.9.12-1.37.21-.03,0-.07.01-.1.02-.43.08-.88.17-1.33.28-.14.03-.29.07-.44.11-.38.1-.76.2-1.15.32-.13.04-.26.08-.39.12-.51.16-1.02.34-1.53.53-.1.04-.21.09-.32.13-.42.17-.85.35-1.27.55-.16.07-.32.15-.48.23-.44.21-.88.45-1.33.69-.1.05-.19.1-.29.16-.53.31-1.06.64-1.59,1-.14.09-.27.19-.41.29-.41.29-.82.59-1.22.91-.15.12-.31.24-.46.37-.53.44-1.05.89-1.57,1.39,0,0-.02.02-.03.03.08.09.17.18.25.27.48.6.93,1.24,1.33,1.91.22.36.48.81.76,1.38.58,1.16,1.03,2.36,1.34,3.57.42,1.67.57,3.38.44,5.07-.36,4.72-2.81,9.01-7.08,12.4-1.16.92-2.45,1.7-3.84,2.34.1.19.19.38.3.57,2.02,3.35,5.36,5.07,8.65,6.08,1.98.61,3.94.96,5.59,1.25,4.18.75,9.46.71,9.69,2.45.01.09,0,.17,0,.24,0,.07-.03.13-.04.19-.32,1.2-1.96,1.68-4.25,2.06-.57.1-1.19.19-1.83.28s-1.32.19-2.02.3c-1.39.22-2.87.51-4.34.92-3.92,1.11-7.85,2.22-10.5,6.13-.03.05-.06.1-.09.15.62.49,1.22,1.02,1.76,1.59,2.95,3.12,4.47,6.55,4.54,10.2,0,.26,0,1.67-.43,3.48-.21.89-.5,1.75-.86,2.55-.1.22-.21.44-.32.67-.24.47-.51.91-.8,1.33-.21.31-.47.62-.76.96,2.38,1.75,5.2,2.79,7.98,3.36.53.11,1.05.2,1.58.28.17.03.34.05.51.07.36.05.73.1,1.09.13.19.02.38.04.58.06.36.03.71.06,1.07.08.18.01.36.02.54.03.43.02.85.03,1.28.03.1,0,.21,0,.31,0,.58,0,1.16-.02,1.74-.04.16,0,.32-.02.47-.03.45-.03.9-.06,1.35-.1.16-.01.31-.03.47-.04.58-.06,1.16-.13,1.74-.21.08-.01.15-.02.22-.04.51-.08,1.02-.16,1.53-.25.17-.03.33-.06.5-.09.47-.09.94-.19,1.41-.29.11-.03.23-.05.34-.07.57-.13,1.14-.27,1.71-.42.14-.04.28-.08.43-.12.44-.12.89-.25,1.33-.38.16-.05.33-.1.49-.15.56-.17,1.12-.35,1.67-.53,0,0,0,0,.01,0,2.01-.67,4.08-1.49,6.12-2.47.51-.25,1.02-.5,1.52-.77,1.01-.54,2-1.12,2.97-1.75.97-.63,1.91-1.31,2.81-2.05.9-.73,1.76-1.52,2.57-2.37.41-.42.8-.86,1.18-1.31.76-.9,1.46-1.86,2.09-2.89.63-1.02,1.19-2.11,1.67-3.27.13-.31.25-.63.35-.95.54-1.64.81-3.49.84-5.39.02-1.14-.06-2.28-.22-3.4Z"/>
      <path class="cls-2" d="m155.29,25.99c-.25-.19-.51-.37-.78-.54-.08-.05-.17-.1-.25-.15-.19-.12-.38-.23-.58-.33-.1-.05-.2-.1-.3-.15-.2-.1-.4-.19-.61-.28-.09-.04-.18-.08-.28-.12-.29-.12-.58-.23-.88-.33,0,0-.02,0-.03-.01-.31-.1-.62-.19-.93-.27-.1-.02-.2-.04-.3-.07-.22-.05-.44-.1-.67-.13-.11-.02-.23-.04-.34-.05-.22-.03-.45-.06-.67-.08-.1,0-.21-.02-.31-.03-.31-.02-.62-.04-.93-.04-.01,0-.03,0-.04,0-.38,0-.75.02-1.13.06-.09,0-.19.02-.28.03-.37.04-.74.09-1.11.17,0,0,0,0-.01,0-.37.08-.73.18-1.08.29-.09.03-.18.06-.26.09-.35.12-.7.25-1.04.41-1.55.72-2.82,1.79-3.86,3.11-.7.88-1.29,1.88-1.8,2.96-.77,1.63-1.34,3.45-1.78,5.39-.29,1.29-.52,2.63-.7,3.99-.48,3.6-.62,7.34-.72,10.79.03.02.06.03.09.05.48.26.91.51,1.31.77.25.16.67.44,1.21.83,1.21.89,2.3,1.87,3.23,2.92.76.85,1.42,1.75,1.96,2.67,1.11,1.9,1.73,3.92,1.83,6,.02.4.02.81,0,1.21-.1,2.3-.79,4.56-2.05,6.72-.93,1.59-2.14,3.05-3.55,4.32.75.92,1.64,1.74,2.68,2.41,0,0,0,0,0,0,.23.15.46.29.71.42.08.04.16.09.24.13.17.09.34.18.52.26.1.04.19.09.29.13.17.07.34.15.52.21.1.04.2.08.3.11.19.07.38.13.58.19.09.03.17.06.26.08.28.08.57.16.85.22.04,0,.08.01.11.02.25.05.51.1.76.14.1.02.2.03.3.04.2.03.4.05.6.07.11,0,.22.02.33.02.19.01.39.02.59.02.1,0,.2,0,.3,0,.37,0,.74-.02,1.11-.06.07,0,.14-.02.2-.03.34-.04.67-.09,1-.16.06-.01.11-.02.17-.03.36-.08.72-.19,1.07-.31.08-.03.16-.06.23-.08.36-.13.71-.28,1.06-.45,7.03-3.59,7.38-14.69,7.81-28.48.4-12.52.66-20.79-4.95-25.09Z"/>
      <path class="cls-2" d="m186.05.07c-.35.03-.7.07-1.05.11-.31.04-.62.06-.92.11-.35.05-.69.13-1.04.2-.29.06-.58.1-.86.17-.35.08-.69.19-1.03.28-.27.08-.54.14-.81.23-.34.11-.68.24-1.01.37-.25.09-.51.18-.75.28-.34.14-.67.3-1,.45-.23.11-.47.21-.7.32-.33.17-.66.35-.98.53-.22.12-.44.23-.66.36-.33.2-.65.41-.97.62-.2.13-.41.25-.6.39-.33.23-.64.47-.96.71-.18.14-.37.27-.55.41-.32.25-.63.52-.94.79-.17.14-.34.28-.5.43-.31.28-.62.58-.92.88-.15.15-.31.29-.46.44-.31.31-.6.64-.9.96-.14.15-.28.29-.42.45-.3.34-.58.69-.87,1.04-.12.15-.25.3-.38.45-.29.36-.56.74-.84,1.11-.11.15-.23.3-.34.46-.28.39-.54.78-.81,1.18-.1.15-.21.3-.31.46-.26.41-.51.82-.77,1.24-.1.16-.2.31-.29.47-.25.43-.49.86-.73,1.3-.09.16-.18.31-.26.47-.24.45-.47.91-.7,1.37-.07.15-.15.3-.23.45-.22.46-.43.93-.64,1.39-.07.16-.15.31-.22.48-.2.47-.4.94-.59,1.41-.07.17-.14.33-.21.5-.19.48-.37.97-.55,1.46-.06.16-.12.32-.18.48-.17.49-.34.98-.5,1.47-.06.17-.12.33-.17.5-.04.12-.07.24-.11.37,2.69,3.7,3.23,8.98,3.19,15.97-.01,2.33-.09,4.85-.18,7.56-.21,6.6-.41,12.54-1.3,17.41.21.36.42.73.65,1.09.35.54.72,1.07,1.11,1.59,1.16,1.54,2.49,2.94,3.97,4.13,3.88,3.11,8.64,4.67,13.44,5.16.69.07,1.37.12,2.06.15.55.02,1.09.03,1.64.02.27,0,.54-.01.81-.02.33,0,.66-.02,1-.04.27-.02.54-.04.81-.06.33-.03.65-.05.98-.09.27-.03.55-.06.82-.1.32-.04.65-.09.97-.14.27-.04.54-.09.81-.14.32-.06.64-.12.96-.19.27-.06.54-.12.81-.18.32-.07.63-.15.95-.23.27-.07.53-.14.8-.22.31-.09.63-.18.94-.28.26-.08.52-.17.78-.25.31-.1.62-.21.93-.33.26-.09.52-.19.77-.29.31-.12.61-.25.91-.37.25-.11.5-.21.75-.32.3-.14.6-.28.9-.42.24-.12.49-.23.73-.35.3-.15.6-.31.89-.47.24-.13.47-.25.7-.38.3-.17.59-.35.89-.52.23-.14.45-.27.67-.41.3-.19.59-.39.88-.58.21-.14.42-.28.63-.42.3-.21.6-.43.89-.65.19-.14.39-.28.58-.43.32-.25.64-.51.95-.77.16-.13.31-.25.47-.38.46-.4.92-.8,1.37-1.22,3.65-3.43,6.81-8,6.9-13.26.03-1.87-.38-3.71-1.13-5.41-.3-.68-.65-1.33-1.06-1.95-.4-.62-.85-1.21-1.34-1.75-1.71-1.9-3.92-3.28-6.34-3.76-.39-.08-.78-.13-1.17-.17-.13-.01-.26-.01-.4-.02-.26-.02-.52-.03-.77-.04h0s-.05,0-.07,0c-.04,0-.08,0-.13,0-.45,0-.9.03-1.34.08-.13.01-.25.02-.38.04-.49.06-.99.13-1.48.23-.04,0-.08.02-.12.03-.47.1-.93.21-1.39.33-.13.03-.25.07-.38.1-.48.13-.96.27-1.43.42-3.11.97-6.13,2.21-9.06,3.65-.98.48-1.95.98-2.91,1.5-3.84,2.09-7.53,4.49-11.08,7.08h0c.39-5.15.78-10.3,1.17-15.44,0-.07.01-.14.02-.2.48.11.97.21,1.45.3.15.03.31.05.46.08.34.06.67.11,1.01.15.18.02.35.04.53.06.33.03.65.06.98.09.17.01.34.03.51.03.37.02.74.03,1.12.03.12,0,.24,0,.36,0,.54,0,1.08-.02,1.62-.05.14,0,.28-.02.41-.03.42-.03.84-.07,1.26-.13.15-.02.3-.04.44-.06.53-.08,1.06-.16,1.59-.27.05-.01.11-.03.16-.04.48-.1.95-.22,1.42-.35.15-.04.3-.08.45-.13.42-.12.83-.25,1.24-.4.11-.04.22-.07.33-.11.5-.18,1-.38,1.49-.6.12-.05.24-.11.35-.16.39-.18.77-.36,1.15-.56.14-.07.27-.14.41-.22.48-.26.95-.53,1.41-.83,1.45-.93,2.8-2.03,4.04-3.27.53-2.13,1.16-4.22,1.9-6.23,1.68-4.56,3.57-8.29,5.46-11.33-.01-2.87-.57-5.75-1.83-8.31C201.15,3.5,194.53.05,188.18,0h0c-.38,0-.75.02-1.13.03-.01,0-.02,0-.03,0-.33.01-.66.01-.98.04Z"/>
      <g>
        <path class="cls-2" d="m221.89,41.23c.29-.35.65-.79,1.04-1.26.59-.71,1.24-1.51,1.85-2.26.28-.34.58-.69.97-.89.12-.06.25-.09.38-.12.09-.02.17-.04.26-.04.09,0,.17-.02.26-.02.02,0,.04,0,.07,0,.2,0,.39.01.59.02,1.66.12,3.33.17,5,.17,2.06,0,4.13-.09,6.19-.26.47-.04,1.96-.04,3.94-.38,2.54-.44,5.89-1.44,8.89-3.83,1.13-.9,6.16-4.89,6.68-11.64.36-4.71-1.67-8.2-2.39-9.39-3.12-5.18-8.08-7.06-10.87-7.9-.77-.23-1.55-.43-2.33-.6-.27-.06-.54-.1-.81-.15-.47-.09-.95-.18-1.42-.26-.03,0-.07-.01-.1-.02,0,0-.02,0-.02,0-.32-.05-.64-.07-.95-.1-.21-.02-.41-.04-.62-.06-.27-.03-.53-.06-.8-.08,0,0,0,0-.01,0-.34-.02-.68-.02-1.02-.04-.07,0-.15,0-.22,0-.36-.01-.72-.04-1.09-.04h-.18s-.07,0-.11,0c-.65,0-1.3.03-1.94.08-.25.02-.5.04-.75.06-.46.04-.91.09-1.36.15-.26.03-.52.07-.78.11-.57.09-1.13.19-1.69.3-.24.05-.48.1-.72.16-.53.12-1.05.25-1.57.39-.27.08-.54.16-.81.24-.4.12-.81.25-1.21.39-.28.1-.56.19-.83.29-.45.17-.89.35-1.32.53-1.63.69-3.22,1.49-4.73,2.42-7.49,4.66-12.81,14.14-15.84,22.37-.84,2.26-1.51,4.59-2.07,6.95-.56,2.35-.99,4.73-1.28,7.13.36-.09.7-.17,1.04-.24l.09-.02c.48-.1.99-.18,1.55-.24.13-.02.25-.03.41-.04.51-.05.98-.08,1.49-.08.05,0,.1,0,.16,0h0c.25,0,.51.02.76.03h.08s.13.01.13.01c.1,0,.2,0,.3.02.44.04.87.1,1.27.18,2.54.5,5,1.96,6.92,4.09.53.58,1.01,1.22,1.44,1.88.43.67.82,1.37,1.14,2.1.83,1.88,1.25,3.91,1.22,5.86-.11,6.05-4,10.96-7.24,14.01-.44.42-.92.84-1.4,1.26-.1.08-.2.17-.3.25l-.18.15-.07.06c-.3.25-.6.5-.91.73-.13.1-.26.19-.39.29l-.09.07c.24.22.48.45.74.67,4.97,4.3,10.21,4.98,18.86,5.9.71.08,1.46.15,2.21.23.22.02.45.04.67.07.76.07,1.53.14,2.31.21.08,0,.15.01.23.02.82.06,1.65.12,2.48.16.21.01.43.02.65.03.74.03,1.49.05,2.23.05.14,0,.29,0,.43,0,.09,0,.17,0,.26,0,.51,0,1.02-.02,1.53-.04.11,0,.21,0,.32-.01.55-.03,1.1-.07,1.65-.12.11-.01.23-.02.34-.03.52-.05,1.03-.12,1.54-.19.05,0,.1-.01.15-.02.53-.08,1.05-.19,1.57-.31.11-.03.23-.05.34-.08.51-.12,1.02-.26,1.51-.42.04-.01.09-.03.13-.05.45-.15.9-.32,1.33-.51.1-.04.19-.08.29-.12.45-.2.89-.43,1.3-.67.08-.05.15-.1.23-.14.38-.23.74-.48,1.09-.75.06-.05.12-.09.18-.13.38-.3.73-.63,1.07-.98.08-.08.15-.16.22-.24.34-.37.66-.75.95-1.17.14-.2.27-.4.39-.6.24-.41.45-.82.64-1.23,1.19-2.65,1.2-5.2,1.2-5.57-.05-2.86-1.1-5.2-2.17-6.87-.24-.37-.48-.71-.71-1.01s-.45-.57-.65-.8-.38-.43-.52-.59c-.07-.08-.14-.15-.2-.21-1.17-1.24-2.45-2.2-3.81-2.96-.68-.38-1.37-.71-2.07-.99-1.05-.43-2.13-.75-3.2-1.01-.72-.17-1.43-.31-2.14-.43-.36-.06-.71-.11-1.06-.16-.7-.1-1.39-.17-2.07-.24-.68-.07-1.34-.12-1.97-.17-.45-.04-.94-.07-1.47-.09-.01,0-.03,0-.04,0-.51-.02-1.07-.04-1.64-.04-.03,0-.06,0-.09,0-.54,0-1.12.01-1.72.04-.17,0-.34.02-.51.03-.46.02-.93.06-1.42.1-.2.02-.39.03-.59.05-.63.06-1.27.14-1.94.24-.04,0-.09.01-.13.02-.7.11-1.44.24-2.18.4-.21.04-.43.1-.65.14-.57.13-1.15.27-1.74.42-.23.06-.47.12-.71.19-.8.23-1.62.47-2.46.76,0-1.74-.01-3.48-.02-5.23,1.31-.05,2.56-.1,3.73-.14s2.26-.07,3.28-.1c2.02-.05,3.72-.08,5.05-.1,5.83-.08,9.84,0,10.91-2.21.06-.13.13-.29.18-.48.11-.37.19-.82.16-1.29-.01-.24-.05-.48-.12-.72-.16-.53-.54-1.26-1.71-2-.17-.11-.35-.21-.55-.32-.14-.08-.29-.15-.44-.21-.04-.02-.08-.03-.12-.05-.14-.06-.29-.12-.44-.18,0,0-.01,0-.02,0-.16-.06-.32-.11-.49-.15-.04-.01-.08-.02-.13-.03-.16-.04-.32-.08-.5-.12-.02,0-.03,0-.05-.01-.19-.04-.38-.07-.58-.1-.05,0-.1-.01-.15-.02-.19-.02-.38-.04-.58-.06-.03,0-.05,0-.08,0-.23-.02-.47-.03-.72-.04-.06,0-.13,0-.19,0-.23,0-.46-.01-.71-.01-.04,0-.08,0-.12,0-.13,0-.27,0-.41,0-.09,0-.18,0-.28,0-.15,0-.3,0-.46.01-.09,0-.18,0-.28,0-.18,0-.38.02-.57.03-.08,0-.15,0-.22.01-.28.01-.56.03-.86.05-4.02.25-8.04.8-8.04.8,0,0,.12-.15.33-.41.11-.13.23-.28.38-.46Z"/>
        <path class="cls-2" d="m202.8,44.08s.05,0,.07,0h0s-.05,0-.07,0Z"/>
      </g>
      <path class="cls-2" d="m142.2,64.01c-.34-6.77-6.48-10.76-7.76-11.6-.87-.56-1.74-1.03-2.63-1.4-.13-.06-.27-.1-.41-.15-.23-.09-.46-.18-.69-.26-.04-.01-.09-.03-.13-.04-.03,0-.06-.02-.09-.03-.04-.01-.08-.02-.12-.04-.05-.02-.1-.03-.15-.05-.14-.04-.28-.08-.42-.12-.12-.04-.25-.07-.37-.11-.15-.04-.29-.08-.44-.11-.09-.02-.19-.04-.28-.06-.11-.02-.22-.05-.34-.07-.05-.01-.11-.02-.16-.03-.14-.03-.28-.06-.42-.08-.06-.01-.12-.02-.18-.03-.04,0-.08-.01-.11-.02-.21-.03-.42-.07-.63-.09-.08,0-.16-.02-.24-.03-.38-.04-.76-.07-1.13-.09-.1,0-.21,0-.31-.01-.26-.01-.52-.02-.78-.02-.21,0-.42,0-.63,0-.08,0-.15,0-.23,0-.29,0-.57.02-.84.04-.06,0-.12,0-.18.01-.21.02-.41.03-.61.05-.09,0-.18.02-.27.03-.16.02-.32.03-.48.05-.09.01-.18.02-.26.03-.15.02-.29.04-.43.06-.08.01-.15.02-.23.03-.15.02-.29.04-.43.07-.05,0-.11.02-.16.03-.18.03-.35.06-.5.08-.52.09-1.03.19-1.53.31-3.41.8-6.01,2.17-7.64,3.17,1.4-1.66,3.2-3.96,5-6.9h-.01c1.62-2.64,3.25-5.79,4.62-9.44,1.94-5.19,8.82-23.57-.21-32.45-.29-.29-.61-.57-.94-.83-.07-.06-.14-.12-.22-.18-.33-.26-.67-.51-1.03-.74-.06-.04-.11-.07-.17-.11-.33-.21-.67-.41-1.02-.6-.07-.04-.15-.08-.22-.12-.39-.2-.79-.39-1.2-.56-.09-.04-.18-.07-.27-.11-.39-.16-.79-.3-1.2-.43-.04-.01-.08-.03-.12-.04-.43-.13-.88-.24-1.33-.34-.1-.02-.21-.04-.31-.06-.45-.09-.9-.16-1.36-.21-.05,0-.1,0-.15-.01-.43-.04-.85-.06-1.28-.07-.1,0-.19,0-.29,0-.48,0-.96.03-1.44.08-.09,0-.19.02-.28.04-.5.06-.99.15-1.49.27-3.22.78-5.88,2.71-8.1,5.39-1.58,1.92-2.94,4.22-4.11,6.78-.04.08-.07.17-.11.26.08.35.15.7.2,1.05.7,4.68-.73,9.41-4.13,13.66-.22.28-.47.54-.71.8-.1.5-.2,1-.29,1.49-.11.6-.22,1.2-.33,1.8-.94,5.4-1.54,10.63-2.03,14.89-.09.78-.17,1.54-.23,2.29,0,0,0,0,0,0,0,0,0,0,0,0-.7,7.71-.13,13.51,3.18,18.66,2.05,3.19,4.66,5.44,6.89,6.95,0,0,0,0,0,0,.45.31.88.57,1.29.82.03.02.06.04.1.06.38.23.74.43,1.07.61,0,0,0,0,.01,0,.34.18.66.35.93.48,2.64,1.3,5.44,2.2,8.32,2.82.72.16,1.44.3,2.17.42.05,0,.11.01.16.02.93.15,1.86.28,2.79.39.23.03.46.05.69.08.99.1,1.97.19,2.96.26,1.24.07,2.51.13,3.77.13.28,0,.56-.02.85-.02.06,0,.12,0,.17,0,.06,0,.12,0,.19,0,.47-.01.95-.01,1.41-.04.57-.03,1.15-.07,1.72-.14.57-.06,1.15-.14,1.72-.22.64-.11,1.27-.22,1.89-.36.78-.17,1.54-.38,2.3-.63,1.09-.36,2.16-.8,3.19-1.32,5.26-2.67,9.45-8.16,9.16-14.11Z"/>
      <path class="cls-2" d="m87.41,68.4c-3.41-5.31-3.98-11.24-3.43-18.3-.04,0-.07,0-.11,0-.12-.01-.22-.01-.34-.01-.29-.01-.59-.02-.87-.02h-.31c-.53.01-1.05.02-1.59.05h-.08c-.55.03-1.09.09-1.62.14-.11.01-.2.02-.3.03-.51.05-1.01.11-1.5.17-.11.02-.21.03-.31.04-.49.06-.97.14-1.43.2-3.67.53-9.69,1.91-16.34,6.07-.39-1.7-.79-3.39-1.18-5.1,5.07-1.38,9.1-2.39,11.67-3.01.35-.1.7-.17,1.04-.26.68-.17,1.33-.33,1.95-.48.62-.16,1.2-.31,1.76-.47,1.94-.54,3.44-1.11,4.37-1.86.53-.44.88-.94,1.02-1.53.14-.57.16-1.61-.34-2.49-.31-.54-.97-1.29-2.71-1.76-.29-.07-.57-.13-.87-.17-.1-.01-.18-.02-.28-.03-.22-.02-.46-.03-.69-.04h-.57c-.26.01-.52.03-.81.06h-.02c-.29.03-.59.09-.9.14-.09.01-.16.03-.24.04-.33.06-.68.13-1.05.22h-.02c-.37.09-.78.19-1.19.3-.12.03-.22.06-.34.1-.44.12-.88.24-1.37.39h-.02c-1.2.36-2.4.74-3.48,1.11-.44.15-.85.29-1.23.41-.77.27-1.44.51-1.94.69-.63.22-1,.36-1,.36,0,0,1.39-2.79,2.53-5.07.1-.2.2-.4.32-.59.12-.19.26-.36.43-.5.2-.17.45-.28.7-.35.27-.07.53-.13.8-.17,2.77-.44,5.5-1.03,8.2-1.79.89-.24,1.8-.51,2.68-.8.65-.2,3.34-.8,6.31-2.51,1.78-1.03,3.66-2.46,5.24-4.46.9-1.13,4.91-6.14,3.92-12.84-.7-4.67-3.47-7.62-4.43-8.62-4.2-4.35-9.46-5.07-12.36-5.27-.69-.04-1.38-.06-2.07-.06h-.22c-.19,0-.38.01-.57.02-.54.01-1.1.03-1.64.07-.26.02-.5.04-.74.06-.52.05-1.03.12-1.55.19-.22.03-.45.06-.67.11-1.98.4-4.22.99-6.62,1.84-3.01,1.07-5.58,2.31-7.68,3.5.5.46,1.03.98,1.58,1.59,2.17,2.58,3.7,5.63,4.54,9.07.37,1.67.99,5.99-1.28,10.13h-.03c-.55,1.14-2.45,3.64-4.74,5.16-.86.57-1.74,1.04-2.67,1.44-2.24,1.09-5.14,1.98-8.59,2.65-.82.16-1.75.32-2.76.45-.23.04-.47.06-.71.09-.21,1.94-.33,3.89-.35,5.84.65.34,1.16.78,1.56,1.33.26.36,1.11,1.67,1.09,3.26-.01,1.3-.66,2.47-1.93,3.47-.1.08-.21.15-.31.22.08.71.17,1.39.27,2.03.26,1.68.67,4.03,1.4,6.8.3,1.12.62,2.23.98,3.33,2.27,7.01,5.81,12.08,12.16,15.45h.01c.38.21.77.39,1.14.56.14.06.27.11.39.17.26.11.51.21.77.31.15.06.3.11.46.16.23.09.47.17.7.23.16.05.32.1.47.14.23.06.47.13.7.18.16.04.32.07.48.11.23.05.48.1.71.14.16.02.32.05.48.07.24.04.5.07.76.1.15.02.3.04.45.05.31.03.61.04.93.06.1.01.2.02.31.02.42.02.84.02,1.28.03.03,0,.07-.01.12-.01.62,0,1.26-.02,1.9-.05.1,0,.18,0,.27-.01.66-.03,1.34-.09,2.03-.15.14-.01.27-.02.4-.03.69-.06,1.41-.14,2.16-.22.14-.01.28-.03.42-.04.77-.09,1.55-.18,2.38-.28,2.3-.28,4.83-.59,7.37-1.01,1.27-.22,2.54-.47,3.8-.77,1.88-.44,3.72-.98,5.43-1.66,1.14-.46,2.22-.98,3.21-1.59.13-.08.24-.17.37-.25-2.09-1.59-4.22-3.66-5.95-6.36Z"/>
      <path class="cls-2" d="m57.41,26.54s-1.57,2.9-4.42,4.79c-.81.53-1.63.98-2.53,1.35-1.83.9-4.47,1.83-8.36,2.57-.82.16-1.73.31-2.71.45-.49.09-1,.15-1.54.2-.79.09-1.65.17-2.53.23-.56.03-1.15.07-1.76.1-.03.01-.06.01-.1.01h-.05c-.62.02-1.26.03-1.91.04-1.09.01-2.19,0-3.37-.05-.04,0-.09-.01-.13,0-.93-.05-1.88-.11-2.87-.19-1.88-.16-3.86-.43-5.95-.79.57,2.09,1.34,6.17,1.93,8.24l.52.02c.35.02.74.03,1.15.04h.68c.28,0,.57,0,.87-.01.34,0,.7-.01,1.07-.03.4,0,.83-.03,1.27-.05.72-.04,1.14-.1,1.53-.13,1.35-.12,2.61-.22,3.76-.31.52-.03,1.03-.05,1.52-.06.24-.01.49-.01.73-.01s.47,0,.69.01c.5.02.98.06,1.4.13.64.12,1.2.28,1.68.52.48.26.88.59,1.2,1.02.39.54.9,1.56.89,2.63,0,.64-.22,1.62-1.53,2.65-1.65,1.32-3.66,1.62-7.74,1.71-.99.03-2.09.05-3.29.05-1.57,0-3.32-.03-5.22-.11.36,1.43,1.89,6.43,2.37,9.79.47,3.2.98,6.64.7,9.81-.38,4.43-2.52,7.78-6.97,8.78h-.01c-.88.19-1.79.3-2.69.32h-.31c-.19,0-.39,0-.6-.01-2.81-.13-5.59-1.14-7.72-3.09-.3-.27-.59-.57-.86-.88-.61-.69-1.15-1.48-1.61-2.35-2.19-4.3-2.22-9.11-2.65-13.53-.48-5.01-.99-10.04-1.41-15.05-.45-5.24-.78-10.51-.33-15.66.29-3.29.9-7.17,3.08-11.5,3.71-7.39,9.79-10.95,13.11-12.82C23.67,1.24,30.41.66,32.13.54c.82-.05,1.68-.1,2.62-.1.32,0,.66,0,1,.01.7.02,1.44.07,2.22.16.44.05.88.1,1.34.16.82.13,1.68.29,2.6.49,7.81,1.73,12.37,7.28,12.37,7.28,2.54,3.03,3.73,6.24,4.32,8.62.23,1.09,1.05,5.32-1.18,9.38Z"/>
    </g>
  </g>
  <g>
    <path class="cls-1" d="m264.94,95.54c-.3-.03-.57-.11-.82-.23-.25-.12-.45-.28-.62-.48-.17-.19-.29-.41-.36-.66-.07-.25-.09-.5-.05-.77.04-.27.14-.51.28-.73.14-.22.33-.41.55-.56.22-.16.47-.27.74-.35.27-.07.56-.1.86-.07.28.03.53.08.72.16.19.08.38.21.57.38.03.02.05.04.06.07.01.02.02.05.02.06,0,.02,0,.05,0,.08,0,.06-.04.11-.1.15-.06.03-.12.05-.19.05-.07,0-.14-.03-.2-.08-.12-.12-.25-.21-.39-.28-.14-.07-.33-.11-.57-.14-.22-.02-.43,0-.63.06-.2.06-.39.15-.55.27-.17.12-.3.27-.41.44-.11.17-.18.35-.21.56-.03.21-.02.4.03.59.05.19.15.35.27.5.13.15.28.27.46.37s.38.15.6.18c.19.02.37,0,.55-.03.18-.04.35-.1.52-.19.07-.03.14-.05.21-.04s.12.04.16.08c.04.04.05.1.04.17,0,.03-.02.06-.04.09-.02.03-.05.06-.08.08-.22.12-.45.2-.69.25-.24.05-.49.06-.74.03Z"/>
    <path class="cls-1" d="m271.3,95.83c-.33,0-.63-.05-.9-.14-.27-.1-.5-.23-.69-.41-.19-.17-.34-.38-.44-.62-.1-.24-.15-.5-.14-.79.01-.29.07-.55.19-.79.12-.24.28-.45.48-.62.2-.18.44-.31.72-.41.27-.1.58-.15.91-.16.33,0,.63.04.89.13.27.09.5.23.69.4.19.17.34.38.44.62.1.24.15.5.14.79s-.07.56-.19.8c-.11.24-.28.45-.48.63-.2.18-.44.32-.72.41-.28.1-.58.15-.91.15Zm.02-.47c.24,0,.47-.04.68-.12.21-.08.39-.19.54-.33s.27-.3.36-.48c.09-.18.13-.39.14-.6,0-.21-.03-.41-.1-.59-.08-.18-.19-.34-.33-.48-.15-.13-.32-.24-.52-.31-.2-.07-.42-.11-.67-.1s-.47.04-.67.12c-.21.08-.39.19-.54.32-.15.14-.27.3-.36.48-.09.18-.14.38-.14.59,0,.21.03.41.1.59.08.18.19.34.33.48.14.13.32.24.52.32.2.08.43.11.67.11Z"/>
    <path class="cls-1" d="m276.69,95.55c-.08.01-.15,0-.22-.05-.06-.04-.09-.1-.1-.17-.12-1.34-.19-2.01-.31-3.34,0-.08.01-.14.07-.19.05-.06.12-.09.2-.1.11-.01.2.02.27.1.81,1.14,1.22,1.71,2.04,2.87-.07,0-.11.01-.18.02.56-1.33.84-2,1.4-3.32.05-.1.13-.16.24-.17.08-.01.15,0,.21.04.06.04.09.1.1.17.13,1.33.2,2,.34,3.35,0,.07-.02.14-.07.19-.05.06-.12.09-.2.1-.08,0-.15,0-.22-.05-.06-.04-.09-.1-.1-.17-.11-1.06-.16-1.59-.26-2.64.04-.02.07-.02.11-.04-.48,1.13-.72,1.7-1.21,2.83-.06.09-.14.15-.24.16-.12.02-.22-.03-.28-.12-.68-.96-1.02-1.43-1.69-2.38.04-.02.07-.02.11-.04.1,1.05.15,1.57.25,2.63,0,.07-.02.14-.07.2-.05.05-.12.09-.2.1Z"/>
    <path class="cls-1" d="m284.14,94.37c-.08.02-.15.01-.22-.02-.06-.03-.11-.09-.12-.16-.31-1.32-.46-1.98-.76-3.28-.02-.07,0-.14.04-.2.04-.06.11-.1.19-.12.11-.03.2,0,.28.07.96,1.03,1.44,1.54,2.41,2.58-.07.02-.1.03-.17.05.38-1.4.57-2.09.94-3.47.04-.11.11-.17.22-.2.08-.02.15-.01.22.02.06.03.11.08.12.16.31,1.3.47,1.96.78,3.28.02.07,0,.14-.04.2-.04.06-.11.11-.18.13-.08.02-.15.01-.22-.02-.07-.03-.11-.09-.12-.16-.25-1.04-.37-1.56-.62-2.59.04-.02.06-.03.1-.05-.32,1.18-.49,1.78-.81,2.97-.04.1-.12.17-.22.19-.12.03-.22,0-.3-.08-.8-.86-1.2-1.29-2-2.15.04-.02.06-.03.1-.05.24,1.03.36,1.55.6,2.59.02.07,0,.14-.04.2-.04.06-.11.11-.19.13Z"/>
    <path class="cls-1" d="m292.79,91.7c-.33.14-.65.2-.95.19-.3,0-.56-.08-.78-.22-.22-.14-.37-.33-.47-.58-.33-.87-.49-1.3-.82-2.17-.03-.07-.02-.14.01-.21.03-.07.09-.11.17-.15.08-.03.15-.04.22-.01.07.02.11.07.14.14.33.86.49,1.3.82,2.17.06.17.17.3.32.38.15.09.32.13.53.14.2,0,.42-.04.64-.14.22-.09.4-.21.54-.35.14-.14.23-.3.28-.46.05-.17.04-.34-.03-.5-.33-.87-.5-1.3-.83-2.16-.03-.07-.02-.14.01-.2.03-.06.09-.11.17-.14.08-.03.15-.03.22-.01.07.03.11.07.14.14.33.86.5,1.29.83,2.16.1.25.11.5.05.76-.07.25-.2.49-.41.7-.21.21-.47.38-.8.51Z"/>
    <path class="cls-1" d="m297.43,89.49c-.07.04-.14.05-.21.03-.07-.02-.12-.06-.16-.12-.63-1.19-.94-1.78-1.56-2.96-.03-.07-.04-.14-.02-.2.03-.07.07-.12.14-.16.08-.04.16-.05.24-.03,1.38.54,2.08.81,3.47,1.35-.51-.96-.77-1.43-1.27-2.38-.03-.07-.04-.13-.01-.2.03-.07.07-.12.15-.16.07-.04.15-.05.21-.04s.12.06.15.12c.63,1.17.94,1.76,1.58,2.94.04.07.04.13.02.2-.02.07-.07.12-.15.17-.03.02-.07.03-.11.04-.04,0-.09,0-.12,0-1.39-.54-2.09-.81-3.47-1.35.5.95.76,1.43,1.27,2.39.03.06.04.13.02.2-.02.07-.07.13-.15.17Z"/>
    <path class="cls-1" d="m302.99,86.13c-.07.05-.14.06-.21.05-.07-.01-.13-.04-.17-.11-.74-1.12-1.1-1.67-1.83-2.78-.04-.06-.05-.13-.03-.2.02-.07.06-.13.13-.17.07-.05.14-.07.21-.06.07,0,.13.05.17.11.73,1.1,1.1,1.66,1.84,2.78.04.06.05.13.03.2-.02.07-.06.13-.13.18Z"/>
    <path class="cls-1" d="m307.1,83.1c-.23.19-.47.32-.74.4-.26.08-.52.12-.78.1-.26-.02-.51-.09-.74-.21s-.43-.29-.61-.51c-.17-.21-.29-.45-.35-.7-.06-.25-.08-.51-.04-.77.04-.26.13-.51.26-.75.13-.24.32-.45.55-.64.22-.17.42-.3.62-.37.2-.08.43-.11.67-.13.03,0,.07,0,.09,0,.03,0,.05.02.06.03.02.01.03.03.05.05.04.05.05.1.04.17-.01.06-.04.12-.09.16-.05.05-.12.07-.19.08-.16,0-.33.03-.47.07-.14.05-.31.14-.49.29-.17.13-.3.29-.4.47-.1.18-.16.37-.19.57-.03.2-.01.39.04.59.05.19.14.37.27.53.13.16.28.29.46.38.18.09.36.14.56.16.2.02.39,0,.59-.06.2-.06.38-.16.54-.29.14-.12.26-.25.36-.4.09-.15.17-.31.22-.49.02-.07.06-.13.11-.17.05-.04.11-.05.17-.05.06,0,.11.03.16.09.02.02.04.05.04.09,0,.03,0,.07,0,.11-.06.23-.16.45-.29.64-.13.2-.29.37-.48.53Z"/>
    <path class="cls-1" d="m310.09,80.42c-.07.07-.15.1-.25.08-.09-.02-.16-.07-.19-.17-.49-1.37-.74-2.04-1.22-3.4-.04-.12-.02-.22.07-.3.09-.09.19-.11.3-.06,1.34.5,2.02.76,3.36,1.27.09.04.15.1.16.19.02.09-.01.17-.09.24-.04.04-.08.06-.14.08-.05.01-.11.01-.15,0-1.22-.48-1.83-.72-3.04-1.2.04-.04.06-.06.11-.11.46,1.23.69,1.85,1.15,3.09.02.05.02.11,0,.16-.02.05-.04.1-.08.13Zm-.39-.8c-.06-.18-.09-.27-.14-.45.6-.6.89-.89,1.49-1.48.18.06.27.09.45.15-.71.71-1.07,1.07-1.79,1.78Z"/>
    <path class="cls-1" d="m311.08,74.61c-.05.06-.1.09-.17.1-.06,0-.12-.01-.17-.05-.05-.04-.08-.1-.08-.16,0-.07.02-.13.07-.18.73-.86,1.09-1.29,1.81-2.14.05-.05.1-.09.17-.09.06,0,.12.01.17.05.05.04.08.1.08.16,0,.06-.02.12-.07.18-.72.85-1.08,1.28-1.81,2.14Zm3.43,1.08c-.05.06-.11.09-.18.1-.07,0-.13,0-.19-.06-1.08-.92-1.62-1.38-2.69-2.29.14-.17.21-.25.35-.42,1.07.91,1.61,1.37,2.69,2.29.05.05.08.1.09.18,0,.07-.02.14-.07.2Z"/>
    <path class="cls-1" d="m317.12,72.36c-.04.06-.1.1-.17.11-.07.01-.13,0-.19-.04-1.06-.78-1.58-1.17-2.63-1.94-.06-.04-.09-.1-.1-.17,0-.07.01-.14.06-.2.05-.06.1-.1.17-.11.07-.01.13,0,.19.04,1.05.78,1.57,1.16,2.63,1.94.06.04.09.1.1.17,0,.07,0,.14-.05.2Z"/>
    <path class="cls-1" d="m319.81,68.39c-.15.25-.33.46-.54.62-.21.16-.43.27-.67.33-.24.06-.48.07-.73.03-.25-.04-.5-.14-.73-.29-.24-.15-.43-.33-.58-.54-.15-.21-.25-.44-.3-.68-.05-.24-.05-.5,0-.76.05-.26.15-.52.3-.77.15-.25.34-.46.54-.61.21-.16.43-.26.66-.32.24-.06.48-.07.73-.03.25.04.49.14.73.29.24.15.43.33.58.54.15.21.25.43.3.68.05.24.06.49.01.75-.05.26-.14.51-.3.76Zm-.38-.24c.11-.19.18-.38.22-.57.03-.2.02-.39-.02-.57-.04-.18-.12-.36-.24-.51-.11-.16-.26-.29-.44-.4-.18-.11-.36-.18-.55-.22-.19-.03-.37-.03-.56.01-.18.04-.35.12-.51.24-.16.12-.29.27-.41.45-.11.19-.19.38-.22.58-.03.2-.03.39.02.57.04.18.12.36.23.52.11.16.26.29.43.41.18.11.36.18.55.22.19.03.38.03.56-.02.18-.04.35-.12.51-.24.16-.12.3-.27.41-.46Z"/>
    <path class="cls-1" d="m322.07,64.21c-.03.07-.08.11-.14.13-.06.02-.13.02-.19-.02-1.15-.6-1.73-.89-2.88-1.48-.07-.03-.11-.08-.13-.15-.02-.06-.02-.13.01-.19.03-.07.09-.12.16-.14,1.35-.27,2.02-.4,3.37-.66-.93-.48-1.39-.72-2.32-1.2-.07-.03-.11-.08-.13-.15-.02-.07-.01-.13.02-.19.03-.07.08-.11.14-.13.06-.02.12-.01.19.02,1.14.59,1.72.89,2.87,1.49.06.03.11.08.13.14.02.06.02.13-.01.19-.01.03-.04.06-.06.08-.03.03-.06.04-.1.05-1.35.25-2.02.38-3.37.65.93.48,1.39.72,2.32,1.2.06.03.11.08.13.15.02.07.02.13-.01.2Z"/>
  </g>
</svg>