<?xml version="1.0" encoding="UTF-8"?>
<svg id="Calque_1" data-name="Calque 1" xmlns="http://www.w3.org/2000/svg" viewBox="0 0 289.44 70.32">
  <defs>
    <style>
      .cls-1 {
        fill: #152138;
        stroke-width: 0px;
      }
    </style>
  </defs>
  <path class="cls-1" d="m270.14,40.65c-.75-1.12-.97-2.57-.78-3.92.95-6.58,8.64-10.12,14.67-8.76,1.78.4,3.55,1.24,4.56,2.76,1.37,2.06.99,4.94-.44,6.97-1.42,2.02-3.68,3.31-6,4.16-2.4.88-4.98,1.37-7.52,1.09-1.52-.17-3.08-.67-4.11-1.8-.14-.16-.27-.32-.38-.49Z"/>
  <path class="cls-1" d="m137.73,10.93c-1.43,2.02-3.69,3.3-6.01,4.16-1.94.71-3.99,1.17-6.05,1.17-.49,0-.97-.03-1.46-.08-1.53-.17-3.09-.66-4.11-1.79-.15-.16-.28-.32-.39-.5-.75-1.11-.97-2.57-.78-3.92.07-.53.19-1.04.36-1.53.1-.33.23-.64.37-.95.35-.77.8-1.48,1.33-2.12.21-.26.43-.51.67-.74.24-.24.49-.47.74-.68.26-.22.52-.42.81-.62,2.23-1.56,5.02-2.41,7.74-2.41.44,0,.89.03,1.33.07.44.05.87.11,1.31.21,1.77.4,3.55,1.25,4.56,2.76,1.37,2.06.98,4.95-.43,6.97Z"/>
  <path class="cls-1" d="m263.31,44.5c-.06-.4-.13-.79-.22-1.18-.19-.87-.44-1.71-.76-2.49-.35-.84-.77-1.62-1.26-2.29-1.12-1.51-2.48-2.75-3.95-3.77-.88-.61-1.81-1.14-2.76-1.59-.37-.18-.74-.35-1.11-.5-.37-.16-.75-.31-1.12-.45-.75-.28-1.51-.53-2.28-.76-.38-.11-.77-.22-1.15-.32-.77-.2-1.55-.38-2.33-.55-.39-.08-.78-.17-1.17-.25-.78-.16-1.57-.31-2.36-.46-2.36-.45-4.72-.89-7.04-1.54-.07-.02-.13-.05-.18-.09-.15-.12-.22-.33-.21-.53,0-.07.02-.13.04-.2.06-.19.2-.34.42-.37,4.57-.58,9.13-1.64,12.72-5.32,2.05-2.09,3.47-4.97,3.65-8.17.02-.44.03-.86,0-1.28-.06-1.24-.3-2.37-.69-3.4-.13-.34-.28-.67-.44-.99-.32-.64-.71-1.23-1.14-1.78-.43-.55-.91-1.05-1.43-1.51s-1.07-.88-1.65-1.25c-1.45-.93-3.06-1.6-4.65-2.01-.98-.25-1.69-.4-2.52-.5-.1-.01-.24-.03-.39-.04-.02,0-.04,0-.06,0-.15-.02-.34-.03-.53-.05-.03,0-.06,0-.09,0-.2-.02-.42-.03-.66-.04-.04,0-.08,0-.12,0-.24-.01-.5-.02-.77-.02-.05,0-.09,0-.14,0-.26,0-.53,0-.82,0-.05,0-.1,0-.15,0-.32,0-.65.03-1,.05-.1,0-.2.02-.29.02-.27.02-.55.05-.84.08-.11.01-.22.02-.33.04-.38.05-.78.11-1.18.18-.03,0-.06.01-.09.02-.37.07-.76.15-1.15.24-.12.03-.25.06-.38.09-.33.08-.66.17-1,.27-.11.03-.23.06-.34.1-.44.14-.88.29-1.33.46-.09.03-.18.08-.27.11-.37.15-.73.3-1.1.47-.14.06-.27.13-.41.2-.38.19-.76.39-1.15.6-.08.05-.17.09-.25.14-.46.26-.91.55-1.37.86-.12.08-.24.17-.36.25-.35.25-.7.51-1.06.79-.13.1-.26.21-.4.32-.46.38-.91.77-1.36,1.21,0,0-.02.02-.02.02.07.08.15.15.21.24.42.52.8,1.07,1.15,1.65.19.31.41.7.66,1.19.5,1,.89,2.04,1.15,3.09.36,1.45.49,2.92.38,4.38-.31,4.08-2.43,7.79-6.12,10.72-1,.79-2.12,1.47-3.32,2.02.09.16.16.33.26.49,1.75,2.9,4.63,4.38,7.48,5.26,1.71.52,3.4.83,4.83,1.08,3.61.65,8.18.62,8.38,2.12,0,.08,0,.14,0,.2,0,.06-.02.12-.04.16-.28,1.04-1.69,1.45-3.68,1.78-.5.08-1.03.16-1.59.24s-1.14.17-1.75.26c-1.2.19-2.48.44-3.75.8-3.39.96-6.78,1.92-9.08,5.3-.03.04-.05.08-.08.13.54.43,1.05.88,1.52,1.38,2.55,2.7,3.87,5.66,3.92,8.81,0,.23,0,1.45-.37,3.01-.19.77-.44,1.51-.74,2.2-.09.19-.18.38-.28.58-.21.4-.44.79-.69,1.15-.18.27-.4.54-.66.83,2.05,1.51,4.49,2.41,6.9,2.91.45.09.91.17,1.37.24.15.02.29.04.44.06.31.04.63.08.95.12.17.02.33.03.5.05.31.03.61.05.92.07.16,0,.31.02.47.03.37.02.74.02,1.11.03.09,0,.18,0,.27,0,.5,0,1-.02,1.5-.04.14,0,.27-.02.41-.02.39-.02.78-.05,1.17-.09.13-.01.27-.02.4-.04.5-.05,1-.11,1.5-.18.06,0,.13-.02.19-.03.44-.07.88-.14,1.32-.22.14-.03.29-.05.43-.08.41-.08.81-.16,1.22-.25.1-.02.2-.04.3-.06.49-.11.99-.23,1.48-.36.12-.03.25-.07.37-.1.38-.1.77-.21,1.15-.32.14-.04.28-.08.42-.13.48-.15.97-.3,1.45-.46,0,0,0,0,.01,0,1.73-.58,3.53-1.28,5.29-2.14.44-.21.88-.44,1.31-.67.87-.46,1.73-.97,2.57-1.51.84-.55,1.65-1.13,2.43-1.77.78-.63,1.52-1.32,2.23-2.05.35-.36.69-.74,1.02-1.13.65-.78,1.26-1.61,1.8-2.5.54-.89,1.03-1.83,1.44-2.82.11-.27.21-.54.3-.82.46-1.42.7-3.02.73-4.66.01-.98-.05-1.97-.19-2.94Z"/>
  <path class="cls-1" d="m134.25,22.47c-.22-.17-.44-.32-.67-.47-.07-.05-.15-.09-.22-.13-.16-.1-.33-.2-.5-.29-.09-.05-.17-.09-.26-.13-.17-.09-.35-.17-.53-.25-.08-.04-.16-.07-.24-.11-.25-.1-.5-.2-.76-.28,0,0-.02,0-.02,0-.27-.09-.54-.16-.81-.23-.09-.02-.17-.04-.26-.06-.19-.04-.38-.08-.58-.12-.1-.02-.2-.03-.29-.05-.19-.03-.39-.05-.58-.07-.09,0-.18-.02-.27-.03-.27-.02-.53-.03-.8-.03-.01,0-.03,0-.04,0-.33,0-.65.02-.98.05-.08,0-.16.02-.24.02-.32.04-.64.08-.96.15,0,0,0,0,0,0-.32.07-.63.15-.93.25-.08.02-.15.05-.23.08-.31.1-.61.22-.9.36-1.34.62-2.43,1.55-3.34,2.69-.6.76-1.12,1.62-1.56,2.56-.66,1.41-1.16,2.98-1.54,4.66-.25,1.12-.45,2.27-.6,3.45-.41,3.11-.54,6.34-.63,9.33.03.01.05.03.08.04.41.22.78.44,1.13.67.22.14.58.38,1.05.72,1.05.77,1.99,1.62,2.79,2.53.66.74,1.23,1.52,1.69,2.31.96,1.65,1.5,3.39,1.58,5.19.02.35.02.7,0,1.04-.09,1.99-.68,3.95-1.77,5.81-.81,1.38-1.85,2.64-3.07,3.74.65.8,1.42,1.5,2.31,2.09,0,0,0,0,0,0,.2.13.4.25.61.36.07.04.14.07.21.11.15.08.3.15.45.22.08.04.17.08.25.11.15.06.3.13.45.19.09.03.17.07.26.1.16.06.33.11.5.17.07.02.15.05.22.07.24.07.49.14.74.19.03,0,.06.01.1.02.22.05.44.09.66.12.09.01.17.02.26.03.17.02.34.04.52.06.1,0,.19.01.29.02.17.01.34.02.51.02.09,0,.17,0,.26,0,.32,0,.64-.02.96-.05.06,0,.12-.01.18-.02.29-.03.58-.08.87-.14.05-.01.1-.02.15-.03.31-.07.62-.16.92-.27.07-.02.13-.05.2-.07.31-.11.62-.24.91-.39,6.08-3.1,6.38-12.7,6.76-24.62.34-10.83.57-17.97-4.28-21.69Z"/>
  <path class="cls-1" d="m160.84.06c-.31.02-.6.06-.91.1-.27.03-.53.05-.79.09-.3.05-.6.11-.9.17-.25.05-.5.09-.74.15-.3.07-.59.16-.89.24-.23.07-.47.12-.7.2-.3.1-.59.21-.88.32-.22.08-.44.15-.65.24-.29.12-.58.26-.87.39-.2.09-.41.18-.61.28-.29.14-.57.3-.85.46-.19.1-.38.2-.57.31-.28.17-.56.35-.84.53-.17.11-.35.22-.52.34-.28.19-.55.4-.83.61-.16.12-.32.23-.47.35-.28.22-.54.45-.81.68-.14.12-.29.24-.44.37-.27.24-.53.5-.79.76-.13.13-.27.25-.4.38-.26.27-.52.55-.77.83-.12.13-.24.25-.36.39-.26.29-.5.6-.75.9-.11.13-.22.26-.33.39-.25.31-.49.64-.73.96-.1.13-.2.26-.3.4-.24.33-.47.68-.7,1.02-.09.13-.18.26-.27.4-.23.35-.44.71-.66,1.07-.08.14-.17.27-.25.41-.22.37-.42.75-.63,1.12-.07.14-.15.27-.22.4-.21.39-.41.79-.6,1.18-.06.13-.13.26-.2.39-.19.4-.37.8-.56,1.21-.06.14-.13.27-.19.41-.18.4-.34.81-.51,1.22-.06.14-.12.29-.18.43-.17.42-.32.84-.48,1.27-.05.14-.11.27-.16.41-.15.42-.29.85-.43,1.27-.05.14-.1.29-.15.43-.03.11-.06.21-.1.32,2.32,3.2,2.79,7.76,2.76,13.8-.01,2.01-.08,4.19-.15,6.54-.18,5.7-.35,10.84-1.12,15.05.18.32.36.63.56.94.3.47.62.93.96,1.37,1,1.33,2.15,2.54,3.43,3.57,3.35,2.69,7.47,4.04,11.62,4.46.59.06,1.19.1,1.78.13.47.02.94.02,1.42.02.23,0,.46-.01.7-.02.29,0,.57-.02.86-.03.23-.01.47-.03.7-.05.28-.02.57-.05.85-.08.24-.03.47-.06.71-.09.28-.04.56-.07.84-.12.24-.04.47-.08.7-.12.28-.05.55-.1.83-.16.23-.05.47-.1.7-.15.27-.06.55-.13.82-.2.23-.06.46-.12.69-.19.27-.08.54-.16.81-.24.23-.07.45-.14.68-.22.27-.09.53-.18.8-.28.22-.08.45-.16.67-.25.26-.1.53-.21.79-.32.22-.09.44-.18.65-.28.26-.12.52-.24.78-.36.21-.1.42-.2.63-.31.26-.13.52-.27.77-.41.2-.11.41-.22.61-.33.26-.15.51-.3.77-.45.19-.12.39-.23.58-.35.26-.16.51-.33.76-.5.18-.12.37-.24.55-.37.26-.18.52-.37.77-.57.17-.12.33-.24.5-.37.28-.22.55-.44.82-.67.13-.11.27-.22.4-.33.4-.34.8-.7,1.18-1.06,3.15-2.97,5.89-6.92,5.97-11.46.03-1.61-.33-3.21-.97-4.68-.26-.59-.57-1.15-.91-1.69-.35-.54-.74-1.04-1.16-1.51-1.48-1.64-3.39-2.84-5.48-3.25-.34-.07-.67-.11-1.01-.15-.11-.01-.23-.01-.34-.02-.22-.01-.45-.03-.67-.03h0s-.04,0-.06,0c-.04,0-.07,0-.11,0-.39,0-.78.03-1.16.07-.11.01-.22.02-.33.04-.43.05-.85.12-1.28.2-.03,0-.07.02-.1.02-.4.08-.81.18-1.2.28-.11.03-.22.06-.33.09-.42.11-.83.23-1.24.36-2.69.84-5.3,1.91-7.83,3.15-.85.41-1.68.85-2.51,1.3-3.32,1.8-6.51,3.88-9.58,6.12h0c.34-4.45.68-8.9,1.01-13.35,0-.06,0-.12.01-.18.42.1.83.18,1.25.26.13.02.27.04.4.07.29.05.58.09.88.13.15.02.31.04.46.05.28.03.57.05.85.07.15.01.3.02.44.03.32.02.64.02.97.03.1,0,.21,0,.31,0,.47,0,.93-.02,1.4-.05.12,0,.24-.02.36-.03.36-.03.73-.06,1.09-.11.13-.02.26-.03.38-.05.46-.07.92-.14,1.38-.23.05,0,.09-.02.14-.03.41-.09.82-.19,1.23-.3.13-.04.26-.07.39-.11.36-.1.72-.22,1.07-.34.09-.03.19-.06.28-.1.43-.16.86-.33,1.29-.52.1-.05.2-.09.31-.14.33-.15.66-.31.99-.49.12-.06.24-.12.35-.19.41-.23.82-.46,1.22-.71,1.25-.8,2.42-1.76,3.49-2.83.46-1.85,1-3.65,1.64-5.39,1.45-3.95,3.08-7.17,4.72-9.79,0-2.48-.49-4.97-1.58-7.18C173.9,3.03,168.18.04,162.69,0h0c-.33,0-.65.02-.97.03,0,0-.02,0-.03,0-.28.01-.57.01-.85.03Z"/>
  <g>
    <path class="cls-1" d="m191.83,35.65c.25-.3.56-.68.9-1.09.51-.62,1.08-1.31,1.6-1.95.24-.3.5-.6.83-.77.11-.05.22-.08.33-.11.08-.02.15-.03.23-.04.07,0,.15-.02.23-.02.02,0,.04,0,.06,0,.17,0,.34,0,.51.02,1.43.1,2.88.15,4.32.15,1.78,0,3.57-.07,5.35-.22.41-.03,1.7-.03,3.41-.33,2.2-.38,5.09-1.25,7.69-3.31.98-.78,5.33-4.23,5.77-10.07.31-4.07-1.45-7.09-2.06-8.12-2.7-4.48-6.99-6.1-9.4-6.83-.66-.2-1.34-.37-2.01-.52-.23-.05-.47-.08-.7-.13-.41-.08-.82-.16-1.23-.22-.03,0-.06-.01-.09-.02,0,0-.01,0-.02,0-.27-.04-.55-.06-.82-.09-.18-.02-.36-.04-.54-.06-.23-.02-.46-.06-.69-.07,0,0,0,0-.01,0-.29-.02-.59-.02-.88-.03-.06,0-.13,0-.19,0-.31-.01-.63-.03-.94-.03h-.16s-.06,0-.09,0c-.56,0-1.12.03-1.68.07-.22.01-.43.03-.65.05-.39.03-.79.08-1.18.13-.23.03-.45.06-.68.09-.49.07-.98.16-1.46.26-.21.04-.41.09-.62.13-.46.1-.91.22-1.36.34-.24.07-.47.14-.7.21-.35.11-.7.22-1.04.34-.24.08-.48.16-.72.25-.38.14-.77.3-1.14.46-1.41.59-2.78,1.28-4.09,2.1-6.47,4.03-11.07,12.22-13.69,19.34-.72,1.96-1.31,3.97-1.79,6.01-.49,2.03-.86,4.09-1.11,6.16.31-.08.61-.15.9-.21l.08-.02c.41-.08.85-.15,1.34-.21.11-.01.22-.02.35-.04.44-.04.85-.07,1.29-.07.04,0,.09,0,.14,0h0c.22,0,.44.01.66.03h.07s.11,0,.11,0c.09,0,.17,0,.26.01.38.04.75.09,1.1.16,2.2.43,4.32,1.69,5.99,3.54.45.5.87,1.05,1.25,1.63.37.58.7,1.19.98,1.81.72,1.63,1.08,3.38,1.05,5.07-.1,5.23-3.46,9.47-6.26,12.11-.38.36-.79.73-1.21,1.09-.09.07-.17.14-.26.21l-.16.13-.06.05c-.26.21-.52.43-.79.64-.11.09-.22.17-.34.25l-.08.06c.21.19.42.39.64.58,4.3,3.71,8.83,4.31,16.31,5.1.62.07,1.26.13,1.91.2.19.02.39.04.58.06.65.06,1.32.13,1.99.18.07,0,.13.01.2.02.71.06,1.42.1,2.14.14.19,0,.37.02.56.02.64.03,1.29.04,1.93.05.12,0,.25,0,.37,0,.07,0,.15,0,.22,0,.44,0,.88-.01,1.32-.03.09,0,.18,0,.27-.01.48-.02.95-.06,1.43-.1.1,0,.2-.02.29-.03.45-.05.89-.1,1.33-.17.04,0,.08-.01.13-.02.46-.07.91-.16,1.36-.26.1-.02.2-.05.3-.07.44-.11.88-.23,1.3-.36.04-.01.07-.03.11-.04.39-.13.77-.28,1.15-.44.08-.04.17-.07.25-.11.39-.18.77-.37,1.13-.58.07-.04.13-.08.2-.12.33-.2.64-.41.94-.65.05-.04.1-.07.15-.12.32-.26.63-.54.92-.84.07-.07.13-.14.19-.21.29-.32.57-.65.82-1.02.12-.17.23-.35.34-.52.21-.35.39-.71.55-1.06,1.03-2.29,1.04-4.5,1.03-4.82-.04-2.47-.95-4.5-1.88-5.94-.21-.32-.41-.61-.61-.88s-.39-.49-.56-.7-.33-.37-.45-.51c-.06-.07-.12-.13-.17-.18-1.01-1.07-2.12-1.9-3.29-2.56-.58-.33-1.18-.61-1.79-.86-.91-.37-1.84-.65-2.77-.88-.62-.15-1.24-.27-1.85-.37-.31-.05-.61-.1-.92-.14-.61-.08-1.21-.15-1.79-.21-.58-.06-1.16-.11-1.71-.15-.39-.03-.82-.06-1.27-.08-.01,0-.02,0-.04,0-.44-.02-.92-.03-1.42-.03-.03,0-.05,0-.07,0-.47,0-.97.01-1.48.03-.14,0-.29.02-.44.02-.4.02-.81.05-1.23.09-.17.01-.34.03-.51.05-.54.06-1.1.12-1.68.21-.04,0-.07,0-.11.01-.61.09-1.24.21-1.89.34-.18.04-.37.08-.56.12-.49.11-.99.23-1.5.37-.2.05-.4.11-.61.16-.69.2-1.4.41-2.12.66,0-1.51-.01-3.01-.02-4.52,1.14-.05,2.21-.09,3.22-.12,1.01-.03,1.96-.06,2.83-.08,1.75-.04,3.22-.07,4.36-.09,5.04-.07,8.51,0,9.43-1.91.06-.11.11-.25.16-.41.1-.32.16-.71.14-1.12-.01-.21-.05-.42-.11-.63-.14-.46-.47-1.09-1.48-1.73-.14-.09-.3-.18-.48-.27-.12-.07-.25-.13-.38-.18-.03-.01-.07-.03-.1-.04-.13-.05-.25-.11-.38-.15,0,0-.01,0-.02,0-.14-.05-.28-.09-.43-.13-.04-.01-.07-.02-.11-.03-.14-.04-.28-.07-.43-.1-.01,0-.03,0-.04,0-.16-.03-.33-.06-.5-.08-.04,0-.09-.01-.13-.02-.16-.02-.33-.04-.5-.05-.02,0-.05,0-.07,0-.2-.02-.4-.03-.62-.04-.05,0-.11,0-.16,0-.2,0-.4,0-.61-.01-.04,0-.07,0-.11,0-.11,0-.23,0-.35,0-.08,0-.16,0-.24,0-.13,0-.26,0-.4.01-.08,0-.16,0-.24,0-.16,0-.33.01-.5.02-.07,0-.13,0-.19,0-.24.01-.49.03-.74.04-3.47.22-6.95.69-6.95.69,0,0,.11-.13.29-.35.09-.11.2-.24.33-.4Z"/>
    <path class="cls-1" d="m175.32,38.1s.04,0,.06,0h0s-.04,0-.06,0Z"/>
  </g>
  <path class="cls-1" d="m122.93,55.34c-.29-5.85-5.6-9.3-6.7-10.02-.75-.49-1.51-.89-2.27-1.21-.12-.05-.23-.08-.35-.13-.2-.08-.4-.16-.6-.23-.04-.01-.07-.02-.11-.04-.03,0-.05-.02-.08-.03-.04-.01-.07-.02-.11-.03-.04-.01-.09-.03-.13-.04-.12-.04-.24-.07-.36-.1-.11-.03-.21-.06-.32-.09-.13-.03-.25-.07-.38-.1-.08-.02-.16-.03-.24-.05-.1-.02-.19-.04-.29-.06-.05,0-.1-.02-.14-.03-.12-.02-.24-.05-.36-.07-.05,0-.1-.01-.15-.02-.03,0-.07,0-.1-.01-.18-.03-.37-.06-.55-.08-.07,0-.14-.02-.21-.03-.33-.04-.66-.06-.97-.08-.09,0-.18,0-.27,0-.23,0-.45-.02-.67-.02-.18,0-.37,0-.54,0-.07,0-.13,0-.2,0-.25,0-.49.02-.73.04-.05,0-.11,0-.16.01-.18.01-.36.03-.53.04-.08,0-.16.02-.24.02-.14.01-.28.03-.41.05-.08,0-.15.02-.23.03-.13.02-.25.03-.37.05-.07,0-.13.02-.2.03-.13.02-.25.04-.37.06-.05,0-.1.02-.14.02-.15.03-.3.05-.43.07-.45.08-.89.17-1.32.27-2.95.69-5.2,1.87-6.6,2.74,1.21-1.43,2.76-3.43,4.32-5.96h-.01c1.4-2.28,2.81-5,3.99-8.16,1.68-4.48,7.62-20.38-.18-28.06-.25-.25-.53-.49-.82-.72-.06-.05-.12-.1-.19-.15-.28-.22-.58-.44-.89-.64-.05-.03-.1-.06-.15-.09-.29-.18-.58-.35-.88-.52-.06-.03-.13-.07-.19-.1-.34-.17-.68-.33-1.03-.48-.08-.03-.15-.06-.23-.09-.34-.13-.68-.26-1.03-.37-.04-.01-.07-.02-.11-.04-.38-.11-.76-.21-1.15-.29-.09-.02-.18-.04-.27-.05-.39-.08-.78-.14-1.18-.18-.04,0-.08,0-.13,0-.37-.04-.74-.05-1.11-.06-.08,0-.17,0-.25,0-.41,0-.83.03-1.24.07-.08,0-.16.02-.24.03-.43.06-.86.13-1.28.23-2.78.68-5.08,2.34-7,4.66-1.37,1.66-2.54,3.65-3.55,5.86-.03.07-.06.15-.1.22.07.3.13.6.17.91.61,4.05-.63,8.13-3.57,11.81-.19.24-.41.46-.61.69-.09.43-.17.86-.25,1.29-.1.52-.19,1.04-.28,1.56-.81,4.67-1.33,9.19-1.75,12.88-.08.68-.14,1.33-.2,1.98,0,0,0,0,0,0,0,0,0,0,0,0-.6,6.66-.11,11.68,2.75,16.13,1.77,2.76,4.03,4.71,5.95,6.01,0,0,0,0,0,0,.39.27.76.5,1.12.71.03.02.05.03.08.05.33.2.64.37.93.53,0,0,0,0,0,0,.29.16.57.3.8.41,2.29,1.12,4.71,1.9,7.19,2.44.62.14,1.25.26,1.87.36.05,0,.09.01.14.02.8.13,1.61.24,2.42.34.2.02.39.05.59.07.85.09,1.7.17,2.56.22,1.08.06,2.17.11,3.26.11.24,0,.49-.02.73-.02.05,0,.1,0,.15,0,.05,0,.11,0,.16,0,.41-.01.82,0,1.22-.03.5-.03.99-.06,1.49-.12.5-.06.99-.12,1.49-.19.55-.09,1.09-.19,1.64-.31.67-.15,1.33-.33,1.99-.54.94-.31,1.87-.69,2.76-1.14,4.54-2.31,8.17-7.05,7.92-12.19Z"/>
  <path class="cls-1" d="m75.57,59.13c-2.95-4.59-3.44-9.72-2.97-15.82-.03,0-.06,0-.1,0-.1,0-.19,0-.29,0-.25,0-.51-.02-.75-.02h-.27c-.46,0-.91.02-1.37.05h-.07c-.48.03-.94.07-1.4.12-.09,0-.17.02-.26.03-.44.05-.87.09-1.3.15-.09.02-.18.03-.27.04-.42.06-.84.12-1.23.17-3.17.46-8.38,1.66-14.13,5.25-.34-1.47-.68-2.93-1.02-4.41,4.39-1.2,7.86-2.07,10.09-2.6.3-.08.61-.15.9-.22.59-.15,1.15-.29,1.68-.41.53-.14,1.04-.27,1.52-.4,1.67-.47,2.97-.96,3.78-1.61.46-.38.76-.81.88-1.32.12-.5.14-1.39-.29-2.15-.27-.47-.84-1.11-2.35-1.52-.25-.06-.5-.11-.75-.15-.08,0-.16-.02-.24-.03-.19-.02-.4-.03-.6-.04h-.5c-.22,0-.45.03-.7.06h-.02c-.25.03-.51.07-.78.12-.07,0-.14.03-.21.04-.29.06-.59.11-.91.19h-.02c-.32.07-.67.17-1.03.26-.1.03-.19.06-.29.08-.38.1-.76.21-1.19.34h-.02c-1.04.31-2.08.64-3.01.96-.38.13-.74.25-1.07.36-.66.23-1.24.44-1.67.6-.54.19-.86.31-.86.31,0,0,1.2-2.41,2.19-4.39.08-.17.17-.35.28-.51.1-.17.22-.31.37-.43.17-.15.39-.24.61-.3.23-.06.46-.11.69-.15,2.39-.38,4.75-.89,7.09-1.55.77-.21,1.55-.44,2.32-.69.56-.17,2.89-.69,5.45-2.17,1.54-.89,3.16-2.12,4.53-3.85.78-.97,4.25-5.31,3.38-11.1-.61-4.04-3-6.58-3.83-7.45-3.63-3.76-8.18-4.39-10.69-4.55-.6-.04-1.2-.06-1.79-.06h-.19c-.17,0-.33,0-.5.02-.47,0-.95.03-1.42.06-.22.02-.43.04-.64.06-.45.05-.89.1-1.34.17-.19.03-.39.06-.58.09-1.72.35-3.65.85-5.72,1.59-2.61.92-4.82,2-6.64,3.03.43.4.89.85,1.36,1.37,1.88,2.23,3.2,4.86,3.93,7.84.32,1.44.86,5.18-1.1,8.76h-.02c-.47.99-2.12,3.14-4.1,4.46-.75.5-1.5.9-2.31,1.24-1.94.94-4.44,1.71-7.43,2.29-.71.14-1.52.27-2.38.39-.2.03-.41.05-.61.08-.19,1.68-.28,3.36-.31,5.05.56.3,1,.67,1.35,1.15.23.31.96,1.44.95,2.82-.01,1.12-.57,2.13-1.67,3-.09.07-.18.13-.27.19.07.61.15,1.2.23,1.76.22,1.45.58,3.49,1.21,5.88.26.97.53,1.93.85,2.88,1.96,6.06,5.02,10.45,10.51,13.35h0c.33.18.66.34.98.49.12.06.23.09.34.15.22.09.44.18.66.27.13.06.26.09.4.14.2.07.4.15.61.2.14.05.28.08.4.12.2.06.4.11.61.16.14.04.28.06.41.09.2.05.41.08.62.12.14.02.28.05.41.06.21.04.43.06.65.08.13.02.26.04.39.05.27.03.52.04.8.06.08,0,.17.02.27.02.36.02.73.02,1.1.03.03,0,.06,0,.1,0,.53,0,1.09-.02,1.65-.05.08,0,.16,0,.23,0,.57-.03,1.16-.07,1.76-.13.12,0,.23-.02.35-.03.6-.06,1.22-.12,1.87-.19.12,0,.24-.03.36-.04.66-.07,1.34-.16,2.06-.24,1.99-.24,4.18-.51,6.37-.87,1.09-.19,2.2-.4,3.28-.66,1.63-.38,3.22-.85,4.69-1.43.98-.4,1.92-.85,2.78-1.37.11-.07.21-.14.32-.21-1.81-1.37-3.65-3.16-5.15-5.5Z"/>
  <path class="cls-1" d="m49.63,22.94s-1.36,2.51-3.82,4.14c-.7.46-1.41.85-2.19,1.17-1.58.78-3.86,1.58-7.23,2.23-.71.14-1.5.27-2.35.39-.42.07-.86.13-1.33.17-.68.07-1.43.15-2.19.2-.49.03-.99.06-1.52.08-.03,0-.06,0-.08,0h-.05c-.53.02-1.09.03-1.66.04-.94,0-1.89,0-2.92-.05-.04,0-.07,0-.11,0-.8-.05-1.63-.09-2.48-.17-1.63-.14-3.34-.37-5.14-.68.5,1.8,1.16,5.33,1.66,7.13l.45.02c.3.02.64.03.99.04h.59c.24,0,.5,0,.75,0,.29,0,.61,0,.93-.03.35,0,.72-.03,1.09-.05.63-.04.98-.08,1.32-.11,1.17-.1,2.25-.19,3.25-.27.45-.03.89-.05,1.32-.06.21,0,.42,0,.63,0s.4,0,.6,0c.43.02.85.06,1.21.11.55.1,1.04.24,1.45.45.41.22.76.51,1.04.88.34.47.78,1.35.77,2.27,0,.55-.19,1.4-1.32,2.29-1.43,1.14-3.16,1.4-6.7,1.48-.86.03-1.8.05-2.84.05-1.36,0-2.87-.03-4.52-.09.31,1.23,1.64,5.55,2.05,8.46.4,2.77.85,5.74.61,8.48-.33,3.83-2.18,6.72-6.02,7.59h0c-.76.17-1.55.26-2.33.28h-.27c-.17,0-.34,0-.52,0-2.43-.11-4.83-.98-6.68-2.67-.26-.23-.51-.5-.74-.76-.52-.6-.99-1.28-1.39-2.03-1.89-3.72-1.92-7.87-2.29-11.7-.41-4.33-.86-8.68-1.22-13.01-.39-4.53-.67-9.09-.28-13.54.25-2.84.78-6.2,2.67-9.94,3.21-6.39,8.46-9.46,11.33-11.08C20.46,1.07,26.29.57,27.77.47c.71-.05,1.45-.08,2.26-.08.28,0,.57,0,.86,0,.61.02,1.24.06,1.92.14.38.05.76.08,1.16.14.71.11,1.45.25,2.24.42,6.75,1.5,10.7,6.29,10.7,6.29,2.2,2.62,3.23,5.4,3.73,7.45.2.94.91,4.6-1.02,8.11Z"/>
</svg>