<?xml version="1.0" encoding="UTF-8"?>
<svg id="Calque_1" data-name="Calque 1" xmlns="http://www.w3.org/2000/svg" viewBox="0 0 289.24 84.41">
  <defs>
    <style>
      .cls-1 {
        stroke: #faf5cf;
        stroke-miterlimit: 10;
        stroke-width: .1px;
      }

      .cls-1, .cls-2 {
        fill: #faf5cf;
      }

      .cls-2 {
        stroke-width: 0px;
      }
    </style>
  </defs>
  <g>
    <path class="cls-2" d="m270.24,40c-.74-1.1-.96-2.53-.77-3.85.94-6.48,8.51-9.95,14.43-8.62,1.75.39,3.49,1.22,4.49,2.71,1.35,2.02.97,4.86-.43,6.85-1.4,1.99-3.62,3.25-5.91,4.09-2.36.87-4.9,1.35-7.4,1.07-1.5-.17-3.03-.65-4.04-1.77-.14-.15-.26-.31-.38-.48Z"/>
    <g>
      <path class="cls-2" d="m135.53,10.75c-1.4,1.99-3.63,3.25-5.91,4.09-1.91.7-3.93,1.15-5.95,1.15-.48,0-.96-.03-1.44-.08-1.5-.16-3.04-.65-4.05-1.76-.14-.15-.27-.32-.38-.49-.74-1.1-.96-2.52-.77-3.86.07-.52.19-1.02.35-1.5.1-.33.23-.63.36-.93.34-.76.79-1.46,1.31-2.09.21-.25.43-.5.66-.73.24-.24.48-.46.73-.67.25-.22.52-.42.8-.61,2.19-1.54,4.94-2.37,7.62-2.37.43,0,.88.03,1.31.07.43.05.86.11,1.29.21,1.75.4,3.49,1.23,4.49,2.71,1.35,2.03.97,4.87-.43,6.86Z"/>
      <path class="cls-2" d="m259.09,43.79c-.06-.39-.13-.78-.21-1.16-.19-.86-.43-1.68-.75-2.45-.34-.83-.76-1.59-1.24-2.25-1.1-1.49-2.44-2.71-3.89-3.7-.87-.6-1.78-1.12-2.71-1.57-.36-.17-.73-.34-1.09-.5-.37-.16-.73-.3-1.1-.44-.74-.28-1.49-.52-2.24-.75-.38-.11-.76-.22-1.14-.32-.76-.2-1.53-.38-2.29-.54-.38-.08-.77-.16-1.16-.24-.77-.16-1.55-.3-2.32-.45-2.32-.44-4.65-.87-6.93-1.51-.07-.02-.13-.05-.18-.09-.15-.12-.22-.33-.21-.52,0-.07.02-.13.04-.19.06-.18.2-.33.41-.36,4.5-.57,8.98-1.62,12.51-5.23,2.01-2.06,3.42-4.9,3.59-8.04.02-.43.03-.85,0-1.26-.06-1.22-.3-2.33-.68-3.35-.13-.34-.27-.66-.43-.98-.32-.63-.7-1.21-1.12-1.75-.43-.54-.9-1.04-1.41-1.49s-1.06-.86-1.63-1.23c-1.43-.92-3.01-1.57-4.58-1.98-.96-.25-1.66-.39-2.48-.49-.1-.01-.23-.03-.38-.04-.02,0-.04,0-.05,0-.15-.02-.33-.03-.52-.05-.03,0-.05,0-.08,0-.2-.02-.41-.03-.65-.04-.04,0-.08,0-.12,0-.24-.01-.49-.02-.76-.02-.04,0-.09,0-.14,0-.26,0-.53,0-.81,0-.05,0-.1,0-.15,0-.31,0-.64.03-.98.05-.09,0-.19.02-.29.02-.27.02-.54.05-.82.08-.11.01-.22.02-.33.04-.38.05-.76.1-1.16.18-.03,0-.06.01-.09.02-.37.07-.75.15-1.13.24-.12.03-.25.06-.37.09-.32.08-.65.17-.98.27-.11.03-.22.06-.33.1-.43.14-.87.29-1.3.45-.09.03-.18.07-.27.11-.36.14-.72.3-1.08.47-.13.06-.27.13-.41.19-.38.18-.75.38-1.13.59-.08.05-.16.09-.25.13-.45.26-.9.54-1.35.85-.12.08-.23.17-.35.25-.35.24-.69.5-1.04.78-.13.1-.26.2-.39.31-.45.37-.89.76-1.33,1.19,0,0-.02.01-.02.02.07.08.15.15.21.23.41.51.79,1.06,1.13,1.62.18.31.41.69.65,1.17.49.98.88,2.01,1.14,3.04.36,1.42.48,2.87.37,4.31-.31,4.01-2.39,7.66-6.02,10.54-.98.78-2.08,1.44-3.26,1.99.09.16.16.33.26.48,1.72,2.85,4.56,4.31,7.36,5.17,1.68.52,3.35.81,4.76,1.07,3.55.64,8.05.61,8.24,2.08,0,.07,0,.14,0,.2,0,.06-.02.11-.03.16-.27,1.02-1.67,1.43-3.62,1.75-.49.08-1.01.16-1.56.24s-1.12.16-1.72.26c-1.19.19-2.44.43-3.69.78-3.33.94-6.68,1.89-8.93,5.21-.03.04-.05.08-.08.12.53.42,1.04.87,1.5,1.36,2.51,2.65,3.81,5.57,3.86,8.67,0,.22,0,1.42-.36,2.96-.18.76-.43,1.49-.73,2.17-.08.19-.18.38-.27.57-.2.4-.43.78-.68,1.13-.18.26-.4.53-.64.82,2.02,1.49,4.42,2.37,6.79,2.86.45.09.9.17,1.34.24.14.02.29.04.43.06.31.04.62.08.93.11.16.02.33.03.49.05.3.03.61.05.91.07.15,0,.31.02.46.03.36.02.73.02,1.09.03.09,0,.18,0,.26,0,.49,0,.99-.01,1.48-.04.13,0,.27-.02.4-.02.38-.02.77-.05,1.15-.09.13-.01.27-.02.4-.04.49-.05.98-.11,1.48-.18.06,0,.13-.02.19-.03.43-.06.87-.14,1.3-.21.14-.03.28-.05.43-.08.4-.08.8-.16,1.2-.25.1-.02.19-.04.29-.06.49-.11.97-.23,1.45-.36.12-.03.24-.07.36-.1.38-.1.75-.21,1.13-.32.14-.04.28-.08.42-.12.48-.14.95-.29,1.42-.45,0,0,0,0,.01,0,1.71-.57,3.47-1.26,5.2-2.1.43-.21.87-.43,1.29-.66.86-.46,1.7-.95,2.52-1.49.82-.54,1.62-1.12,2.39-1.74.77-.62,1.5-1.29,2.19-2.01.34-.36.68-.73,1-1.11.64-.77,1.24-1.59,1.77-2.46.54-.87,1.01-1.8,1.42-2.78.11-.26.21-.53.3-.81.46-1.39.69-2.97.72-4.58.01-.97-.05-1.94-.19-2.9Z"/>
      <path class="cls-2" d="m132.1,22.11c-.21-.16-.43-.32-.66-.46-.07-.05-.14-.09-.22-.13-.16-.1-.33-.19-.49-.28-.08-.04-.17-.09-.25-.13-.17-.09-.34-.17-.52-.24-.08-.03-.16-.07-.24-.1-.25-.1-.49-.19-.75-.28,0,0-.02,0-.02,0-.26-.09-.53-.16-.79-.23-.08-.02-.17-.04-.25-.06-.19-.04-.38-.08-.57-.11-.1-.02-.19-.03-.29-.05-.19-.03-.38-.05-.57-.07-.09,0-.18-.02-.26-.03-.26-.02-.53-.03-.79-.03-.01,0-.03,0-.04,0-.32,0-.64.02-.96.05-.08,0-.16.02-.24.02-.32.04-.63.08-.94.14,0,0,0,0,0,0-.31.07-.62.15-.92.25-.08.02-.15.05-.23.07-.3.1-.6.22-.88.35-1.32.61-2.4,1.52-3.28,2.65-.59.75-1.1,1.6-1.53,2.52-.65,1.38-1.14,2.93-1.51,4.58-.25,1.1-.44,2.24-.59,3.4-.41,3.06-.53,6.24-.62,9.18.03.01.05.03.08.04.41.22.77.43,1.12.66.21.14.57.37,1.03.71,1.03.76,1.95,1.59,2.75,2.49.65.73,1.21,1.49,1.66,2.27.95,1.62,1.47,3.34,1.56,5.11.02.34.02.68,0,1.03-.08,1.96-.67,3.88-1.75,5.72-.79,1.36-1.82,2.6-3.02,3.68.64.79,1.39,1.48,2.28,2.05,0,0,0,0,0,0,.19.13.4.24.6.36.07.04.14.07.21.11.14.08.29.15.44.22.08.04.16.07.25.11.14.06.29.12.44.18.08.03.17.07.26.1.16.06.33.11.49.17.07.02.15.05.22.07.24.07.48.13.73.19.03,0,.06.01.1.02.21.05.43.09.65.12.08.01.17.02.25.03.17.02.34.04.51.06.09,0,.19.01.28.02.17.01.33.02.5.02.08,0,.17,0,.25,0,.31,0,.63-.02.94-.05.06,0,.12-.01.17-.02.29-.03.57-.08.85-.14.05-.01.1-.02.15-.03.31-.07.61-.16.91-.26.07-.02.13-.05.2-.07.3-.11.61-.24.9-.39,5.98-3.05,6.28-12.49,6.65-24.22.34-10.65.56-17.68-4.21-21.34Z"/>
      <path class="cls-2" d="m158.26.06c-.3.02-.59.06-.89.1-.26.03-.53.05-.78.09-.3.05-.59.11-.88.17-.24.05-.49.09-.73.15-.3.07-.58.16-.87.24-.23.06-.46.12-.69.19-.29.09-.58.21-.86.31-.21.08-.43.15-.64.24-.29.12-.57.25-.85.38-.2.09-.4.18-.6.27-.28.14-.56.3-.83.45-.19.1-.38.2-.56.31-.28.17-.55.35-.82.53-.17.11-.34.22-.51.33-.28.19-.54.4-.81.6-.15.12-.31.23-.47.35-.27.22-.53.45-.8.67-.14.12-.29.24-.43.37-.27.24-.52.49-.78.75-.13.13-.26.25-.39.37-.26.26-.51.54-.76.82-.12.13-.24.25-.35.38-.25.29-.5.59-.74.88-.11.13-.22.25-.32.39-.24.31-.48.63-.71.95-.1.13-.2.26-.29.39-.24.33-.46.67-.69,1.01-.09.13-.18.26-.26.39-.22.34-.44.7-.65,1.05-.08.13-.17.26-.25.4-.21.36-.42.73-.62,1.11-.07.13-.15.26-.22.4-.2.38-.4.77-.59,1.17-.06.13-.13.25-.19.38-.19.39-.37.79-.55,1.19-.06.14-.13.27-.19.4-.17.4-.34.8-.5,1.2-.06.14-.12.28-.18.42-.16.41-.32.83-.47,1.25-.05.14-.1.27-.15.41-.15.41-.29.83-.43,1.25-.05.14-.1.28-.14.43-.03.1-.06.21-.1.31,2.29,3.15,2.75,7.64,2.71,13.58-.01,1.98-.08,4.12-.15,6.43-.18,5.61-.35,10.66-1.11,14.81.18.31.36.62.55.92.3.46.61.91.94,1.35.99,1.31,2.11,2.5,3.38,3.51,3.3,2.64,7.35,3.97,11.44,4.39.58.06,1.17.1,1.75.12.46.02.93.02,1.39.02.23,0,.46-.01.69-.02.28,0,.57-.02.85-.03.23-.01.46-.03.69-.05.28-.02.56-.05.83-.07.23-.02.46-.06.7-.09.27-.04.55-.07.82-.12.23-.04.46-.08.69-.12.27-.05.55-.1.82-.16.23-.05.46-.1.69-.15.27-.06.54-.13.81-.2.23-.06.45-.12.68-.18.27-.08.53-.16.8-.24.22-.07.45-.14.67-.22.26-.09.53-.18.79-.28.22-.08.44-.16.66-.25.26-.1.52-.21.78-.32.21-.09.43-.18.64-.28.26-.12.51-.24.77-.36.21-.1.42-.2.62-.3.26-.13.51-.27.76-.4.2-.11.4-.21.6-.33.25-.14.5-.29.75-.45.19-.12.38-.23.57-.35.25-.16.5-.33.75-.49.18-.12.36-.24.54-.36.26-.18.51-.37.76-.56.16-.12.33-.24.49-.36.27-.21.54-.43.81-.66.13-.11.27-.21.4-.32.39-.34.78-.68,1.16-1.04,3.1-2.92,5.79-6.81,5.87-11.28.03-1.59-.32-3.16-.96-4.6-.26-.58-.56-1.13-.9-1.66-.34-.53-.72-1.03-1.14-1.49-1.46-1.62-3.34-2.79-5.39-3.2-.33-.07-.66-.11-.99-.14-.11-.01-.23-.01-.34-.02-.22-.01-.44-.03-.66-.03h0s-.04,0-.06,0c-.04,0-.07,0-.11,0-.38,0-.76.03-1.14.07-.11.01-.22.02-.33.03-.42.05-.84.11-1.26.2-.03,0-.07.02-.1.02-.4.08-.79.18-1.19.28-.11.03-.22.06-.32.09-.41.11-.82.23-1.22.36-2.64.83-5.21,1.88-7.71,3.1-.83.41-1.66.83-2.47,1.28-3.26,1.77-6.4,3.82-9.42,6.02h0c.33-4.38.66-8.76,1-13.14,0-.06,0-.12.01-.17.41.1.82.18,1.23.26.13.02.26.04.39.06.29.05.57.09.86.13.15.02.3.04.45.05.28.03.56.05.84.07.15.01.29.02.44.03.32.02.63.02.95.03.1,0,.2,0,.3,0,.46,0,.92-.02,1.37-.05.12,0,.23-.02.35-.03.36-.03.71-.06,1.07-.11.13-.02.25-.03.38-.05.45-.06.91-.14,1.35-.23.05,0,.09-.02.14-.03.41-.09.81-.19,1.21-.29.13-.03.26-.07.38-.11.35-.1.71-.22,1.05-.34.09-.03.19-.06.28-.1.43-.16.85-.33,1.27-.51.1-.04.2-.09.3-.14.33-.15.65-.31.97-.48.12-.06.23-.12.35-.18.41-.22.81-.45,1.2-.7,1.23-.79,2.38-1.73,3.43-2.78.45-1.82.99-3.59,1.62-5.3,1.43-3.88,3.03-7.05,4.65-9.64,0-2.44-.48-4.89-1.55-7.07C171.11,2.98,165.48.04,160.08,0h0c-.32,0-.64.02-.96.03,0,0-.02,0-.03,0-.28.01-.56.01-.83.03Z"/>
      <g>
        <path class="cls-2" d="m188.76,35.07c.25-.3.55-.67.88-1.07.5-.61,1.06-1.29,1.58-1.92.24-.29.49-.59.82-.76.1-.05.22-.08.33-.1.07-.02.15-.03.22-.04.07,0,.15-.02.22-.02.02,0,.04,0,.06,0,.17,0,.33,0,.5.02,1.41.1,2.83.14,4.25.14,1.76,0,3.51-.07,5.27-.22.4-.03,1.67-.03,3.35-.33,2.16-.37,5.01-1.23,7.56-3.26.96-.76,5.24-4.16,5.68-9.91.31-4.01-1.42-6.97-2.03-7.99-2.65-4.41-6.87-6-9.25-6.72-.65-.2-1.31-.37-1.98-.51-.23-.05-.46-.08-.69-.13-.4-.08-.81-.16-1.21-.22-.03,0-.06-.01-.09-.02,0,0-.01,0-.02,0-.27-.04-.54-.06-.81-.09-.18-.02-.35-.03-.53-.05-.23-.02-.45-.05-.68-.07,0,0,0,0-.01,0-.29-.02-.58-.02-.87-.03-.06,0-.13,0-.19,0-.31,0-.62-.03-.92-.03h-.15s-.06,0-.09,0c-.55,0-1.1.03-1.65.07-.21.01-.43.03-.64.05-.39.03-.77.08-1.16.13-.22.03-.44.06-.66.09-.48.07-.96.16-1.44.26-.2.04-.41.09-.61.13-.45.1-.89.21-1.34.33-.23.06-.46.13-.69.2-.34.1-.69.22-1.03.33-.24.08-.47.16-.71.25-.38.14-.75.29-1.13.45-1.39.58-2.74,1.26-4.03,2.06-6.37,3.96-10.9,12.03-13.47,19.03-.71,1.93-1.29,3.91-1.76,5.91-.48,2-.84,4.02-1.09,6.06.3-.07.6-.14.88-.2l.08-.02c.41-.08.84-.15,1.32-.21.11-.01.22-.02.35-.04.43-.04.83-.07,1.27-.07.04,0,.09,0,.14,0h0c.22,0,.43.01.65.03h.07s.11,0,.11,0c.09,0,.17,0,.26.01.37.04.74.09,1.08.16,2.16.43,4.25,1.66,5.89,3.48.45.5.86,1.03,1.23,1.6.37.57.69,1.17.97,1.79.71,1.6,1.07,3.32,1.04,4.98-.09,5.15-3.4,9.32-6.16,11.92-.38.36-.78.72-1.2,1.07-.08.07-.17.14-.26.21l-.15.12-.06.05c-.26.21-.51.42-.77.62-.11.08-.22.17-.33.25l-.08.06c.21.19.41.38.63.57,4.23,3.65,8.69,4.24,16.04,5.02.61.06,1.24.13,1.88.2.19.02.38.04.57.06.64.06,1.3.12,1.96.18.07,0,.13.01.2.02.7.06,1.4.1,2.11.13.18,0,.37.02.55.02.63.03,1.27.04,1.9.05.12,0,.24,0,.37,0,.07,0,.15,0,.22,0,.44,0,.87-.01,1.3-.03.09,0,.18,0,.27-.01.47-.02.94-.06,1.4-.1.1,0,.19-.02.29-.03.44-.05.88-.1,1.31-.16.04,0,.08-.01.12-.02.45-.07.9-.16,1.34-.26.1-.02.19-.04.29-.07.44-.11.87-.22,1.28-.36.04-.01.07-.03.11-.04.39-.13.76-.27,1.13-.43.08-.03.16-.07.24-.1.38-.17.75-.36,1.11-.57.07-.04.13-.08.2-.12.32-.2.63-.41.93-.64.05-.04.1-.07.15-.11.32-.26.62-.53.91-.83.06-.07.13-.14.19-.2.29-.31.56-.64.81-1,.12-.17.23-.34.33-.51.21-.35.39-.69.54-1.04,1.01-2.26,1.02-4.42,1.02-4.74-.04-2.43-.94-4.42-1.85-5.84-.2-.32-.41-.6-.6-.86s-.38-.49-.55-.68-.32-.36-.45-.5c-.06-.07-.12-.13-.17-.18-.99-1.05-2.09-1.87-3.24-2.52-.57-.32-1.16-.6-1.76-.84-.9-.36-1.81-.64-2.72-.86-.61-.15-1.22-.27-1.82-.37-.3-.05-.6-.1-.9-.14-.6-.08-1.19-.15-1.76-.2-.58-.06-1.14-.1-1.68-.15-.38-.03-.8-.06-1.25-.08-.01,0-.02,0-.04,0-.44-.02-.91-.03-1.4-.03-.03,0-.05,0-.07,0-.46,0-.95.01-1.46.03-.14,0-.29.02-.43.02-.39.02-.79.05-1.21.09-.17.01-.33.03-.5.05-.53.05-1.08.12-1.65.21-.04,0-.07,0-.11.01-.6.09-1.22.21-1.86.34-.18.04-.37.08-.55.12-.48.11-.98.23-1.48.36-.2.05-.4.1-.6.16-.68.19-1.38.4-2.09.65,0-1.48-.01-2.96-.02-4.45,1.12-.05,2.18-.08,3.17-.12s1.93-.06,2.79-.08c1.72-.04,3.17-.07,4.29-.08,4.96-.07,8.37,0,9.28-1.88.06-.11.11-.25.16-.41.09-.31.16-.7.14-1.1-.01-.2-.04-.41-.11-.62-.13-.45-.46-1.07-1.45-1.7-.14-.09-.3-.18-.47-.27-.12-.06-.25-.12-.37-.18-.03-.01-.07-.03-.1-.04-.12-.05-.25-.1-.38-.15,0,0-.01,0-.02,0-.13-.05-.27-.09-.42-.13-.04,0-.07-.02-.11-.03-.14-.04-.28-.07-.42-.1-.01,0-.03,0-.04,0-.16-.03-.32-.06-.5-.08-.04,0-.09-.01-.13-.02-.16-.02-.32-.04-.49-.05-.02,0-.04,0-.07,0-.19-.02-.4-.03-.61-.03-.05,0-.11,0-.16,0-.19,0-.39,0-.6-.01-.04,0-.07,0-.1,0-.11,0-.23,0-.34,0-.08,0-.16,0-.24,0-.13,0-.26,0-.39.01-.08,0-.16,0-.24,0-.16,0-.32.01-.49.02-.06,0-.12,0-.19,0-.24.01-.48.03-.73.04-3.42.22-6.84.68-6.84.68,0,0,.11-.13.28-.35.09-.11.2-.24.32-.39Z"/>
        <path class="cls-2" d="m172.51,37.49s.04,0,.06,0h0s-.04,0-.06,0Z"/>
      </g>
      <path class="cls-2" d="m120.97,54.45c-.29-5.76-5.51-9.15-6.6-9.86-.74-.48-1.48-.88-2.24-1.19-.11-.05-.23-.08-.35-.13-.2-.08-.39-.15-.59-.22-.04-.01-.07-.02-.11-.04-.03,0-.05-.02-.08-.03-.03-.01-.07-.02-.1-.03-.04-.01-.09-.03-.13-.04-.12-.04-.24-.07-.35-.1-.1-.03-.21-.06-.31-.09-.13-.03-.25-.07-.37-.1-.08-.02-.16-.03-.24-.05-.1-.02-.19-.04-.29-.06-.05,0-.09-.02-.14-.03-.12-.02-.24-.05-.35-.07-.05,0-.1-.01-.15-.02-.03,0-.06,0-.1-.01-.18-.03-.36-.06-.54-.08-.07,0-.14-.02-.2-.03-.33-.04-.65-.06-.96-.08-.09,0-.17,0-.26,0-.22,0-.45-.02-.66-.02-.18,0-.36,0-.53,0-.06,0-.13,0-.19,0-.24,0-.48.02-.71.03-.05,0-.1,0-.16.01-.18.01-.35.03-.52.04-.08,0-.15.02-.23.02-.14.01-.27.03-.4.05-.08,0-.15.02-.23.03-.13.02-.25.03-.37.05-.07,0-.13.02-.19.03-.13.02-.25.04-.36.06-.05,0-.1.02-.14.02-.15.02-.29.05-.43.07-.45.08-.88.16-1.3.26-2.9.68-5.12,1.84-6.5,2.69,1.19-1.41,2.72-3.37,4.25-5.87h-.01c1.38-2.24,2.77-4.92,3.93-8.03,1.65-4.41,7.5-20.05-.18-27.61-.25-.25-.52-.48-.8-.71-.06-.05-.12-.1-.19-.15-.28-.22-.57-.43-.88-.63-.05-.03-.1-.06-.15-.09-.28-.18-.57-.35-.87-.51-.06-.03-.12-.07-.19-.1-.33-.17-.67-.33-1.02-.47-.08-.03-.15-.06-.23-.09-.33-.13-.67-.26-1.02-.36-.03-.01-.07-.02-.1-.03-.37-.11-.75-.21-1.13-.29-.09-.02-.17-.04-.26-.05-.38-.07-.77-.14-1.16-.18-.04,0-.08,0-.13,0-.36-.04-.73-.05-1.09-.06-.08,0-.16,0-.24,0-.41,0-.82.03-1.22.07-.08,0-.16.02-.24.03-.42.05-.85.12-1.26.23-2.74.67-5,2.3-6.89,4.59-1.35,1.63-2.5,3.59-3.49,5.77-.03.07-.06.15-.09.22.07.3.13.59.17.89.6,3.98-.62,8-3.51,11.62-.19.24-.4.46-.6.68-.08.42-.17.85-.25,1.27-.1.51-.19,1.02-.28,1.53-.8,4.59-1.31,9.04-1.73,12.67-.08.67-.14,1.31-.2,1.95,0,0,0,0,0,0,0,0,0,0,0,0-.59,6.56-.11,11.49,2.71,15.87,1.74,2.72,3.97,4.63,5.86,5.92,0,0,0,0,0,0,.39.26.75.49,1.1.7.03.02.05.03.08.05.32.19.63.37.91.52,0,0,0,0,0,0,.29.15.56.3.79.41,2.25,1.1,4.63,1.87,7.08,2.4.61.13,1.23.25,1.84.36.05,0,.09.01.14.02.79.13,1.58.24,2.38.33.19.02.39.04.58.06.84.09,1.68.16,2.52.22,1.06.06,2.14.11,3.2.11.24,0,.48-.02.72-.02.05,0,.1,0,.15,0,.05,0,.11,0,.16,0,.4-.01.8,0,1.2-.03.49-.03.98-.06,1.47-.12.49-.05.98-.12,1.47-.19.54-.09,1.08-.19,1.61-.31.66-.14,1.31-.33,1.95-.53.92-.31,1.84-.68,2.71-1.12,4.47-2.27,8.04-6.94,7.79-12Z"/>
      <path class="cls-2" d="m74.36,58.18c-2.9-4.52-3.38-9.57-2.92-15.57-.03,0-.06,0-.09,0-.1,0-.19,0-.29,0-.24,0-.5-.02-.74-.02h-.26c-.45,0-.9.02-1.35.05h-.07c-.47.03-.92.07-1.38.12-.09,0-.17.02-.25.03-.43.05-.86.09-1.28.14-.09.02-.18.03-.26.04-.42.05-.82.12-1.21.17-3.12.45-8.24,1.63-13.9,5.17-.33-1.45-.67-2.89-1-4.33,4.32-1.18,7.74-2.04,9.93-2.56.3-.08.6-.14.89-.22.58-.14,1.13-.28,1.66-.41.52-.14,1.02-.26,1.49-.4,1.65-.46,2.92-.94,3.72-1.58.45-.37.75-.8.87-1.3.12-.49.14-1.37-.29-2.12-.26-.46-.82-1.09-2.31-1.49-.24-.06-.49-.11-.74-.14-.08,0-.15-.02-.24-.03-.19-.02-.39-.03-.59-.04h-.49c-.22,0-.44.03-.69.05h-.02c-.24.03-.5.07-.77.12-.07,0-.14.03-.21.04-.28.05-.58.11-.9.19h-.02c-.32.07-.66.16-1.01.25-.1.03-.19.05-.29.08-.37.1-.75.21-1.17.33h-.02c-1.02.31-2.05.63-2.96.94-.37.13-.72.24-1.05.35-.65.23-1.22.43-1.65.59-.53.19-.85.31-.85.31,0,0,1.19-2.37,2.15-4.32.08-.17.17-.34.27-.5.1-.16.22-.31.36-.43.17-.14.38-.24.6-.3.23-.06.45-.11.68-.14,2.35-.37,4.68-.88,6.98-1.52.76-.21,1.53-.43,2.28-.68.55-.17,2.84-.68,5.37-2.14,1.51-.88,3.11-2.09,4.46-3.79.77-.96,4.18-5.22,3.33-10.92-.6-3.97-2.95-6.48-3.76-7.33-3.57-3.7-8.04-4.32-10.52-4.48-.59-.04-1.18-.05-1.76-.05h-.19c-.16,0-.33,0-.49.02-.46,0-.93.03-1.39.06-.22.02-.43.04-.63.05-.44.05-.88.1-1.32.16-.19.03-.38.05-.57.09-1.69.34-3.59.84-5.63,1.56-2.56.91-4.74,1.97-6.54,2.98.43.4.88.83,1.34,1.35,1.85,2.2,3.15,4.79,3.86,7.72.32,1.42.84,5.09-1.09,8.61h-.02c-.46.97-2.08,3.09-4.03,4.39-.74.49-1.48.89-2.27,1.22-1.91.93-4.37,1.68-7.31,2.25-.7.14-1.49.27-2.35.39-.19.03-.4.05-.6.08-.18,1.65-.28,3.31-.3,4.97.55.29.98.66,1.33,1.13.22.31.95,1.42.93,2.77-.01,1.11-.56,2.1-1.64,2.96-.09.07-.18.12-.27.19.07.6.14,1.18.23,1.73.22,1.43.57,3.43,1.19,5.78.25.95.52,1.9.83,2.83,1.93,5.96,4.94,10.28,10.34,13.14h0c.33.18.65.33.97.48.12.05.23.09.33.14.22.09.43.18.65.26.13.05.25.09.39.14.2.07.4.14.6.2.14.05.27.08.4.12.2.05.4.11.6.15.14.04.27.06.41.09.2.05.41.08.61.12.14.02.27.05.41.06.21.04.43.06.64.08.13.02.25.04.38.05.26.03.52.04.79.05.08,0,.17.02.26.02.35.02.71.02,1.09.03.03,0,.06,0,.1,0,.52,0,1.07-.02,1.62-.05.08,0,.15,0,.23,0,.56-.03,1.14-.07,1.73-.13.12,0,.23-.02.34-.03.59-.05,1.2-.12,1.84-.19.12,0,.24-.03.35-.04.65-.07,1.32-.15,2.03-.24,1.95-.24,4.11-.5,6.27-.86,1.08-.19,2.16-.4,3.23-.65,1.6-.37,3.17-.83,4.62-1.41.97-.39,1.89-.83,2.73-1.35.11-.06.21-.14.31-.21-1.78-1.35-3.59-3.11-5.06-5.41Z"/>
      <path class="cls-2" d="m48.84,22.58s-1.34,2.47-3.76,4.07c-.69.45-1.38.83-2.15,1.15-1.56.77-3.8,1.56-7.11,2.19-.7.14-1.47.26-2.31.38-.42.07-.85.13-1.31.17-.67.07-1.4.14-2.15.2-.48.03-.98.06-1.49.08-.03,0-.05,0-.08,0h-.05c-.52.02-1.07.03-1.63.04-.92,0-1.86,0-2.87-.05-.04,0-.07,0-.11,0-.79-.05-1.6-.09-2.44-.16-1.6-.14-3.28-.36-5.06-.67.49,1.77,1.14,5.25,1.64,7.01l.44.02c.3.02.63.03.98.04h.58c.24,0,.49,0,.74,0,.29,0,.6,0,.91-.03.34,0,.71-.03,1.08-.05.62-.04.97-.08,1.3-.11,1.15-.1,2.22-.19,3.19-.26.44-.03.88-.05,1.29-.05.21,0,.42,0,.62,0s.4,0,.59,0c.43.02.83.05,1.19.11.54.1,1.02.24,1.43.44.41.22.75.5,1.02.87.33.46.77,1.33.76,2.24,0,.54-.19,1.38-1.3,2.25-1.4,1.12-3.11,1.38-6.59,1.46-.84.03-1.77.05-2.8.05-1.34,0-2.82-.03-4.44-.09.31,1.21,1.61,5.47,2.02,8.33.4,2.72.83,5.65.6,8.34-.33,3.76-2.14,6.62-5.93,7.47h0c-.75.16-1.52.25-2.29.27h-.26c-.16,0-.33,0-.51,0-2.39-.11-4.75-.97-6.57-2.62-.25-.23-.5-.49-.73-.75-.52-.59-.98-1.26-1.37-2-1.86-3.66-1.89-7.75-2.25-11.51-.41-4.26-.84-8.54-1.2-12.81-.38-4.46-.66-8.94-.28-13.32.24-2.8.77-6.1,2.62-9.78,3.16-6.29,8.33-9.31,11.15-10.9C20.14,1.06,25.87.56,27.33.46c.7-.05,1.43-.08,2.23-.08.27,0,.56,0,.85,0,.6.02,1.22.06,1.89.14.37.05.75.08,1.14.14.7.11,1.43.24,2.21.42,6.64,1.48,10.52,6.19,10.52,6.19,2.16,2.58,3.18,5.31,3.67,7.33.2.92.9,4.52-1,7.98Z"/>
    </g>
  </g>
  <g>
    <path class="cls-1" d="m225.39,81.26c-.26-.03-.49-.09-.7-.2-.21-.11-.39-.24-.53-.41-.14-.17-.25-.36-.31-.56-.06-.21-.08-.43-.04-.66.04-.23.11-.44.24-.63.12-.19.28-.35.47-.48.19-.13.4-.23.63-.3.23-.06.48-.08.74-.06.24.02.45.07.61.14.17.07.33.18.49.32.02.02.04.04.05.06.01.02.02.04.02.06,0,.02,0,.04,0,.06,0,.05-.04.1-.08.13-.05.03-.1.04-.16.04-.06,0-.12-.02-.17-.07-.1-.1-.21-.18-.33-.24-.12-.06-.28-.1-.48-.12-.19-.02-.37,0-.54.05-.17.05-.33.13-.47.23s-.26.23-.35.37c-.09.15-.15.3-.18.48-.03.17-.02.34.03.5.05.16.12.3.23.43s.24.23.39.31c.15.08.33.13.51.15.16.02.32,0,.47-.03.15-.03.3-.09.45-.16.06-.03.12-.04.17-.03.06,0,.1.03.13.07.03.04.04.09.04.15,0,.03-.01.05-.03.08-.02.03-.04.05-.07.07-.19.1-.38.17-.59.22-.2.04-.41.05-.63.03Z"/>
    <path class="cls-1" d="m230.77,81.51c-.28,0-.54-.04-.77-.12-.23-.08-.43-.2-.59-.35-.16-.15-.29-.33-.37-.53s-.12-.43-.11-.68c0-.24.06-.47.16-.67.1-.2.24-.38.41-.53.17-.15.38-.27.61-.36.23-.08.49-.13.77-.13s.53.03.76.12c.23.08.43.19.59.34.16.15.29.32.38.53.09.2.13.43.12.68,0,.25-.06.48-.16.69-.1.21-.24.39-.41.54-.17.15-.38.27-.61.35-.24.08-.49.13-.77.13Zm.01-.4c.21,0,.4-.03.58-.1.18-.07.33-.16.46-.28.13-.12.23-.26.31-.42.07-.16.11-.33.12-.51,0-.18-.02-.35-.09-.51-.06-.16-.16-.29-.28-.41-.12-.12-.27-.2-.44-.27-.17-.06-.36-.09-.57-.09-.21,0-.4.04-.57.1-.18.07-.33.16-.46.27-.13.12-.23.26-.31.41-.08.16-.12.33-.12.51,0,.18.02.35.09.51.06.16.16.29.28.41.12.12.27.21.44.27.17.07.36.1.57.1Z"/>
    <path class="cls-1" d="m235.36,81.28c-.07,0-.13,0-.18-.04-.05-.04-.08-.09-.09-.15-.1-1.15-.16-1.72-.26-2.86,0-.07.01-.12.06-.17.04-.05.1-.07.17-.08.1-.01.17.02.23.09.69.97,1.04,1.47,1.74,2.46-.06,0-.09.01-.15.02.48-1.14.72-1.71,1.2-2.84.04-.09.11-.13.21-.15.07,0,.13,0,.18.04.05.03.08.08.09.15.11,1.14.17,1.72.28,2.87,0,.06-.01.12-.06.17-.05.05-.1.08-.17.09-.07,0-.13,0-.18-.04-.05-.04-.08-.09-.09-.15-.09-.91-.13-1.36-.22-2.26.04-.01.06-.02.09-.03-.41.97-.62,1.45-1.03,2.43-.05.08-.12.13-.21.14-.1.01-.19-.02-.24-.11-.58-.82-.87-1.23-1.44-2.04.04-.01.06-.02.09-.03.08.9.12,1.35.21,2.26,0,.06-.01.12-.06.17-.04.05-.1.08-.17.09Z"/>
    <path class="cls-1" d="m241.66,80.28c-.07.02-.13.01-.19-.02-.06-.03-.09-.07-.11-.14-.26-1.13-.39-1.7-.64-2.81-.01-.06,0-.12.03-.17.04-.05.09-.09.16-.11.09-.02.17,0,.24.06.82.88,1.23,1.33,2.05,2.22-.06.02-.09.02-.15.04.33-1.2.49-1.79.81-2.98.03-.09.09-.15.19-.17.07-.02.13-.01.18.02.05.03.09.07.11.14.26,1.12.4,1.68.66,2.81.01.06,0,.12-.04.17-.04.05-.09.09-.15.11-.07.02-.13.01-.19-.02-.06-.03-.09-.08-.11-.14-.21-.89-.31-1.34-.52-2.22.03-.02.05-.03.09-.05-.28,1.01-.42,1.52-.7,2.54-.04.09-.1.14-.18.16-.1.03-.19,0-.25-.07-.68-.74-1.02-1.11-1.7-1.84.04-.02.05-.03.09-.05.2.88.3,1.33.51,2.22.01.06,0,.12-.03.17-.04.05-.09.09-.16.11Z"/>
    <path class="cls-1" d="m249,78.03c-.28.11-.55.17-.81.16-.26,0-.48-.07-.66-.19-.18-.12-.32-.29-.4-.5-.28-.75-.42-1.12-.69-1.86-.02-.06-.02-.12.01-.18.03-.06.08-.1.14-.12.07-.03.13-.03.19,0,.06.02.1.06.12.12.28.74.41,1.11.69,1.86.05.14.14.25.27.33.13.08.28.12.45.12.17,0,.36-.04.55-.11.19-.08.34-.17.46-.3.12-.12.2-.25.24-.4.04-.14.03-.29-.02-.43-.28-.75-.42-1.12-.7-1.86-.02-.06-.02-.12.01-.17.03-.06.08-.1.14-.12.07-.03.13-.03.18,0,.06.02.09.06.12.12.28.74.42,1.11.7,1.85.08.22.09.43.04.65-.06.22-.17.42-.35.6-.18.18-.4.33-.68.44Z"/>
    <path class="cls-1" d="m252.96,76.14c-.06.03-.12.04-.18.03-.06-.02-.1-.05-.13-.11-.53-1.02-.8-1.53-1.33-2.54-.03-.06-.03-.11-.01-.17.02-.06.06-.1.12-.14.07-.04.13-.04.2-.02,1.18.46,1.77.7,2.95,1.16-.43-.82-.65-1.23-1.08-2.04-.03-.06-.03-.12-.01-.17.02-.06.06-.11.12-.14.06-.04.12-.05.18-.03s.1.05.13.11c.53,1.01.8,1.51,1.34,2.53.03.06.03.11.02.17-.02.06-.06.11-.12.14-.03.02-.06.03-.1.03-.04,0-.07,0-.1,0-1.19-.47-1.78-.7-2.96-1.17.43.82.64,1.23,1.07,2.05.03.06.03.11.01.17-.02.06-.06.11-.13.14Z"/>
    <path class="cls-1" d="m257.67,73.29c-.06.04-.12.05-.18.05-.06,0-.11-.04-.14-.09-.63-.96-.94-1.44-1.55-2.38-.04-.05-.05-.11-.03-.17.02-.06.05-.11.11-.15.06-.04.12-.06.18-.05.06,0,.11.04.14.09.62.95.93,1.43,1.56,2.38.04.05.04.11.03.17-.01.06-.05.11-.11.15Z"/>
    <path class="cls-1" d="m261.2,70.71c-.2.16-.41.27-.63.35-.22.07-.45.1-.67.08-.22-.02-.43-.08-.63-.18-.2-.1-.37-.25-.52-.43-.14-.18-.24-.39-.3-.6-.05-.22-.06-.44-.03-.66.03-.22.11-.44.22-.64.12-.21.27-.39.47-.55.19-.15.36-.26.53-.32.17-.06.36-.1.57-.11.03,0,.06,0,.08,0,.02,0,.04.01.05.02.01.01.03.03.04.05.03.04.04.09.03.14-.01.05-.04.1-.08.14s-.1.06-.17.07c-.14,0-.28.02-.4.06-.12.04-.26.12-.42.25-.14.11-.26.25-.34.4-.08.15-.14.32-.16.49-.02.17-.01.34.03.5.04.17.12.32.23.46.11.14.24.25.39.33.15.08.31.13.48.14.17.01.34,0,.5-.05s.32-.13.46-.25c.12-.1.22-.21.3-.34.08-.13.14-.27.19-.42.02-.06.05-.11.1-.14.04-.03.09-.04.14-.04.05,0,.09.03.13.08.02.02.03.05.04.08,0,.03,0,.06,0,.09-.05.2-.14.38-.25.55-.11.17-.25.32-.41.45Z"/>
    <path class="cls-1" d="m263.74,68.44c-.06.06-.13.08-.21.07-.08-.02-.13-.06-.16-.14-.42-1.17-.62-1.75-1.03-2.91-.04-.1-.02-.19.06-.26.08-.08.16-.1.26-.05,1.14.44,1.72.66,2.86,1.1.08.03.12.09.14.16.01.08-.01.14-.08.21-.03.03-.07.05-.12.07-.05.01-.09.01-.13,0-1.04-.42-1.56-.62-2.59-1.04.04-.04.05-.05.09-.09.39,1.06.58,1.59.97,2.65.02.05.02.1,0,.14-.01.04-.04.08-.07.11Zm-.33-.69c-.05-.16-.07-.23-.12-.39.51-.51.76-.76,1.27-1.26.15.05.23.08.38.13-.61.61-.92.91-1.53,1.52Z"/>
    <path class="cls-1" d="m264.59,63.48s-.09.08-.14.08c-.05,0-.1,0-.15-.05-.04-.04-.07-.09-.07-.14,0-.06.02-.11.06-.16.62-.74.93-1.1,1.55-1.83.04-.05.09-.07.14-.08.05,0,.1.01.15.05.04.04.07.08.07.14,0,.05-.02.11-.06.15-.62.73-.93,1.09-1.55,1.83Zm2.93.94c-.04.05-.1.08-.15.09-.06,0-.11,0-.16-.05-.92-.79-1.37-1.19-2.28-1.97.12-.14.18-.21.3-.36.91.79,1.37,1.18,2.28,1.97.05.04.07.09.07.15,0,.06-.02.12-.06.17Z"/>
    <path class="cls-1" d="m269.73,61.58c-.04.05-.09.08-.15.09-.06.01-.11,0-.16-.04-.9-.67-1.34-1.01-2.23-1.68-.05-.04-.08-.09-.08-.15,0-.06.01-.12.05-.17.04-.05.09-.09.15-.1.06-.01.11,0,.16.04.89.67,1.34,1,2.23,1.67.05.04.08.09.08.14,0,.06,0,.12-.05.17Z"/>
    <path class="cls-1" d="m272.04,58.19c-.13.22-.29.39-.46.53-.18.14-.37.23-.57.28-.2.05-.41.06-.63.02-.21-.04-.42-.12-.62-.25-.2-.13-.37-.28-.49-.46-.12-.18-.21-.37-.25-.58-.04-.21-.04-.42,0-.65.04-.22.13-.44.26-.66.13-.22.29-.39.46-.52.18-.13.36-.23.57-.27.2-.05.41-.06.62-.02.21.04.42.12.62.25.2.13.37.28.49.46.13.18.21.37.26.58.04.21.05.42,0,.64-.04.22-.13.44-.26.65Zm-.33-.21c.1-.16.16-.32.19-.49.03-.17.02-.33-.01-.49-.04-.16-.1-.31-.2-.44-.1-.14-.22-.25-.37-.35-.15-.1-.31-.16-.47-.19-.16-.03-.32-.03-.47,0-.15.04-.3.1-.43.2-.13.1-.25.23-.35.39-.1.16-.16.32-.19.49-.03.17-.02.33.01.49.04.16.1.31.2.44.1.14.22.25.37.35.15.1.31.16.47.19.16.03.32.02.48-.01.16-.04.3-.1.44-.2.14-.1.25-.23.35-.39Z"/>
    <path class="cls-1" d="m273.96,54.66c-.03.06-.07.09-.12.11-.05.02-.11.01-.16-.02-.98-.51-1.47-.77-2.45-1.28-.06-.03-.09-.07-.11-.13-.02-.06-.01-.11.01-.17.03-.06.08-.1.14-.12,1.15-.23,1.73-.34,2.88-.55-.79-.42-1.18-.63-1.97-1.04-.06-.03-.09-.07-.11-.13-.02-.06-.01-.11.01-.17.03-.06.07-.09.12-.11.05-.02.1-.01.16.02.97.51,1.46.77,2.44,1.29.05.03.09.07.11.12.02.05.02.11-.01.17-.01.02-.03.05-.06.07-.02.02-.05.04-.08.04-1.15.21-1.72.32-2.88.54.79.41,1.18.62,1.98,1.04.05.03.09.07.11.13.02.06.02.11-.01.17Z"/>
  </g>
</svg>