<?xml version="1.0" encoding="UTF-8"?>
<svg id="Calque_1" data-name="Calque 1" xmlns="http://www.w3.org/2000/svg" viewBox="0 0 240.32 284.64">
  <defs>
    <style>
      .cls-1 {
        fill: #f6f2d6;
      }

      .cls-1, .cls-2, .cls-3, .cls-4 {
        stroke-width: 0px;
      }

      .cls-2 {
        fill: #f9f8e8;
      }

      .cls-3 {
        fill: #fbfaf0;
      }

      .cls-4 {
        fill: #031e39;
      }
    </style>
  </defs>
  <path class="cls-1" d="m160.81.26h-9.6c-.09-.05-.11-.11-.08-.16.03-.05.06-.08.09-.08h9.59c.09.05.12.1.09.15-.03.05-.06.08-.09.08h0Z"/>
  <path class="cls-3" d="m66.57,284.39v.23h-8.15v-.23h8.16,0Z"/>
  <path class="cls-2" d="m151.21.03v.23h-3.84V.03s3.84,0,3.84,0Z"/>
  <path class="cls-2" d="m160.81.26V.03h3.84v.23h-3.84Z"/>
  <path class="cls-4" d="m16.91,180.47c-.02-2.01.67-3.33,1.83-4.49,10.92-10.9,21.81-21.83,32.75-32.72.73-.73.78-1.08.02-1.83-10.91-10.86-21.78-21.75-32.65-32.64-2.04-2.04-2.52-4.49-1.38-6.76,1.56-3.09,5.54-3.99,8.27-1.84.44.34.83.75,1.23,1.14,10.77,10.77,21.54,21.54,32.28,32.33.73.73,1.07.77,1.82,0,10.91-10.97,21.85-21.91,32.79-32.84,3.09-3.08,7.99-2.05,9.28,1.98.69,2.17.17,4.1-1.45,5.71-4.55,4.55-9.1,9.1-13.65,13.66-6.39,6.39-12.76,12.79-19.17,19.15-.74.73-.85,1.11-.04,1.91,10.88,10.82,21.72,21.69,32.57,32.55,2.29,2.29,2.67,5.08,1.05,7.46-1.69,2.48-5.17,3.13-7.62,1.39-.52-.37-.98-.82-1.43-1.27-10.77-10.77-21.54-21.53-32.28-32.33-.74-.75-1.13-.83-1.92-.03-10.91,10.97-21.85,21.91-32.79,32.84-3.07,3.07-7.99,1.95-9.25-2.1-.16-.53-.2-1.09-.23-1.29h-.03Z"/>
</svg>