<?xml version="1.0" encoding="UTF-8"?>
<svg id="Calque_1" data-name="Calque 1" xmlns="http://www.w3.org/2000/svg" viewBox="0 0 357.12 284.64">
  <defs>
    <style>
      .cls-1 {
        fill: #f6f2d6;
      }

      .cls-1, .cls-2, .cls-3, .cls-4, .cls-5, .cls-6, .cls-7 {
        stroke-width: 0px;
      }

      .cls-2 {
        fill: #f2edc7;
      }

      .cls-3 {
        fill: #f9f8e8;
      }

      .cls-4 {
        fill: #f8f5e0;
      }

      .cls-5 {
        fill: #fbfaf0;
      }

      .cls-6 {
        fill: #fefefe;
      }

      .cls-7 {
        fill: #031e39;
      }
    </style>
  </defs>
  <path class="cls-2" d="m357.09,108.49v6c-.25.98-.06,1.98-.12,2.97.08,10.66-1.99,20.98-4.97,31.14-5.37,18.37-14.3,34.84-26.5,49.56-3.6,4.34-7.33,8.57-11.35,12.51-8.29,8.13-17.26,15.45-26.83,22.03-11.15,7.68-22.93,14.28-35.13,20.11-11.11,5.31-22.53,9.9-34.14,14.01-10.82,3.83-21.79,7.14-32.94,9.86-12.47,3.04-25.08,5.34-37.86,6.69-5.6.59-11.21.99-16.84,1.03-1.91.01-3.83.07-5.75.09-2.52,0-5.05,0-7.57,0-15.01.15-29.82-1.49-44.37-5.22-12.52-3.21-24.35-8.03-35.09-15.32-11.54-7.84-20.48-17.95-26.81-30.43-5.62-11.06-8.83-22.79-10.17-35.05-.65-5.99-.49-12.03-.44-18.07.1-13.08,2.79-25.72,6.33-38.21,3.37-11.89,8.18-23.21,14.04-34.09,6.23-11.56,13.67-22.27,22.21-32.23,5.39-6.28,11.16-12.19,17.31-17.75,8.57-7.73,17.71-14.69,27.39-20.97,5.8-3.77,11.79-7.21,17.91-10.44,9.06-4.79,18.42-8.89,28.02-12.45,12.89-4.77,26.1-8.34,39.61-10.83,7.63-1.4,15.31-2.44,23.04-3.03,3.3-.25,6.62-.3,9.93-.29,1.23,0,2.45,0,3.68,0,3.14,0,6.27,0,9.41,0,1.23,0,2.45,0,3.68,0,12.52-.02,24.83,1.77,37.03,4.47,11.7,2.59,23.05,6.29,33.94,11.3,10.8,4.97,20.9,11.08,29.9,18.89,13.18,11.42,22.82,25.27,28.38,41.87,2.29,6.85,3.89,13.86,4.64,21.04.27,2.57.33,5.18.3,7.77.06,1-.13,2,.12,2.99Z"/>
  <path class="cls-6" d="m205.77.26c-5.17.21-10.32.63-15.47,1.15-8.21.83-16.32,2.21-24.38,3.9-6.67,1.4-13.26,3.15-19.79,5.13-8.64,2.63-17.09,5.76-25.37,9.36-7.73,3.36-15.25,7.14-22.57,11.34-5.12,2.95-10.14,6.07-15.02,9.39-5.9,4.02-11.58,8.33-17.05,12.93-5.38,4.52-10.58,9.25-15.43,14.33-6.7,7.01-12.93,14.43-18.5,22.38-5.12,7.3-9.71,14.92-13.72,22.89-6.14,12.18-10.78,24.9-13.89,38.17-1.48,6.32-2.67,12.7-3.39,19.16-.36,3.21-.59,6.42-.75,9.64-.11,2.19-.21,4.39-.16,6.58.26,10.52,1.59,20.88,4.61,30.99,2.51,8.4,6.1,16.29,10.85,23.65,5.37,8.31,12.18,15.25,20.19,21.02,7.76,5.6,16.25,9.78,25.23,13.04,8.5,3.08,17.26,5.14,26.16,6.6,4.23.69,8.5,1.18,12.79,1.56,5.56.49,11.12.81,16.69.93.09.05.12.1.09.15-.03.05-.06.08-.09.08H.02v-1.18C.02,189.36.03,95.27,0,1.19,0,.25.13,0,1.14,0c68.21.03,136.42.03,204.63.03.09.05.12.11.09.16-.03.05-.06.07-.09.07Z"/>
  <path class="cls-6" d="m124.97,284.39c4.27.03,8.53-.23,12.78-.54,7.41-.54,14.8-1.39,22.15-2.54,13.01-2.02,25.81-4.93,38.45-8.56,13.01-3.74,25.74-8.3,38.26-13.42,8.76-3.59,17.32-7.62,25.71-12.01,7.64-4,15.07-8.37,22.23-13.18,6.65-4.47,13.08-9.24,19.17-14.48,4.36-3.75,8.65-7.57,12.61-11.74,8.7-9.17,16.53-19.01,22.79-30.04,5.89-10.37,10.42-21.28,13.46-32.81,1.64-6.21,2.88-12.49,3.59-18.87.32-2.85.7-5.69.7-8.57.07-.15.14-.15.23-.01,0,55.31,0,110.62.02,165.93,0,.9-.2,1.1-1.1,1.1-77.02-.02-154.03-.02-231.05-.02-.09-.05-.12-.1-.09-.15.03-.05.06-.08.09-.08Z"/>
  <path class="cls-6" d="m356.87,105.36c-.21-6.63-1.17-13.16-2.68-19.61-1.94-8.29-4.86-16.21-8.92-23.69-2.99-5.52-6.53-10.67-10.57-15.49-2.75-3.29-5.73-6.35-8.86-9.25-5.85-5.4-12.24-10.09-19.11-14.13-8.73-5.14-17.9-9.33-27.49-12.62-9.52-3.27-19.23-5.77-29.15-7.44-5.53-.94-11.08-1.69-16.68-2.17-3.45-.3-6.9-.56-10.36-.69-.09-.05-.12-.1-.09-.15.03-.05.06-.08.09-.08,44.3,0,88.6,0,132.9-.03.96,0,1.17.17,1.17,1.16-.03,34.74-.03,69.47-.03,104.21-.08.14-.16.14-.23-.01Z"/>
  <path class="cls-1" d="m219.21.26c-3.2,0-6.4,0-9.6,0-.09-.05-.11-.11-.08-.16.03-.05.06-.08.09-.08h9.59c.09.05.12.1.09.15-.03.05-.06.08-.09.08Z"/>
  <path class="cls-5" d="m124.97,284.39c0,.08,0,.15,0,.23h-8.15c0-.08,0-.15,0-.23,2.72,0,5.44,0,8.16,0Z"/>
  <path class="cls-3" d="m209.61.03c0,.08,0,.16,0,.23-1.28,0-2.56,0-3.84,0,0-.08,0-.15,0-.23h3.84Z"/>
  <path class="cls-3" d="m219.21.26c0-.08,0-.16,0-.23h3.84c0,.08,0,.15,0,.23-1.28,0-2.56,0-3.84,0Z"/>
  <path class="cls-4" d="m356.87,105.36c.08,0,.15,0,.23.01v3.12c-.5-1.01-.13-2.09-.23-3.13Z"/>
  <path class="cls-4" d="m357.09,117.61c-.08,0-.15,0-.23.01.09-1.04-.27-2.12.23-3.13v3.12Z"/>
  <path class="cls-7" d="m135.45,180.41c-.02-2.01.67-3.33,1.83-4.49,10.92-10.9,21.81-21.83,32.75-32.72.73-.73.78-1.08.02-1.83-10.91-10.86-21.78-21.75-32.65-32.64-2.04-2.04-2.52-4.49-1.38-6.76,1.56-3.09,5.54-3.99,8.27-1.84.44.34.83.75,1.23,1.14,10.77,10.77,21.54,21.54,32.28,32.33.73.73,1.07.77,1.82.01,10.91-10.97,21.85-21.91,32.79-32.84,3.09-3.08,7.99-2.05,9.28,1.98.69,2.17.17,4.1-1.45,5.71-4.55,4.55-9.1,9.1-13.65,13.66-6.39,6.39-12.76,12.79-19.17,19.15-.74.73-.85,1.11-.04,1.91,10.88,10.82,21.72,21.69,32.57,32.55,2.29,2.29,2.67,5.08,1.05,7.46-1.69,2.48-5.17,3.13-7.62,1.39-.52-.37-.98-.82-1.43-1.27-10.77-10.77-21.54-21.53-32.28-32.33-.74-.75-1.13-.83-1.92-.03-10.91,10.97-21.85,21.91-32.79,32.84-3.07,3.07-7.99,1.95-9.25-2.1-.16-.53-.2-1.09-.23-1.29Z"/>
</svg>