<?xml version="1.0" encoding="UTF-8"?>
<svg id="Calque_1" data-name="Calque 1" xmlns="http://www.w3.org/2000/svg" viewBox="0 0 577.14 245.05">
  <defs>
    <style>
      .cls-1 {
        fill: #54001a;
        stroke-width: 0px;
      }
    </style>
  </defs>
  <path class="cls-1" d="m0,189.07c7-5.66,15.12-10.1,23.92-12.16,11.4-2.18,22.31-6.37,32.65-11.58,2.31-1.13,4.41-2.64,6.17-4.52,1.78-1.86,2.93-4.19,4.41-6.31,2.98-4.24,7.05-7.65,11.54-10.19,2.26-1.25,4.65-2.29,7.16-2.98,2.5-.65,5.08-.85,7.57-1.56,4.96-1.33,9.79-3.19,14.38-5.48,2.31-1.11,4.37-2.67,6.65-3.91,2.26-1.26,4.57-2.4,6.92-3.47,2.29-1.05,4.85-1.87,6.18-4.18,1.06-1.54,1.65-3.68,3.36-4.76,1.11-.76,2.5-.95,3.78-1.05.62-.07,1.19-.25,1.54-.71.79-.92,0-2.28.22-3.64.09-.68.37-1.33.78-1.88.78-1.09,2.16-1.55,3.2-2.23.36-.25.55-.58.48-.98-.57-1.23-2.22-1.65-3.25-2.51-.81-.58-1.61-1.53-1.48-2.63.06-.38.23-.7.41-.98,1.53-2.14,3.51-3.8,5.34-5.65,2.74-2.75,5.63-5.41,9.13-7.18,2.59-1.33,4.7-2.35,2.54-5.31-3.09-4.09-7.37-7.13-11.75-9.72-1.13-.68-2.6-1.76-2.13-3.27.31-.73.89-1.13,1.42-1.51,1.62-1.09,3.37-1.94,5.09-2.84,4.59-2.34,9.24-4.59,13.87-6.88,2.27-1.25,4.77-2.04,7.28-2.64,7.32-1.92,15.27-3.61,22.43-5.79,4.94-1.47,9.42-4.06,14.01-6.32,1.4-.86,5.06-3.3,4.43-5.25-.19-.66-1.22-.99-1.63-1.68-.33-.57.07-1.35.52-1.66,1.07-.86,2.35-1.24,3.61-1.67,2.47-.76,5.04-1.33,7.58-1.69,1.87-.34,3.69-.92,5.36-1.84,1.75-.91,3.7-1.42,5.65-1.66,1.3-.15,2.59-.16,3.83-.38,1.84-.35,3.68-1.07,5.43-1.73,1.53-.6-.29-1.56-1-2.04-3.3-2.03-6.76-3.84-9.81-6.26-2.77-2.31,1.97-2.78,3.55-3.05,2.49-.42,5.15-.61,7.64-1.08,2.27-.46,8.97-1.81,11.35-2.32,1.13-.29,2.57-.41,3.49-1.09.1-.08.15-.16.15-.19.01-.04.01-.06-.04-.14-.12-.16-.38-.34-.63-.48-.57-.32-1.18-.54-1.75-.97-.08-.07-.17-.15-.25-.31-.1-.16-.07-.47.07-.61.2-.25.38-.27.62-.35.99-.24,1.98-.21,2.97-.26,6.4-.01,12.88-.58,19.21-1.44,1.94-.23,3.8-.72,5.75-.91,1.28-.11,2.61.1,3.86.02.15-.01.29-.03.42-.06.13-.02.24-.09.24-.08,0,0-.04.07-.03.1-.86-1.01-2.8-1.46-3.41-2.87-.24-.94.94-1.42,1.67-1.56,1.22-.34,4.53-.37,5.84-.47,3.87-.15,7.76-.46,11.64-.14,1.31.15,2.52.39,3.82.44,15.39.51,30.96-.39,46.35-.3.99.09,4.7-.09,4.55,1.27-.08.35-.28.5-.5.65-1.13.67-2.41.96-3.51,1.63-.24.14-.46.36-.47.43,0,.02,0,.01.02.07.24.3.67.37,1.04.53,3.66.97,7.57,1.19,11.37,1.24,5.1-.09,10.44.15,15.46,1.04,1,.21,2.06.24,2.96.9,1.21,1.18-.87,2.14-1.69,2.55-2.72,1.19-5.9,3.01-8.46,4.58-1.99,1.23-4.71,2.69-6.51,4.05-2.01,1.67-4.31,2.94-6.39,4.38-.5.36-.99.76-1.28,1.22-.76,1.15.64,1.89,1.35,2.66,1.87,1.83,3.92,3.53,5.21,5.87.65,1.56,1.06,3.55-.05,5.02-.26.33-.63.51-.91.65-1.68.83-3.46,1.66-4.83,2.92-.78.7-.73,2.24.21,2.73,1.72.63,3.74.48,5.56,1.44,1.23.46,1.99,1.67,3.16,2.22,1.13.62,2.31.83,3.59,1.02,2.58.57,5.18,1.4,7.15,3.24.93.94,1.47,2.03,2.68,2.57,1.74.68,3.79.9,5.49,1.81,1.18.55,2.08,1.46,3.35,1.78,1.23.42,2.47.34,3.76.49,1.31.18,2.58.44,3.84.85.94.3,1.99.84,2.51,1.79.18.32.28.68.37.98.29,1.19,1.13,2.1,2.25,2.58,1.96.63,4.93,3.69,3.07,5.62-.74.75-1.8.82-2.67,1.3-3.15,1.89-6.78,4.01-9.77,6.14-2.12,1.48-3.62,3.69-5.78,5.12-1.85,1.49-4.95,2.18-5.7,4.6-.31,1.14.19,2.34.75,3.47.54,1.12,1.33,2.11,2.28,2.92,1.94,1.73,4.68,2.12,6.62,3.9,1,.85,1.91,1.72,3.01,2.31,3.43,1.72,7.22,2.62,10.85,3.87,1.25.43,2.65.96,3.32,2.22.36.61.46,1.32.65,1.87.68,1.97,3.14,1.5,4.8,1.88,2.58.45,5.03,1.5,7.26,2.84,2.78,1.62,5.19,3.8,8.04,5.29,1.18.52,2.65.92,3.24,2.23.59,1.02,1.06,2.65-.02,3.51-.78.36-1.68.21-2.46.45-2.48.56-4.64,2-6.34,3.89-.97.88-1.47,2.21-2.58,2.93-1.09.81-2.53.58-3.69,1.17-1.71.76-3.14,2.16-3.52,4-.5,2.02,1.81,2.99,3.39,3.42,1.89.4,4.07-.16,5.67,1.27,1.31,1.47,2.66,2.68,4.55,3.32,2.4.87,4.88,1.61,7.35,2.31,1.93.37,3.76,1.57,4.82,3.24,1.58,2.33,4.55,1.54,6.95,1.89,3.19.43,6.32,1.27,9.51,1.77,2.55.46,5.19,1.4,6.97,3.38,1.29,1.48,2.3,3.47,1.9,5.5-.61,1.91-1.96,3.37-3.01,5.04-.35.53-.8,1.05-1.02,1.57-.53,1.8.96,3.58,2.28,4.67.97.81,2.2,1.13,3.47,1.2,2.55.12,5.21.27,7.64,1.35,3.35,1.94,6.78,3.67,10.4,5.04,3.65,1.27,7.15,3.05,10.42,5.1,2.19,1.35,4.41,2.66,6.55,4.12,1.06.76,2.2,1.49,2.86,2.67,1.01,1.75.09,3.9,1.09,5.62.53,1.21,1.75,1.82,2.5,2.89.37.56.62,1.18.73,1.84.21,1.3-.3,2.56.36,3.77,1.13,2.31,3.85,3.34,6.15,4.14,1.22.38,2.51.39,3.79.41,5.15.09,10.34,1,15.12,2.97,6.9,3.49,13.84,6.88,20.68,10.49,2.28,1.19,4.36,3.02,5.17,5.53.37,1.23.85,2.44,1.67,3.44,1.63,2.05,4.35,2.7,6.6,3.83,3.5,1.64,6.75,3.8,9.66,6.34-2.92-2.53-6.17-4.68-9.68-6.3-2.26-1.12-4.99-1.76-6.64-3.82-.83-1-1.32-2.23-1.7-3.45-.82-2.49-2.87-4.28-5.14-5.46-6.84-3.58-13.8-6.95-20.7-10.41-4.75-1.94-9.93-2.83-15.05-2.9-1.28,0-2.61-.02-3.86-.4-2.38-.82-5.14-1.86-6.33-4.27-.68-1.19-.22-2.59-.4-3.84-.11-.61-.35-1.21-.69-1.72-.74-1.01-2.01-1.7-2.53-2.91-1.06-1.73-.12-3.88-1.11-5.61-.62-1.1-1.74-1.81-2.76-2.54-2.12-1.44-4.35-2.74-6.55-4.08-2.2-1.34-4.44-2.6-6.79-3.62-2.35-1.03-4.84-1.8-7.16-2.9-1.76-.8-3.52-1.63-5.2-2.6-1.11-.67-2.17-1.29-3.45-1.56-1.88-.5-3.76-.57-5.7-.68-1.31-.07-2.68-.44-3.71-1.29-1.69-1.32-3.63-4.04-1.92-6.08,0,0,.56-.79.56-.79,2.56-3.81,4.66-5.67,1.12-9.94-1.69-1.88-4.25-2.78-6.69-3.21-2.53-.46-5.07-.92-7.59-1.47-1.24-.27-2.53-.36-3.79-.41-.64-.03-1.27,0-1.94-.04-1.36-.07-2.67-.82-3.46-1.91-1.07-1.64-2.64-2.66-4.55-3.05-2.49-.7-4.95-1.44-7.4-2.32-1.86-.61-3.47-1.97-4.71-3.41-1.53-1.33-3.61-.71-5.45-1.14-3.31-.86-4.99-2.74-3.04-5.92.72-1.17,1.87-1.97,3.06-2.53,1.15-.63,2.56-.36,3.62-1.13.54-.34.87-.8,1.22-1.33,1.18-1.58,2.55-3,4.24-4.07,1.67-1.01,3.62-1.68,5.57-1.79.3-.04.44-.12.57-.35.51-1.23-.48-3.14-1.61-3.72-.54-.25-1.19-.46-1.77-.75-2.87-1.47-5.32-3.68-8.1-5.3-2.17-1.31-4.55-2.32-7.05-2.76-1.82-.33-4.54-.03-5.27-2.27-.49-2.28-1.36-2.99-3.59-3.7-3.65-1.26-7.47-2.15-10.96-3.9-1.18-.63-2.15-1.56-3.11-2.38-1.93-1.76-4.7-2.14-6.64-3.9-1.81-1.58-3.79-4.51-3.26-7.04.34-1.38,1.53-2.31,2.67-2.99,2.26-1.27,4.4-2.56,6.12-4.51,2.57-2.81,6.25-4.79,9.44-6.81,1.25-.75,2.46-1.56,3.78-2.24,1.47-.47,3.36-1.06,1.97-3.17-.33-.5-.73-1.01-1.18-1.38-.96-.81-2.45-1.02-3.28-2.1-.75-.7-.88-1.8-1.27-2.65-.45-.79-1.23-1.18-2.11-1.46-1.19-.38-2.46-.65-3.7-.81-1.26-.14-2.65-.08-3.88-.51-1.28-.31-2.3-1.27-3.46-1.82-1.13-.54-2.34-.93-3.57-1.22-1.29-.22-2.66-.8-3.56-1.83-1.8-2.7-4.95-3.85-7.99-4.49-1.62-.2-3.32-.64-4.68-1.61-.77-.6-1.33-1.31-2.25-1.67-1.13-.53-2.34-.8-3.61-.96-.93-.13-2.3-.29-2.83-1.31-.54-.98-.39-2.39.44-3.13,1.47-1.37,3.28-2.2,5.03-3.08,1.76-.81,1.18-3.22.6-4.65-1.22-2.17-3.25-3.88-5.03-5.62-1.05-.96-2.51-2.06-1.49-3.66.41-.64.96-1.05,1.49-1.45,2.13-1.49,4.37-2.7,6.35-4.36,1.97-1.49,4.54-2.83,6.6-4.12,2.51-1.52,5.81-3.46,8.51-4.62.59-.31,1.25-.6,1.59-1.04,0-.02.02-.04,0-.04,0,0,0-.03-.07-.09-.72-.43-1.68-.56-2.55-.71-3.79-.6-7.63-1.02-11.46-1.02-3.8.08-7.89.02-11.63-.5-1.2-.27-5.92-.5-5.5-2.42.17-.5.48-.67.85-.93.86-.52,1.81-.83,2.7-1.22.33-.15.67-.28.92-.49.04-.03.01-.04,0,.05-.02.2.15.21-.04.13-1.08-.32-2.48-.35-3.66-.4-5.12-.11-10.28.09-15.43.17-7.45.08-15.7.24-23.19.24-3.85-.02-7.78.02-11.6-.61-3.82-.32-7.68-.02-11.52.13-1.63.19-4.99-.02-6.51.72-.09.04-.2.12-.25.18-.04.06-.05.05-.03.11.03.13.24.36.47.54.88.75,2,1.14,2.8,2.05.06.11.14.21.17.41.05.76-.85.87-1.36.91-1.32.07-2.57-.13-3.86-.03-1.89.2-3.8.67-5.7.9-6.36.86-12.87,1.41-19.3,1.43-1,.03-2.12.02-3.02.32.03-.02.04-.15.02-.16-.01-.02.02.02.06.06.82.62,1.81.73,2.51,1.59,1.04,1.84-2.96,2.31-4.06,2.58-4.24.84-10.92,2.39-15.21,2.85-2.45.38-5.13.48-7.42,1.38-.21.14-.23.22-.17.34.54.71,1.35,1.21,2.09,1.75,2.64,1.83,5.45,3.4,8.2,5.07.74.51,2.34,1.31,1.83,2.51-.68.96-1.8,1.02-2.76,1.42-1.21.43-2.47.89-3.76,1.1-2.58.35-5.1.29-7.55,1.22-1.24.39-2.29,1.12-3.51,1.58-2.4,1.01-5.06,1.16-7.56,1.74-1.87.44-3.73.89-5.5,1.62-.57.25-1.15.52-1.59.9-.21.18-.39.4-.41.59-.03.19.06.34.28.53,4.07,2.43-.91,6.1-3.3,7.53-4.65,2.28-9.16,4.88-14.13,6.35-7.23,2.14-15.15,3.89-22.47,5.77-2.51.6-4.93,1.36-7.2,2.61-4.61,2.27-9.24,4.51-13.83,6.84-1.71.88-3.44,1.73-5.03,2.79-.51.35-1.02.76-1.21,1.24,0,0-.05.18-.05.18v.2c0,.42.19.8.48,1.1,1.38,1.29,3.19,2.09,4.75,3.18,2.17,1.42,4.19,3.08,6.03,4.9,1.51,1.66,4.69,4.29,3.13,6.79-.86,1.12-2.13,1.53-3.28,2.21-1.13.61-2.22,1.27-3.27,2-2.11,1.44-3.89,3.33-5.75,5.09-1.8,1.79-3.79,3.51-5.27,5.55-.34.51-.46,1.03-.21,1.6.52,1.13,1.72,1.73,2.77,2.36.64.42,1.58.9,1.83,1.78.16.57-.23,1.2-.67,1.49-1.68.97-3.52,1.67-3.8,3.77-.23,1.24.63,2.76-.32,3.87-.42.57-1.19.82-1.86.89-1.89.1-3.81.6-4.88,2.26-1.02,1.58-1.75,3.52-3.17,4.88-1.43,1.37-3.4,1.96-5.13,2.8-2.34,1.06-4.65,2.2-6.89,3.45-2.24,1.23-4.33,2.79-6.67,3.91-4.63,2.3-9.48,4.14-14.48,5.46-2.48.7-5.09.89-7.57,1.53-2.47.67-4.84,1.69-7.09,2.92-4.46,2.5-8.51,5.88-11.48,10.06-1.47,2.09-2.64,4.44-4.45,6.32-1.78,1.89-3.92,3.42-6.25,4.54-10.37,5.18-21.31,9.33-32.73,11.48-8.8,2.03-16.93,6.44-23.94,12.07h0Z"/>
  <path class="cls-1" d="m236.75,44.59c16.18-.32,34.09-.26,50.28.19-16.19.32-34.09.26-50.28-.19h0Z"/>
  <path class="cls-1" d="m209.3,95.05c23.96-.33,50.59-.25,74.57.19-23.98.32-50.61.26-74.57-.19h0Z"/>
  <path class="cls-1" d="m199.47,141.26c23.96-.33,50.59-.25,74.57.19-23.98.32-50.61.26-74.57-.19h0Z"/>
  <path class="cls-1" d="m276.18,233.82c23.96-.33,50.59-.25,74.57.19-23.98.32-50.61.26-74.57-.19h0Z"/>
  <path class="cls-1" d="m110.7,186.88c28.1-.33,59.33-.25,87.44.19-28.12.32-59.34.26-87.44-.19h0Z"/>
  <path class="cls-1" d="m265.36,20.92c10.47-.29,21.02-.19,31.48.31-10.48.29-21.02.19-31.48-.31h0Z"/>
  <path class="cls-1" d="m301.49,26.99c10.47-.29,21.02-.19,31.48.31-10.48.29-21.02.19-31.48-.31h0Z"/>
  <path class="cls-1" d="m318.86,53.86c6.13-.36,12.31-.32,18.44.12-6.13.36-12.31.32-18.44-.12h0Z"/>
  <path class="cls-1" d="m329.87,121.42c8.6-.36,17.26-.32,25.86.12-8.6.36-17.26.32-25.86-.12h0Z"/>
  <path class="cls-1" d="m301.25,202.79c6.81-.36,13.69-.32,20.5.12-6.82.36-13.69.32-20.5-.12h0Z"/>
  <path class="cls-1" d="m441.59,214.8c6.81-.36,13.69-.32,20.5.12-6.82.36-13.69.32-20.5-.12h0Z"/>
  <path class="cls-1" d="m334.04,11.27c6.13-.36,12.31-.32,18.44.12-6.13.36-12.31.32-18.44-.12h0Z"/>
  <path class="cls-1" d="m265.36,67.31c15.48-.29,32.61-.18,48.1.31-15.49.29-32.62.18-48.1-.31h0Z"/>
  <path class="cls-1" d="m331.68,168.5c15.48-.29,32.61-.18,48.1.31-15.49.29-32.62.18-48.1-.31h0Z"/>
  <path class="cls-1" d="m421.09,207.11c15.48-.29,32.61-.18,48.1.31-15.49.29-32.62.18-48.1-.31h0Z"/>
  <path class="cls-1" d="m290.39,13.9c5.49-.4,11.04-.4,16.53,0-5.49.4-11.04.4-16.53,0h0Z"/>
  <path class="cls-1" d="m303.68,5.34c4.14-.47,8.3-.55,12.46-.22-4.14.48-8.3.55-12.46.22h0Z"/>
</svg>